<svg xmlns="http://www.w3.org/2000/svg" width="640" height="612" viewBox="0 0 640 612" role="img" aria-label="AiliaoX — 从一句话，到一次连接。"><title>AiliaoX — 从一句话，到一次连接。</title><style>
text{font-family:Arial,"Microsoft YaHei","PingFang SC",sans-serif}
.drift{animation:drift 7s ease-in-out infinite;transform-box:fill-box;transform-origin:center}
.trace{stroke-dasharray:80 1100;animation:trace 6s linear infinite}
.turn{animation:turn 25s linear infinite;transform-box:fill-box;transform-origin:center}
.blink{animation:blink 4s ease-in-out infinite}
@keyframes drift{50%{transform:translateY(-8px)}}
@keyframes trace{to{stroke-dashoffset:-1180}}
@keyframes turn{to{transform:rotate(360deg)}}
@keyframes blink{50%{opacity:.45}}
@media(prefers-reduced-motion:reduce){.drift,.trace,.turn,.blink{animation:none!important}}
</style><rect x="0" y="0" width="640" height="612" rx="25" fill="#E9DFF9" /><ellipse cx="324" cy="403" rx="215" ry="23" fill="#7043B7" opacity=".09"/><path d="M318 149V214M318 214H142V281M318 214V294M318 214H506V281" fill="none" stroke="#7043B7" stroke-width="4" stroke-linecap="round" stroke-linejoin="round" opacity=".45" class="connection"/><g class="drift"><rect x="163" y="61" width="320" height="103" rx="23" fill="#BA9BDD" /><rect x="163" y="48" width="320" height="103" rx="23" fill="#FFFFFF" /><text x="185" y="107" font-size="21" fill="#20234B" >一个想法，连接更多可能</text><path d="M211 149V179L246 149" fill="#FFFFFF"/></g><rect x="77" y="286" width="130" height="103" rx="24" fill="#C8AEDF" /><rect x="77" y="274" width="130" height="103" rx="24" fill="#FFFFFF" /><circle cx="142" cy="306" r="18" fill="#7043B7" /><text x="142" y="313" font-size="22" fill="#FFFFFF" text-anchor="middle">…</text><text x="142" y="356" font-size="19" fill="#20234B" text-anchor="middle">对话</text><circle cx="142" cy="230" r="6" fill="#FF9869" class="blink"/><rect x="253" y="286" width="130" height="103" rx="24" fill="#C8AEDF" /><rect x="253" y="274" width="130" height="103" rx="24" fill="#FFFFFF" /><circle cx="318" cy="306" r="18" fill="#7043B7" /><text x="318" y="313" font-size="22" fill="#FFFFFF" text-anchor="middle">✳</text><text x="318" y="356" font-size="19" fill="#20234B" text-anchor="middle">工具</text><circle cx="318" cy="230" r="6" fill="#FF9869" class="blink"/><rect x="441" y="286" width="130" height="103" rx="24" fill="#C8AEDF" /><rect x="441" y="274" width="130" height="103" rx="24" fill="#FFFFFF" /><circle cx="506" cy="306" r="18" fill="#7043B7" /><text x="506" y="313" font-size="22" fill="#FFFFFF" text-anchor="middle">≡</text><text x="506" y="356" font-size="19" fill="#20234B" text-anchor="middle">信息</text><circle cx="506" cy="230" r="6" fill="#FF9869" class="blink"/><g class="turn"><rect x="504" y="105" width="64" height="14" rx="7" fill="#FF9869" transform="rotate(0 536 112)"/><rect x="504" y="105" width="64" height="14" rx="7" fill="#FF9869" transform="rotate(60 536 112)"/><rect x="504" y="105" width="64" height="14" rx="7" fill="#FF9869" transform="rotate(120 536 112)"/></g><g aria-label="AiliaoX" transform="translate(40,471)"><path fill="#20234B" d="M0.59 0.00 8.79 -24.09H16.45L24.92 0.00H20.08L12.94 -20.89L14.60 -20.16H10.48L12.21 -20.89L5.28 0.00ZM6.34 -6.39 7.80 -10.35H17.57L19.04 -6.39Z M28.27 0.00V-17.92H32.86V0.00ZM25.77 -14.49V-17.92H32.86V-14.49ZM29.95 -20.06Q28.60 -20.06 27.96 -20.77Q27.32 -21.47 27.32 -22.56Q27.32 -23.64 27.96 -24.35Q28.61 -25.05 29.94 -25.05Q31.29 -25.05 31.93 -24.35Q32.56 -23.64 32.56 -22.56Q32.56 -21.47 31.93 -20.77Q31.29 -20.06 29.95 -20.06Z M37.67 0.00V-24.09H42.26V0.00ZM35.43 -20.66V-24.09H42.26V-20.66Z M47.66 0.00V-17.92H52.25V0.00ZM45.16 -14.49V-17.92H52.25V-14.49ZM49.34 -20.06Q47.99 -20.06 47.35 -20.77Q46.71 -21.47 46.71 -22.56Q46.71 -23.64 47.35 -24.35Q48.00 -25.05 49.33 -25.05Q50.68 -25.05 51.32 -24.35Q51.95 -23.64 51.95 -22.56Q51.95 -21.47 51.32 -20.77Q50.68 -20.06 49.34 -20.06Z M67.67 0.00V-5.31H66.91V-11.22Q66.91 -12.75 66.15 -13.52Q65.39 -14.29 63.83 -14.29Q63.00 -14.29 61.85 -14.26Q60.69 -14.22 59.52 -14.17Q58.35 -14.12 57.43 -14.06V-17.95Q58.18 -18.02 59.13 -18.08Q60.08 -18.13 61.10 -18.16Q62.11 -18.18 63.00 -18.18Q65.76 -18.18 67.60 -17.45Q69.44 -16.71 70.37 -15.16Q71.30 -13.61 71.30 -11.10V0.00ZM61.90 0.46Q59.95 0.46 58.49 -0.22Q57.03 -0.91 56.22 -2.20Q55.41 -3.50 55.41 -5.31Q55.41 -7.28 56.38 -8.54Q57.34 -9.80 59.11 -10.42Q60.87 -11.04 63.25 -11.04H67.41V-8.30H63.18Q61.62 -8.30 60.77 -7.53Q59.93 -6.77 59.93 -5.53Q59.93 -4.31 60.77 -3.56Q61.62 -2.81 63.18 -2.81Q64.14 -2.81 64.96 -3.15Q65.77 -3.50 66.31 -4.33Q66.85 -5.16 66.91 -6.63L68.03 -5.35Q67.87 -3.47 67.13 -2.18Q66.38 -0.89 65.08 -0.21Q63.78 0.46 61.90 0.46Z M84.13 0.63Q81.77 0.63 79.96 -0.13Q78.14 -0.89 76.89 -2.19Q75.63 -3.48 74.99 -5.13Q74.35 -6.78 74.35 -8.58V-9.27Q74.35 -11.10 75.02 -12.78Q75.68 -14.45 76.95 -15.75Q78.22 -17.04 80.04 -17.80Q81.85 -18.55 84.13 -18.55Q86.42 -18.55 88.23 -17.80Q90.04 -17.04 91.31 -15.75Q92.58 -14.45 93.25 -12.78Q93.92 -11.10 93.92 -9.27V-8.58Q93.92 -6.78 93.27 -5.13Q92.63 -3.48 91.38 -2.19Q90.12 -0.89 88.31 -0.13Q86.49 0.63 84.13 0.63ZM84.13 -3.30Q85.81 -3.30 86.97 -4.03Q88.12 -4.77 88.73 -6.05Q89.33 -7.33 89.33 -8.93Q89.33 -10.58 88.71 -11.86Q88.09 -13.13 86.93 -13.88Q85.77 -14.62 84.13 -14.62Q82.51 -14.62 81.34 -13.88Q80.17 -13.13 79.55 -11.86Q78.93 -10.58 78.93 -8.93Q78.93 -7.33 79.54 -6.05Q80.14 -4.77 81.30 -4.03Q82.47 -3.30 84.13 -3.30Z M95.00 0.00 103.48 -12.84 103.51 -12.28 95.72 -24.09H100.92L106.14 -15.99H106.83L112.03 -24.09H117.04L109.15 -12.18L109.09 -12.74L117.77 0.00H112.57L106.51 -9.04H105.82L100.01 0.00Z"/></g><text x="40" y="517" font-size="23" fill="#20234B" >从一句话，到一次连接。</text><text x="40" y="566" font-size="18" fill="#7043B7" >TypeScript / AI / MCP</text><text x="592" y="569" font-size="28" fill="#7043B7" text-anchor="end">→</text></svg>