<svg xmlns="http://www.w3.org/2000/svg" width="1200" height="245" viewBox="0 0 1200 245" role="img"><title>Desktop Operator — 让 AI 操作桌面，点击打开项目</title><defs>
<linearGradient id="metal" x1="0" y1="0" x2=".75" y2="1"><stop stop-color="#9FF4E3"/><stop offset=".27" stop-color="#738AFF"/><stop offset=".52" stop-color="#F2CAFF"/><stop offset=".74" stop-color="#B2A1ED"/><stop offset="1" stop-color="#FFBD94"/></linearGradient>
<linearGradient id="type" x1="0" y1="0" x2="0" y2="1"><stop stop-color="#FFFFFF"/><stop offset="1" stop-color="#6C7098" stop-opacity=".24"/></linearGradient>
<radialGradient id="light"><stop stop-color="#5260AF" stop-opacity=".24"/><stop offset="1" stop-color="#070B18" stop-opacity="0"/></radialGradient>
<clipPath id="clip"><rect width="1200" height="245" rx="22"/></clipPath>
</defs><style>text{font-family:Arial,'Microsoft YaHei','PingFang SC',sans-serif}@keyframes breathe{0%,100%{transform:translateY(4px)}50%{transform:translateY(-9px)}}
@media(prefers-reduced-motion:reduce){.motion{animation:none!important}}
</style><g clip-path="url(#clip)"><rect width="1200" height="245" fill="#070B18"/><ellipse cx="965" cy="142" rx="280" ry="185" fill="url(#light)"/><text x="45" y="56" font-size="23" fill="#A8AEC8" >AI 能真正动手吗？</text><g aria-label="Desktop Operator" transform="translate(42,118)"><path fill="#EDF7FA" d="M9.12 0.17V-5.50H15.61Q18.04 -5.50 19.95 -6.26Q21.87 -7.01 23.21 -8.37Q24.55 -9.74 25.26 -11.62Q25.97 -13.50 25.97 -15.76Q25.97 -18.12 25.26 -19.99Q24.55 -21.87 23.21 -23.20Q21.87 -24.53 19.95 -25.23Q18.04 -25.93 15.61 -25.93H9.12V-31.60H15.22Q19.48 -31.60 22.65 -30.35Q25.82 -29.09 27.94 -26.92Q30.06 -24.75 31.11 -21.98Q32.16 -19.22 32.16 -16.23V-15.29Q32.16 -12.47 31.11 -9.71Q30.06 -6.94 27.94 -4.72Q25.82 -2.49 22.65 -1.16Q19.48 0.17 15.22 0.17ZM3.87 0.17V-31.60H9.98V0.17Z M46.90 0.82Q43.89 0.82 41.63 -0.21Q39.38 -1.25 37.89 -2.98Q36.41 -4.71 35.66 -6.86Q34.90 -9.01 34.90 -11.27V-12.08Q34.90 -14.40 35.66 -16.57Q36.41 -18.73 37.88 -20.44Q39.35 -22.14 41.56 -23.16Q43.76 -24.17 46.64 -24.17Q50.43 -24.17 52.97 -22.50Q55.52 -20.83 56.82 -18.16Q58.12 -15.48 58.12 -12.38V-10.21H37.44V-13.87H54.36L52.53 -12.08Q52.53 -14.32 51.88 -15.91Q51.22 -17.50 49.92 -18.36Q48.62 -19.22 46.64 -19.22Q44.64 -19.22 43.27 -18.31Q41.89 -17.39 41.19 -15.71Q40.49 -14.02 40.49 -11.65Q40.49 -9.44 41.17 -7.74Q41.85 -6.04 43.27 -5.08Q44.69 -4.13 46.90 -4.13Q49.07 -4.13 50.45 -5.01Q51.82 -5.89 52.21 -7.16H57.72Q57.22 -4.77 55.75 -2.97Q54.28 -1.16 52.03 -0.17Q49.78 0.82 46.90 0.82Z M70.88 0.73Q66.05 0.73 63.33 -1.30Q60.61 -3.33 60.46 -6.94H65.83Q65.96 -5.74 67.17 -4.76Q68.39 -3.78 70.97 -3.78Q73.10 -3.78 74.38 -4.56Q75.66 -5.33 75.66 -6.64Q75.66 -7.80 74.69 -8.49Q73.72 -9.18 71.38 -9.42L69.31 -9.63Q65.40 -10.04 63.29 -11.86Q61.19 -13.67 61.19 -16.66Q61.19 -19.07 62.39 -20.70Q63.59 -22.34 65.72 -23.19Q67.85 -24.04 70.60 -24.04Q74.92 -24.04 77.59 -22.13Q80.26 -20.23 80.39 -16.58H75.01Q74.90 -17.80 73.80 -18.66Q72.69 -19.52 70.56 -19.52Q68.69 -19.52 67.65 -18.79Q66.60 -18.06 66.60 -16.88Q66.60 -15.78 67.44 -15.18Q68.28 -14.58 70.17 -14.36L72.24 -14.15Q76.37 -13.72 78.72 -11.87Q81.07 -10.02 81.07 -6.86Q81.07 -4.56 79.81 -2.85Q78.54 -1.14 76.25 -0.20Q73.96 0.73 70.88 0.73Z M101.66 0.00 93.83 -10.90H90.35L100.26 -23.35H106.52L97.34 -11.87L97.49 -14.86L108.41 0.00ZM85.32 0.00V-31.39H91.30V0.00Z M121.28 0.30Q118.05 0.30 115.97 -0.54Q113.88 -1.38 112.86 -3.36Q111.84 -5.35 111.84 -8.75L111.86 -29.93H117.45L117.43 -8.38Q117.43 -6.66 118.35 -5.74Q119.28 -4.82 121.00 -4.82H124.65V0.30ZM108.14 -18.96V-23.35H124.65V-18.96Z M140.18 0.82Q137.11 0.82 134.75 -0.17Q132.38 -1.16 130.75 -2.85Q129.11 -4.54 128.27 -6.69Q127.43 -8.84 127.43 -11.18V-12.08Q127.43 -14.47 128.31 -16.65Q129.18 -18.83 130.83 -20.52Q132.49 -22.21 134.85 -23.19Q137.22 -24.17 140.18 -24.17Q143.17 -24.17 145.53 -23.19Q147.88 -22.21 149.54 -20.52Q151.19 -18.83 152.06 -16.65Q152.93 -14.47 152.93 -12.08V-11.18Q152.93 -8.84 152.10 -6.69Q151.26 -4.54 149.62 -2.85Q147.99 -1.16 145.62 -0.17Q143.26 0.82 140.18 0.82ZM140.18 -4.30Q142.38 -4.30 143.88 -5.26Q145.39 -6.21 146.17 -7.88Q146.96 -9.55 146.96 -11.63Q146.96 -13.78 146.15 -15.45Q145.34 -17.11 143.83 -18.08Q142.31 -19.05 140.18 -19.05Q138.08 -19.05 136.55 -18.08Q135.02 -17.11 134.22 -15.45Q133.41 -13.78 133.41 -11.63Q133.41 -9.55 134.20 -7.88Q134.98 -6.21 136.50 -5.26Q138.01 -4.30 140.18 -4.30Z M157.48 8.60V-23.35H162.21V-13.27L161.48 -13.31Q161.65 -16.90 162.96 -19.30Q164.27 -21.69 166.47 -22.89Q168.66 -24.08 171.37 -24.08Q173.84 -24.08 175.85 -23.17Q177.86 -22.25 179.30 -20.63Q180.74 -19.01 181.51 -16.83Q182.27 -14.66 182.27 -12.15V-11.24Q182.27 -8.73 181.52 -6.55Q180.76 -4.36 179.33 -2.72Q177.90 -1.07 175.88 -0.15Q173.86 0.77 171.35 0.77Q168.75 0.77 166.57 -0.31Q164.40 -1.40 163.06 -3.71Q161.72 -6.02 161.56 -9.65L163.46 -6.77V8.60ZM169.84 -4.26Q171.78 -4.26 173.23 -5.20Q174.68 -6.15 175.49 -7.84Q176.29 -9.52 176.29 -11.70Q176.29 -13.91 175.49 -15.56Q174.68 -17.20 173.24 -18.12Q171.80 -19.05 169.84 -19.05Q168.10 -19.05 166.61 -18.26Q165.11 -17.48 164.20 -15.99Q163.28 -14.49 163.28 -12.38V-10.66Q163.28 -8.64 164.23 -7.21Q165.18 -5.78 166.68 -5.02Q168.19 -4.26 169.84 -4.26Z  M210.63 0.82Q206.37 0.82 203.25 -0.68Q200.13 -2.17 198.09 -4.61Q196.05 -7.05 195.05 -9.87Q194.05 -12.68 194.05 -15.31V-16.25Q194.05 -19.13 195.08 -21.98Q196.11 -24.83 198.20 -27.17Q200.28 -29.50 203.38 -30.90Q206.48 -32.29 210.63 -32.29Q214.75 -32.29 217.85 -30.90Q220.95 -29.50 223.03 -27.17Q225.12 -24.83 226.16 -21.98Q227.20 -19.13 227.20 -16.25V-15.31Q227.20 -12.68 226.19 -9.87Q225.18 -7.05 223.14 -4.61Q221.10 -2.17 217.98 -0.68Q214.86 0.82 210.63 0.82ZM210.63 -4.86Q213.03 -4.86 214.96 -5.72Q216.88 -6.58 218.24 -8.09Q219.59 -9.61 220.30 -11.57Q221.01 -13.52 221.01 -15.74Q221.01 -18.08 220.29 -20.06Q219.57 -22.04 218.21 -23.51Q216.86 -24.98 214.94 -25.80Q213.01 -26.62 210.63 -26.62Q208.22 -26.62 206.29 -25.80Q204.37 -24.98 203.01 -23.51Q201.66 -22.04 200.95 -20.06Q200.24 -18.08 200.24 -15.74Q200.24 -13.52 200.95 -11.57Q201.66 -9.61 203.01 -8.09Q204.37 -6.58 206.29 -5.72Q208.22 -4.86 210.63 -4.86Z M231.92 8.60V-23.35H236.65V-13.27L235.92 -13.31Q236.09 -16.90 237.40 -19.30Q238.71 -21.69 240.91 -22.89Q243.10 -24.08 245.81 -24.08Q248.28 -24.08 250.29 -23.17Q252.30 -22.25 253.74 -20.63Q255.18 -19.01 255.95 -16.83Q256.71 -14.66 256.71 -12.15V-11.24Q256.71 -8.73 255.96 -6.55Q255.20 -4.36 253.77 -2.72Q252.34 -1.07 250.32 -0.15Q248.30 0.77 245.79 0.77Q243.19 0.77 241.01 -0.31Q238.84 -1.40 237.50 -3.71Q236.16 -6.02 236.00 -9.65L237.90 -6.77V8.60ZM244.28 -4.26Q246.22 -4.26 247.67 -5.20Q249.12 -6.15 249.93 -7.84Q250.73 -9.52 250.73 -11.70Q250.73 -13.91 249.93 -15.56Q249.12 -17.20 247.68 -18.12Q246.24 -19.05 244.28 -19.05Q242.54 -19.05 241.05 -18.26Q239.55 -17.48 238.64 -15.99Q237.72 -14.49 237.72 -12.38V-10.66Q237.72 -8.64 238.67 -7.21Q239.62 -5.78 241.12 -5.02Q242.63 -4.26 244.28 -4.26Z M271.73 0.82Q268.72 0.82 266.46 -0.21Q264.20 -1.25 262.72 -2.98Q261.23 -4.71 260.48 -6.86Q259.73 -9.01 259.73 -11.27V-12.08Q259.73 -14.40 260.48 -16.57Q261.23 -18.73 262.71 -20.44Q264.18 -22.14 266.38 -23.16Q268.59 -24.17 271.47 -24.17Q275.25 -24.17 277.80 -22.50Q280.35 -20.83 281.65 -18.16Q282.95 -15.48 282.95 -12.38V-10.21H262.27V-13.87H279.19L277.36 -12.08Q277.36 -14.32 276.70 -15.91Q276.05 -17.50 274.75 -18.36Q273.45 -19.22 271.47 -19.22Q269.47 -19.22 268.09 -18.31Q266.72 -17.39 266.02 -15.71Q265.32 -14.02 265.32 -11.65Q265.32 -9.44 266.00 -7.74Q266.67 -6.04 268.09 -5.08Q269.51 -4.13 271.73 -4.13Q273.90 -4.13 275.27 -5.01Q276.65 -5.89 277.04 -7.16H282.54Q282.05 -4.77 280.57 -2.97Q279.10 -1.16 276.85 -0.17Q274.61 0.82 271.73 0.82Z M287.24 0.00V-23.35H291.97V-13.46H291.84Q291.84 -18.47 293.99 -21.06Q296.14 -23.65 300.31 -23.65H301.17V-18.45H299.53Q296.50 -18.45 294.86 -16.82Q293.21 -15.20 293.21 -12.15V0.00Z M318.59 0.00V-6.92H317.60V-14.62Q317.60 -16.62 316.62 -17.62Q315.63 -18.62 313.58 -18.62Q312.51 -18.62 311.00 -18.58Q309.50 -18.53 307.97 -18.47Q306.45 -18.40 305.24 -18.32V-23.39Q306.23 -23.48 307.47 -23.55Q308.70 -23.63 310.03 -23.66Q311.35 -23.69 312.51 -23.69Q316.10 -23.69 318.50 -22.74Q320.89 -21.78 322.11 -19.76Q323.32 -17.74 323.32 -14.47V0.00ZM311.07 0.60Q308.53 0.60 306.63 -0.29Q304.73 -1.18 303.67 -2.87Q302.62 -4.56 302.62 -6.92Q302.62 -9.48 303.88 -11.13Q305.13 -12.77 307.43 -13.58Q309.74 -14.38 312.83 -14.38H318.25V-10.81H312.75Q310.70 -10.81 309.61 -9.81Q308.51 -8.81 308.51 -7.20Q308.51 -5.61 309.61 -4.63Q310.70 -3.65 312.75 -3.65Q313.99 -3.65 315.06 -4.11Q316.12 -4.56 316.82 -5.64Q317.52 -6.73 317.60 -8.64L319.07 -6.97Q318.85 -4.51 317.88 -2.84Q316.92 -1.16 315.22 -0.28Q313.52 0.60 311.07 0.60Z M339.18 0.30Q335.95 0.30 333.87 -0.54Q331.78 -1.38 330.76 -3.36Q329.74 -5.35 329.74 -8.75L329.76 -29.93H335.35L335.33 -8.38Q335.33 -6.66 336.25 -5.74Q337.18 -4.82 338.90 -4.82H342.55V0.30ZM326.04 -18.96V-23.35H342.55V-18.96Z M358.09 0.82Q355.01 0.82 352.65 -0.17Q350.28 -1.16 348.65 -2.85Q347.01 -4.54 346.18 -6.69Q345.34 -8.84 345.34 -11.18V-12.08Q345.34 -14.47 346.21 -16.65Q347.08 -18.83 348.73 -20.52Q350.39 -22.21 352.75 -23.19Q355.12 -24.17 358.09 -24.17Q361.07 -24.17 363.43 -23.19Q365.78 -22.21 367.44 -20.52Q369.09 -18.83 369.97 -16.65Q370.84 -14.47 370.84 -12.08V-11.18Q370.84 -8.84 370.00 -6.69Q369.16 -4.54 367.52 -2.85Q365.89 -1.16 363.53 -0.17Q361.16 0.82 358.09 0.82ZM358.09 -4.30Q360.28 -4.30 361.78 -5.26Q363.29 -6.21 364.07 -7.88Q364.86 -9.55 364.86 -11.63Q364.86 -13.78 364.05 -15.45Q363.25 -17.11 361.73 -18.08Q360.21 -19.05 358.09 -19.05Q355.98 -19.05 354.45 -18.08Q352.93 -17.11 352.12 -15.45Q351.31 -13.78 351.31 -11.63Q351.31 -9.55 352.10 -7.88Q352.88 -6.21 354.40 -5.26Q355.91 -4.30 358.09 -4.30Z M375.38 0.00V-23.35H380.11V-13.46H379.98Q379.98 -18.47 382.13 -21.06Q384.28 -23.65 388.45 -23.65H389.31V-18.45H387.68Q384.65 -18.45 383.00 -16.82Q381.36 -15.20 381.36 -12.15V0.00Z"/></g><text x="46" y="163" font-size="20" fill="#BFC4DD" >让 AI 操作桌面  /  Python / MCP / CLI</text><g transform="translate(832,78) scale(1.35)"><g class="motion" style="animation:breathe 6s ease-in-out infinite;animation-delay:-3s"><path d="M18 -12 l18 98 21 -28 28 28 13 -14 -26 -26 35 -8 Z" fill="none" stroke="#B5DDD6" stroke-width="0.85" opacity="0.15"/><path d="M21 -11 l18 98 21 -28 28 28 13 -14 -26 -26 35 -8 Z" fill="none" stroke="#B5DDD6" stroke-width="0.85" opacity="0.20"/><path d="M24 -10 l18 98 21 -28 28 28 13 -14 -26 -26 35 -8 Z" fill="none" stroke="#B5DDD6" stroke-width="0.85" opacity="0.25"/><path d="M27 -9 l18 98 21 -28 28 28 13 -14 -26 -26 35 -8 Z" fill="none" stroke="#B5DDD6" stroke-width="0.85" opacity="0.30"/><path d="M30 -8 l18 98 21 -28 28 28 13 -14 -26 -26 35 -8 Z" fill="none" stroke="#B5DDD6" stroke-width="0.85" opacity="0.35"/><path d="M33 -7 l18 98 21 -28 28 28 13 -14 -26 -26 35 -8 Z" fill="none" stroke="#B5DDD6" stroke-width="0.85" opacity="0.40"/><path d="M36 -6 l18 98 21 -28 28 28 13 -14 -26 -26 35 -8 Z" fill="none" stroke="#B5DDD6" stroke-width="0.85" opacity="0.45"/><path d="M39 -5 l18 98 21 -28 28 28 13 -14 -26 -26 35 -8 Z" fill="none" stroke="#B5DDD6" stroke-width="0.85" opacity="0.50"/><path d="M42 -4 l18 98 21 -28 28 28 13 -14 -26 -26 35 -8 Z" fill="none" stroke="#B5DDD6" stroke-width="0.85" opacity="0.55"/><path d="M45 -3 l18 98 21 -28 28 28 13 -14 -26 -26 35 -8 Z" fill="none" stroke="#B5DDD6" stroke-width="0.85" opacity="0.60"/><path d="M48 -2 l18 98 21 -28 28 28 13 -14 -26 -26 35 -8 Z" fill="none" stroke="#B5DDD6" stroke-width="0.85" opacity="0.65"/><path d="M51 -1 l18 98 21 -28 28 28 13 -14 -26 -26 35 -8 Z" fill="none" stroke="#B5DDD6" stroke-width="0.85" opacity="0.70"/><path d="M54 0 l18 98 21 -28 28 28 13 -14 -26 -26 35 -8 Z" fill="none" stroke="#B5DDD6" stroke-width="0.85" opacity="0.75"/><path d="M57 1 l18 98 21 -28 28 28 13 -14 -26 -26 35 -8 Z" fill="none" stroke="#B5DDD6" stroke-width="0.85" opacity="0.80"/><path d="M60 2 l18 98 21 -28 28 28 13 -14 -26 -26 35 -8 Z" fill="none" stroke="#B5DDD6" stroke-width="0.85" opacity="0.85"/></g></g><text x="46" y="211" font-size="18" fill="#9FF4E3" >打开项目  ↗</text><path d="M690 38 V211" fill="none" stroke="#2A304A" stroke-width="1" /></g></svg>