<svg xmlns="http://www.w3.org/2000/svg" width="640" height="276" viewBox="0 0 640 276" role="img"><title>Signal Sprint — 直播本地播放优化，点击打开项目</title><defs>
<linearGradient id="metal" x1="0" y1="0" x2=".75" y2="1"><stop stop-color="#9FF4E3"/><stop offset=".27" stop-color="#738AFF"/><stop offset=".52" stop-color="#F2CAFF"/><stop offset=".74" stop-color="#B2A1ED"/><stop offset="1" stop-color="#FFBD94"/></linearGradient>
<linearGradient id="type" x1="0" y1="0" x2="0" y2="1"><stop stop-color="#FFFFFF"/><stop offset="1" stop-color="#6C7098" stop-opacity=".24"/></linearGradient>
<radialGradient id="light"><stop stop-color="#5260AF" stop-opacity=".24"/><stop offset="1" stop-color="#070B18" stop-opacity="0"/></radialGradient>
<clipPath id="clip"><rect width="640" height="276" rx="22"/></clipPath>
</defs><style>text{font-family:Arial,'Microsoft YaHei','PingFang SC',sans-serif}
@media(prefers-reduced-motion:reduce){.motion{animation:none!important}}
</style><g clip-path="url(#clip)"><rect width="640" height="276" fill="#070B18"/><ellipse cx="470" cy="105" rx="250" ry="155" fill="url(#light)"/><text x="32" y="52" font-size="27" fill="#A8AEC8" >直播能再快一点吗？</text><g transform="translate(505,62) scale(.55)"><path d="M0 14 C40 14 36 90 82 50.0 S127 82 177 20.0" fill="none" stroke="#9CBDFF" stroke-width="1" opacity="0.25"/><path d="M0 19 C40 19 36 86 82 51.7 S127 78 177 22.8" fill="none" stroke="#9CBDFF" stroke-width="1" opacity="0.29"/><path d="M0 24 C40 24 36 82 82 53.4 S127 74 177 25.6" fill="none" stroke="#9CBDFF" stroke-width="1" opacity="0.32"/><path d="M0 29 C40 29 36 78 82 55.1 S127 70 177 28.4" fill="none" stroke="#9CBDFF" stroke-width="1" opacity="0.35"/><path d="M0 34 C40 34 36 74 82 56.8 S127 66 177 31.2" fill="none" stroke="#9CBDFF" stroke-width="1" opacity="0.39"/><path d="M0 39 C40 39 36 70 82 58.5 S127 62 177 34.0" fill="none" stroke="#9CBDFF" stroke-width="1" opacity="0.43"/><path d="M0 44 C40 44 36 66 82 60.2 S127 58 177 36.8" fill="none" stroke="#9CBDFF" stroke-width="1" opacity="0.46"/><path d="M0 49 C40 49 36 62 82 61.9 S127 54 177 39.599999999999994" fill="none" stroke="#9CBDFF" stroke-width="1" opacity="0.49"/><path d="M0 54 C40 54 36 58 82 63.6 S127 50 177 42.4" fill="none" stroke="#9CBDFF" stroke-width="1" opacity="0.53"/><path d="M0 59 C40 59 36 54 82 65.3 S127 46 177 45.2" fill="none" stroke="#9CBDFF" stroke-width="1" opacity="0.57"/><path d="M0 64 C40 64 36 50 82 67.0 S127 42 177 48.0" fill="none" stroke="#9CBDFF" stroke-width="1" opacity="0.60"/><path d="M0 69 C40 69 36 46 82 68.7 S127 38 177 50.8" fill="none" stroke="#9CBDFF" stroke-width="1" opacity="0.64"/><path d="M0 74 C40 74 36 42 82 70.4 S127 34 177 53.599999999999994" fill="none" stroke="#9CBDFF" stroke-width="1" opacity="0.67"/><path d="M0 79 C40 79 36 38 82 72.1 S127 30 177 56.4" fill="none" stroke="#9CBDFF" stroke-width="1" opacity="0.71"/><path d="M0 84 C40 84 36 34 82 73.8 S127 26 177 59.199999999999996" fill="none" stroke="#9CBDFF" stroke-width="1" opacity="0.74"/><path d="M0 89 C40 89 36 30 82 75.5 S127 22 177 62.0" fill="none" stroke="#9CBDFF" stroke-width="1" opacity="0.78"/><path d="M0 94 C40 94 36 26 82 77.2 S127 18 177 64.8" fill="none" stroke="#9CBDFF" stroke-width="1" opacity="0.81"/></g><g aria-label="Signal Sprint" transform="translate(30,137)"><path fill="#EDF7FA" d="M15.57 0.87Q11.13 0.87 8.06 -0.55Q4.99 -1.98 3.39 -4.47Q1.79 -6.97 1.79 -10.17H8.19Q8.19 -8.81 8.92 -7.56Q9.66 -6.30 11.28 -5.52Q12.90 -4.74 15.57 -4.74Q17.99 -4.74 19.58 -5.42Q21.18 -6.09 21.98 -7.23Q22.77 -8.37 22.77 -9.80Q22.77 -11.57 21.25 -12.65Q19.73 -13.73 16.54 -14.01L13.59 -14.26Q8.76 -14.67 5.89 -17.27Q3.01 -19.87 3.01 -24.15Q3.01 -27.35 4.53 -29.67Q6.05 -31.99 8.79 -33.27Q11.52 -34.55 15.20 -34.55Q19.02 -34.55 21.79 -33.21Q24.56 -31.88 26.07 -29.46Q27.58 -27.05 27.58 -23.78H21.18Q21.18 -25.14 20.53 -26.31Q19.87 -27.48 18.55 -28.21Q17.23 -28.93 15.20 -28.93Q13.27 -28.93 11.98 -28.28Q10.70 -27.62 10.05 -26.53Q9.41 -25.44 9.41 -24.15Q9.41 -22.59 10.56 -21.41Q11.71 -20.24 14.19 -20.03L17.13 -19.78Q20.75 -19.48 23.45 -18.24Q26.15 -17.00 27.66 -14.89Q29.16 -12.79 29.16 -9.80Q29.16 -6.62 27.50 -4.21Q25.83 -1.79 22.78 -0.46Q19.73 0.87 15.57 0.87Z M35.13 0.00V-24.98H41.53V0.00ZM31.64 -20.19V-24.98H41.53V-20.19ZM37.47 -27.97Q35.59 -27.97 34.70 -28.95Q33.80 -29.92 33.80 -31.44Q33.80 -32.96 34.70 -33.94Q35.60 -34.91 37.46 -34.91Q39.34 -34.91 40.23 -33.94Q41.11 -32.96 41.11 -31.44Q41.11 -29.92 40.23 -28.95Q39.34 -27.97 37.47 -27.97Z M57.92 9.87Q56.12 9.87 54.26 9.73Q52.40 9.59 50.81 9.36V4.00Q52.44 4.21 54.34 4.37Q56.24 4.53 57.87 4.53Q60.98 4.53 62.88 3.78Q64.79 3.04 65.68 1.46Q66.56 -0.11 66.56 -2.58V-7.50L67.94 -10.63Q67.83 -7.15 66.54 -4.74Q65.25 -2.32 63.05 -1.07Q60.84 0.18 57.94 0.18Q55.36 0.18 53.26 -0.77Q51.16 -1.72 49.66 -3.44Q48.16 -5.15 47.35 -7.44Q46.53 -9.73 46.53 -12.35V-13.32Q46.53 -15.96 47.38 -18.24Q48.23 -20.52 49.80 -22.21Q51.36 -23.90 53.52 -24.83Q55.69 -25.76 58.31 -25.76Q61.37 -25.76 63.64 -24.43Q65.92 -23.09 67.22 -20.55Q68.52 -18.01 68.64 -14.35L67.53 -14.17V-24.98H72.59V-2.94Q72.59 1.61 71.04 4.43Q69.49 7.25 66.24 8.56Q63.00 9.87 57.92 9.87ZM59.76 -5.29Q61.62 -5.29 63.14 -6.12Q64.66 -6.95 65.56 -8.51Q66.47 -10.07 66.47 -12.26V-13.87Q66.47 -16.01 65.53 -17.48Q64.59 -18.95 63.07 -19.71Q61.55 -20.47 59.78 -20.47Q57.76 -20.47 56.20 -19.53Q54.65 -18.58 53.79 -16.87Q52.93 -15.16 52.93 -12.83Q52.93 -10.51 53.80 -8.81Q54.67 -7.11 56.22 -6.20Q57.76 -5.29 59.76 -5.29Z M78.91 0.00V-24.98H83.97V-14.26H83.51Q83.51 -18.05 84.51 -20.61Q85.51 -23.16 87.52 -24.46Q89.53 -25.76 92.50 -25.76H92.78Q97.26 -25.76 99.56 -22.87Q101.86 -19.99 101.86 -14.28V0.00H95.47V-14.86Q95.47 -17.16 94.14 -18.58Q92.82 -20.01 90.52 -20.01Q88.18 -20.01 86.74 -18.55Q85.30 -17.09 85.30 -14.67V0.00Z M123.13 0.00V-7.41H122.07V-15.64Q122.07 -17.78 121.01 -18.85Q119.95 -19.92 117.77 -19.92Q116.62 -19.92 115.01 -19.87Q113.40 -19.83 111.76 -19.76Q110.13 -19.69 108.84 -19.60V-25.02Q109.90 -25.12 111.22 -25.20Q112.55 -25.28 113.96 -25.31Q115.37 -25.35 116.62 -25.35Q120.46 -25.35 123.02 -24.32Q125.59 -23.30 126.89 -21.14Q128.19 -18.98 128.19 -15.48V0.00ZM115.08 0.64Q112.36 0.64 110.33 -0.31Q108.29 -1.26 107.16 -3.07Q106.04 -4.88 106.04 -7.41Q106.04 -10.14 107.38 -11.90Q108.73 -13.66 111.19 -14.52Q113.65 -15.39 116.96 -15.39H122.76V-11.57H116.87Q114.68 -11.57 113.51 -10.50Q112.34 -9.43 112.34 -7.71Q112.34 -6.00 113.51 -4.96Q114.68 -3.91 116.87 -3.91Q118.20 -3.91 119.34 -4.39Q120.48 -4.88 121.23 -6.04Q121.98 -7.20 122.07 -9.25L123.63 -7.45Q123.40 -4.83 122.37 -3.04Q121.33 -1.24 119.51 -0.30Q117.70 0.64 115.08 0.64Z M134.68 0.00V-33.58H141.08V0.00ZM131.56 -28.80V-33.58H141.08V-28.80Z  M168.87 0.87Q164.43 0.87 161.36 -0.55Q158.29 -1.98 156.69 -4.47Q155.09 -6.97 155.09 -10.17H161.48Q161.48 -8.81 162.22 -7.56Q162.95 -6.30 164.58 -5.52Q166.20 -4.74 168.87 -4.74Q171.28 -4.74 172.88 -5.42Q174.48 -6.09 175.27 -7.23Q176.06 -8.37 176.06 -9.80Q176.06 -11.57 174.55 -12.65Q173.03 -13.73 169.83 -14.01L166.89 -14.26Q162.06 -14.67 159.18 -17.27Q156.31 -19.87 156.31 -24.15Q156.31 -27.35 157.83 -29.67Q159.34 -31.99 162.08 -33.27Q164.82 -34.55 168.50 -34.55Q172.31 -34.55 175.09 -33.21Q177.86 -31.88 179.36 -29.46Q180.87 -27.05 180.87 -23.78H174.48Q174.48 -25.14 173.82 -26.31Q173.17 -27.48 171.84 -28.21Q170.52 -28.93 168.50 -28.93Q166.56 -28.93 165.28 -28.28Q163.99 -27.62 163.35 -26.53Q162.70 -25.44 162.70 -24.15Q162.70 -22.59 163.85 -21.41Q165.00 -20.24 167.49 -20.03L170.43 -19.78Q174.04 -19.48 176.74 -18.24Q179.45 -17.00 180.95 -14.89Q182.46 -12.79 182.46 -9.80Q182.46 -6.62 180.79 -4.21Q179.12 -1.79 176.08 -0.46Q173.03 0.87 168.87 0.87Z M187.23 9.20V-24.98H192.29V-14.19L191.51 -14.24Q191.69 -18.08 193.10 -20.64Q194.50 -23.21 196.85 -24.48Q199.19 -25.76 202.09 -25.76Q204.74 -25.76 206.89 -24.78Q209.04 -23.80 210.58 -22.07Q212.12 -20.33 212.93 -18.01Q213.75 -15.69 213.75 -12.99V-12.03Q213.75 -9.34 212.95 -7.00Q212.14 -4.67 210.61 -2.91Q209.08 -1.15 206.92 -0.16Q204.76 0.83 202.07 0.83Q199.28 0.83 196.96 -0.33Q194.64 -1.49 193.20 -3.97Q191.76 -6.44 191.60 -10.33L193.63 -7.25V9.20ZM200.46 -4.55Q202.53 -4.55 204.08 -5.57Q205.63 -6.58 206.49 -8.38Q207.36 -10.19 207.36 -12.51Q207.36 -14.88 206.49 -16.64Q205.63 -18.40 204.09 -19.39Q202.55 -20.38 200.46 -20.38Q198.59 -20.38 197.00 -19.54Q195.40 -18.70 194.42 -17.10Q193.44 -15.50 193.44 -13.25V-11.41Q193.44 -9.25 194.45 -7.72Q195.47 -6.19 197.08 -5.37Q198.69 -4.55 200.46 -4.55Z M218.69 0.00V-24.98H223.75V-14.40H223.61Q223.61 -19.76 225.91 -22.53Q228.21 -25.30 232.67 -25.30H233.59V-19.73H231.84Q228.60 -19.73 226.84 -18.00Q225.08 -16.26 225.08 -12.99V0.00Z M238.36 0.00V-24.98H244.76V0.00ZM234.87 -20.19V-24.98H244.76V-20.19ZM240.70 -27.97Q238.82 -27.97 237.93 -28.95Q237.03 -29.92 237.03 -31.44Q237.03 -32.96 237.93 -33.94Q238.83 -34.91 240.69 -34.91Q242.57 -34.91 243.46 -33.94Q244.34 -32.96 244.34 -31.44Q244.34 -29.92 243.46 -28.95Q242.57 -27.97 240.70 -27.97Z M251.42 0.00V-24.98H256.48V-14.26H256.02Q256.02 -18.05 257.02 -20.61Q258.02 -23.16 260.03 -24.46Q262.04 -25.76 265.01 -25.76H265.29Q269.77 -25.76 272.07 -22.87Q274.37 -19.99 274.37 -14.28V0.00H267.98V-14.86Q267.98 -17.16 266.66 -18.58Q265.33 -20.01 263.03 -20.01Q260.69 -20.01 259.25 -18.55Q257.81 -17.09 257.81 -14.67V0.00Z M291.36 0.32Q287.91 0.32 285.68 -0.57Q283.45 -1.47 282.35 -3.60Q281.26 -5.73 281.26 -9.36L281.28 -32.02H287.26L287.24 -8.97Q287.24 -7.13 288.23 -6.14Q289.22 -5.15 291.06 -5.15H294.97V0.32ZM277.31 -20.29V-24.98H294.97V-20.29Z"/></g><text x="33" y="184" font-size="27" fill="#BFC4DD" >直播本地播放优化</text><text x="33" y="237" font-size="24" fill="#9FF4E3" >打开项目  ↗</text></g></svg>