<svg xmlns="http://www.w3.org/2000/svg" viewBox="0 0 1280 250" width="100%" height="auto" role="img" aria-label="The best way to predict the future is to build it.">
  <defs>
    <style>
      @keyframes twk { 0%,100% { opacity:.12; } 50% { opacity:.85; } }
      @keyframes drift1 { to { transform:translateX(-340px); } }
      @keyframes drift2 { to { transform:translateX(-460px); } }
      @keyframes drift3 { to { transform:translateX(-260px); } }
      @keyframes rise { 0% { transform:translateY(0); opacity:0; } 12% { opacity:.8; } 100% { transform:translateY(-150px); opacity:0; } }
      @keyframes breathe { 0%,100% { opacity:.55; } 50% { opacity:1; } }
      .mono { font-family:ui-monospace,'SFMono-Regular','SF Mono','Cascadia Code','JetBrains Mono',Menlo,Consolas,monospace; }
    </style>
    <linearGradient id="ink" x1="0" y1="0" x2="1" y2="0"><stop offset="0" stop-color="#8B5CF6"/><stop offset=".55" stop-color="#06B6D4"/><stop offset="1" stop-color="#EC4899"/></linearGradient>
    <linearGradient id="fbg" x1="0" y1="0" x2="0" y2="1">
      <stop offset="0" stop-color="#05060E"/>
      <stop offset="1" stop-color="#0B0820"/>
    </linearGradient>
    <linearGradient id="fsheen" gradientUnits="userSpaceOnUse" x1="0" y1="0" x2="1280" y2="0">
      <stop offset="0" stop-color="#fff" stop-opacity="0"/>
      <stop offset=".47" stop-color="#fff" stop-opacity="0"/>
      <stop offset=".5" stop-color="#fff" stop-opacity=".7"/>
      <stop offset=".53" stop-color="#fff" stop-opacity="0"/>
      <stop offset="1" stop-color="#fff" stop-opacity="0"/>
      <animateTransform attributeName="gradientTransform" type="translate" from="-1280 0" to="1280 0" dur="6s" repeatCount="indefinite"/>
    </linearGradient>
    <linearGradient id="wv1" x1="0" y1="0" x2="0" y2="1">
      <stop offset="0" stop-color="#8B5CF6" stop-opacity=".5"/>
      <stop offset="1" stop-color="#8B5CF6" stop-opacity="0"/>
    </linearGradient>
    <linearGradient id="wv2" x1="0" y1="0" x2="0" y2="1">
      <stop offset="0" stop-color="#06B6D4" stop-opacity=".45"/>
      <stop offset="1" stop-color="#06B6D4" stop-opacity="0"/>
    </linearGradient>
    <linearGradient id="wv3" x1="0" y1="0" x2="0" y2="1">
      <stop offset="0" stop-color="#EC4899" stop-opacity=".38"/>
      <stop offset="1" stop-color="#EC4899" stop-opacity="0"/>
    </linearGradient>
    <clipPath id="fframe"><rect width="1280" height="250" rx="18"/></clipPath>
  </defs>

  <g clip-path="url(#fframe)">
    <rect width="1280" height="250" fill="url(#fbg)"/>
    <circle cx="418" cy="31" r="1.2" fill="#E6EDF3" style="animation:twk 2.3s ease-in-out 2.7s infinite"/><circle cx="471" cy="18" r="1.1" fill="#E6EDF3" style="animation:twk 2.1s ease-in-out 2.2s infinite"/><circle cx="98" cy="23" r="1.0" fill="#E6EDF3" style="animation:twk 5.3s ease-in-out 0.6s infinite"/><circle cx="291" cy="98" r="1.5" fill="#E6EDF3" style="animation:twk 4.3s ease-in-out 2.0s infinite"/><circle cx="1240" cy="17" r="1.4" fill="#E6EDF3" style="animation:twk 3.2s ease-in-out 0.7s infinite"/><circle cx="158" cy="53" r="1.4" fill="#E6EDF3" style="animation:twk 2.7s ease-in-out 2.9s infinite"/><circle cx="815" cy="62" r="1.1" fill="#E6EDF3" style="animation:twk 2.3s ease-in-out 0.3s infinite"/><circle cx="270" cy="105" r="1.0" fill="#E6EDF3" style="animation:twk 3.3s ease-in-out 2.9s infinite"/><circle cx="581" cy="52" r="1.4" fill="#E6EDF3" style="animation:twk 4.8s ease-in-out 1.2s infinite"/><circle cx="734" cy="84" r="1.5" fill="#E6EDF3" style="animation:twk 4.9s ease-in-out 1.4s infinite"/><circle cx="1245" cy="27" r="1.0" fill="#E6EDF3" style="animation:twk 5.0s ease-in-out 0.8s infinite"/><circle cx="626" cy="15" r="1.2" fill="#E6EDF3" style="animation:twk 5.1s ease-in-out 2.9s infinite"/><circle cx="1113" cy="54" r="1.3" fill="#E6EDF3" style="animation:twk 4.4s ease-in-out 2.9s infinite"/><circle cx="585" cy="128" r="1.5" fill="#E6EDF3" style="animation:twk 3.9s ease-in-out 3.3s infinite"/><circle cx="86" cy="108" r="1.2" fill="#E6EDF3" style="animation:twk 6.0s ease-in-out 4.1s infinite"/><circle cx="369" cy="64" r="1.2" fill="#E6EDF3" style="animation:twk 2.1s ease-in-out 2.3s infinite"/><circle cx="222" cy="26" r="0.6" fill="#E6EDF3" style="animation:twk 5.1s ease-in-out 0.6s infinite"/><circle cx="322" cy="65" r="1.5" fill="#E6EDF3" style="animation:twk 2.3s ease-in-out 2.2s infinite"/><circle cx="702" cy="134" r="1.4" fill="#E6EDF3" style="animation:twk 5.5s ease-in-out 1.4s infinite"/><circle cx="533" cy="60" r="1.5" fill="#E6EDF3" style="animation:twk 5.8s ease-in-out 0.8s infinite"/><circle cx="232" cy="42" r="0.8" fill="#E6EDF3" style="animation:twk 3.9s ease-in-out 2.9s infinite"/><circle cx="341" cy="11" r="1.0" fill="#E6EDF3" style="animation:twk 3.5s ease-in-out 2.8s infinite"/><circle cx="1211" cy="107" r="1.1" fill="#E6EDF3" style="animation:twk 4.5s ease-in-out 3.4s infinite"/><circle cx="78" cy="136" r="1.4" fill="#E6EDF3" style="animation:twk 5.5s ease-in-out 4.0s infinite"/><circle cx="504" cy="66" r="0.6" fill="#E6EDF3" style="animation:twk 4.5s ease-in-out 0.3s infinite"/><circle cx="95" cy="39" r="0.7" fill="#E6EDF3" style="animation:twk 3.4s ease-in-out 0.3s infinite"/><circle cx="10" cy="31" r="0.6" fill="#E6EDF3" style="animation:twk 3.5s ease-in-out 0.1s infinite"/><circle cx="1112" cy="96" r="0.7" fill="#E6EDF3" style="animation:twk 3.0s ease-in-out 1.7s infinite"/><circle cx="469" cy="27" r="1.4" fill="#E6EDF3" style="animation:twk 6.0s ease-in-out 2.3s infinite"/><circle cx="620" cy="22" r="0.6" fill="#E6EDF3" style="animation:twk 3.4s ease-in-out 1.3s infinite"/><circle cx="1054" cy="33" r="0.5" fill="#E6EDF3" style="animation:twk 5.8s ease-in-out 2.6s infinite"/><circle cx="195" cy="86" r="0.5" fill="#E6EDF3" style="animation:twk 4.1s ease-in-out 4.9s infinite"/><circle cx="1098" cy="107" r="0.8" fill="#E6EDF3" style="animation:twk 3.5s ease-in-out 0.8s infinite"/><circle cx="983" cy="85" r="1.4" fill="#E6EDF3" style="animation:twk 3.3s ease-in-out 1.1s infinite"/><circle cx="1033" cy="148" r="1.4" fill="#E6EDF3" style="animation:twk 5.2s ease-in-out 4.1s infinite"/><circle cx="942" cy="42" r="1.1" fill="#E6EDF3" style="animation:twk 3.4s ease-in-out 0.1s infinite"/><circle cx="45" cy="49" r="0.8" fill="#E6EDF3" style="animation:twk 4.8s ease-in-out 4.8s infinite"/><circle cx="574" cy="141" r="1.6" fill="#E6EDF3" style="animation:twk 5.8s ease-in-out 1.8s infinite"/><circle cx="288" cy="42" r="0.7" fill="#E6EDF3" style="animation:twk 2.8s ease-in-out 3.1s infinite"/><circle cx="1144" cy="128" r="1.0" fill="#E6EDF3" style="animation:twk 4.6s ease-in-out 4.0s infinite"/><circle cx="117" cy="102" r="1.5" fill="#E6EDF3" style="animation:twk 5.1s ease-in-out 3.8s infinite"/><circle cx="612" cy="35" r="1.4" fill="#E6EDF3" style="animation:twk 3.3s ease-in-out 4.0s infinite"/><circle cx="1234" cy="65" r="0.9" fill="#E6EDF3" style="animation:twk 5.8s ease-in-out 3.6s infinite"/><circle cx="224" cy="28" r="0.7" fill="#E6EDF3" style="animation:twk 5.6s ease-in-out 4.0s infinite"/><circle cx="194" cy="126" r="1.6" fill="#E6EDF3" style="animation:twk 4.6s ease-in-out 1.8s infinite"/>

    <text x="640.0" y="72" text-anchor="middle" class="mono" font-size="15" fill="#8B949E"
      letter-spacing="4">// THE BEST WAY TO PREDICT THE FUTURE</text>
    <g transform="translate(422.0,128.0)"><path d="M1.7 0.0V-33.1H8.2V0.0Z M22.9 0.0Q21.1 0.0 19.6 -0.9Q18.1 -1.8 17.2 -3.3Q16.3 -4.8 16.3 -6.6V-9.4H23.0V-6.9Q23.0 -6.8 23.0 -6.7Q23.1 -6.7 23.2 -6.7H42.5Q42.5 -6.7 42.6 -6.7Q42.7 -6.8 42.7 -6.9V-13.0Q42.7 -13.1 42.6 -13.1Q42.5 -13.2 42.5 -13.2H22.9Q21.1 -13.2 19.6 -14.1Q18.1 -15.0 17.2 -16.5Q16.3 -18.0 16.3 -19.8V-26.5Q16.3 -28.3 17.2 -29.8Q18.1 -31.3 19.6 -32.2Q21.1 -33.1 22.9 -33.1H42.8Q44.6 -33.1 46.1 -32.2Q47.6 -31.3 48.5 -29.8Q49.4 -28.3 49.4 -26.5V-23.7H42.7V-26.2Q42.7 -26.3 42.6 -26.4Q42.5 -26.4 42.5 -26.4H23.2Q23.1 -26.4 23.0 -26.4Q23.0 -26.3 23.0 -26.2V-20.1Q23.0 -20.1 23.0 -20.0Q23.1 -19.9 23.2 -19.9H42.8Q44.6 -19.9 46.1 -19.0Q47.6 -18.1 48.5 -16.6Q49.4 -15.1 49.4 -13.3V-6.6Q49.4 -4.8 48.5 -3.3Q47.6 -1.8 46.1 -0.9Q44.6 0.0 42.8 0.0Z M88.5 0.0V-26.4H75.3V-33.1H108.4V-26.4H95.2V0.0Z M122.4 0.0Q120.6 0.0 119.1 -0.9Q117.6 -1.8 116.7 -3.3Q115.8 -4.8 115.8 -6.6V-26.5Q115.8 -28.3 116.7 -29.8Q117.6 -31.3 119.1 -32.2Q120.6 -33.1 122.4 -33.1H142.3Q144.1 -33.1 145.6 -32.2Q147.1 -31.3 148.0 -29.8Q148.9 -28.3 148.9 -26.5V-6.6Q148.9 -4.8 148.0 -3.3Q147.1 -1.8 145.6 -0.9Q144.1 0.0 142.3 0.0ZM122.7 -6.7H141.9Q142.0 -6.7 142.1 -6.7Q142.2 -6.8 142.2 -6.9V-26.2Q142.2 -26.3 142.1 -26.4Q142.0 -26.4 141.9 -26.4H122.7Q122.5 -26.4 122.5 -26.4Q122.4 -26.3 122.4 -26.2V-6.9Q122.4 -6.8 122.5 -6.7Q122.5 -6.7 122.7 -6.7Z M176.6 0.0V-33.1H201.8Q203.6 -33.1 205.1 -32.2Q206.6 -31.3 207.5 -29.8Q208.4 -28.3 208.4 -26.5V-20.1Q208.4 -19.6 208.3 -19.0Q208.2 -18.5 208.0 -18.0Q208.8 -17.0 209.2 -15.9Q209.7 -14.8 209.7 -13.6V-6.6Q209.7 -4.8 208.8 -3.3Q207.9 -1.8 206.4 -0.9Q204.9 0.0 203.0 0.0H176.6ZM183.5 -6.7H202.7Q202.8 -6.7 202.9 -6.7Q203.0 -6.8 203.0 -6.9V-13.2Q203.0 -13.3 202.9 -13.4Q202.8 -13.5 202.7 -13.5H183.5Q183.3 -13.5 183.3 -13.4Q183.2 -13.3 183.2 -13.2V-6.9Q183.2 -6.8 183.3 -6.7Q183.3 -6.7 183.5 -6.7ZM183.5 -20.2H201.4Q201.5 -20.2 201.6 -20.3Q201.7 -20.3 201.7 -20.4V-26.2Q201.7 -26.3 201.6 -26.4Q201.5 -26.4 201.4 -26.4H183.5Q183.3 -26.4 183.3 -26.4Q183.2 -26.3 183.2 -26.2V-20.4Q183.2 -20.3 183.3 -20.3Q183.3 -20.2 183.5 -20.2Z M225.2 0.0Q223.4 0.0 221.9 -0.9Q220.4 -1.8 219.5 -3.3Q218.6 -4.8 218.6 -6.6V-33.1H225.2V-6.9Q225.2 -6.8 225.3 -6.7Q225.4 -6.7 225.5 -6.7H244.8Q244.9 -6.7 245.0 -6.7Q245.0 -6.8 245.0 -6.9V-33.1H251.7V-6.6Q251.7 -4.8 250.8 -3.3Q249.9 -1.8 248.4 -0.9Q246.9 0.0 245.1 0.0H225.2Z M259.9 0.0V-33.1H266.5V0.0Z M274.7 0.0V-33.2H281.3V-6.7H307.8V0.0Z M314.6 0.0V-33.1H341.0Q342.9 -33.1 344.4 -32.2Q345.9 -31.3 346.8 -29.8Q347.7 -28.3 347.7 -26.5V-6.6Q347.7 -4.8 346.8 -3.3Q345.9 -1.8 344.4 -0.9Q342.9 0.0 341.0 0.0ZM321.4 -6.7H340.7Q340.8 -6.7 340.9 -6.7Q341.0 -6.8 341.0 -6.9V-26.2Q341.0 -26.3 340.9 -26.4Q340.8 -26.4 340.7 -26.4H321.4Q321.3 -26.4 321.2 -26.4Q321.2 -26.3 321.2 -26.2V-6.9Q321.2 -6.8 321.2 -6.7Q321.3 -6.7 321.4 -6.7Z M374.4 0.0V-33.1H381.0V0.0Z M400.8 0.0V-26.4H387.5V-33.1H420.6V-26.4H407.4V0.0Z M428.0 0.0V-6.5H434.5V0.0Z" fill="url(#ink)" /></g><g transform="translate(422.0,128.0)"><path d="M1.7 0.0V-33.1H8.2V0.0Z M22.9 0.0Q21.1 0.0 19.6 -0.9Q18.1 -1.8 17.2 -3.3Q16.3 -4.8 16.3 -6.6V-9.4H23.0V-6.9Q23.0 -6.8 23.0 -6.7Q23.1 -6.7 23.2 -6.7H42.5Q42.5 -6.7 42.6 -6.7Q42.7 -6.8 42.7 -6.9V-13.0Q42.7 -13.1 42.6 -13.1Q42.5 -13.2 42.5 -13.2H22.9Q21.1 -13.2 19.6 -14.1Q18.1 -15.0 17.2 -16.5Q16.3 -18.0 16.3 -19.8V-26.5Q16.3 -28.3 17.2 -29.8Q18.1 -31.3 19.6 -32.2Q21.1 -33.1 22.9 -33.1H42.8Q44.6 -33.1 46.1 -32.2Q47.6 -31.3 48.5 -29.8Q49.4 -28.3 49.4 -26.5V-23.7H42.7V-26.2Q42.7 -26.3 42.6 -26.4Q42.5 -26.4 42.5 -26.4H23.2Q23.1 -26.4 23.0 -26.4Q23.0 -26.3 23.0 -26.2V-20.1Q23.0 -20.1 23.0 -20.0Q23.1 -19.9 23.2 -19.9H42.8Q44.6 -19.9 46.1 -19.0Q47.6 -18.1 48.5 -16.6Q49.4 -15.1 49.4 -13.3V-6.6Q49.4 -4.8 48.5 -3.3Q47.6 -1.8 46.1 -0.9Q44.6 0.0 42.8 0.0Z M88.5 0.0V-26.4H75.3V-33.1H108.4V-26.4H95.2V0.0Z M122.4 0.0Q120.6 0.0 119.1 -0.9Q117.6 -1.8 116.7 -3.3Q115.8 -4.8 115.8 -6.6V-26.5Q115.8 -28.3 116.7 -29.8Q117.6 -31.3 119.1 -32.2Q120.6 -33.1 122.4 -33.1H142.3Q144.1 -33.1 145.6 -32.2Q147.1 -31.3 148.0 -29.8Q148.9 -28.3 148.9 -26.5V-6.6Q148.9 -4.8 148.0 -3.3Q147.1 -1.8 145.6 -0.9Q144.1 0.0 142.3 0.0ZM122.7 -6.7H141.9Q142.0 -6.7 142.1 -6.7Q142.2 -6.8 142.2 -6.9V-26.2Q142.2 -26.3 142.1 -26.4Q142.0 -26.4 141.9 -26.4H122.7Q122.5 -26.4 122.5 -26.4Q122.4 -26.3 122.4 -26.2V-6.9Q122.4 -6.8 122.5 -6.7Q122.5 -6.7 122.7 -6.7Z M176.6 0.0V-33.1H201.8Q203.6 -33.1 205.1 -32.2Q206.6 -31.3 207.5 -29.8Q208.4 -28.3 208.4 -26.5V-20.1Q208.4 -19.6 208.3 -19.0Q208.2 -18.5 208.0 -18.0Q208.8 -17.0 209.2 -15.9Q209.7 -14.8 209.7 -13.6V-6.6Q209.7 -4.8 208.8 -3.3Q207.9 -1.8 206.4 -0.9Q204.9 0.0 203.0 0.0H176.6ZM183.5 -6.7H202.7Q202.8 -6.7 202.9 -6.7Q203.0 -6.8 203.0 -6.9V-13.2Q203.0 -13.3 202.9 -13.4Q202.8 -13.5 202.7 -13.5H183.5Q183.3 -13.5 183.3 -13.4Q183.2 -13.3 183.2 -13.2V-6.9Q183.2 -6.8 183.3 -6.7Q183.3 -6.7 183.5 -6.7ZM183.5 -20.2H201.4Q201.5 -20.2 201.6 -20.3Q201.7 -20.3 201.7 -20.4V-26.2Q201.7 -26.3 201.6 -26.4Q201.5 -26.4 201.4 -26.4H183.5Q183.3 -26.4 183.3 -26.4Q183.2 -26.3 183.2 -26.2V-20.4Q183.2 -20.3 183.3 -20.3Q183.3 -20.2 183.5 -20.2Z M225.2 0.0Q223.4 0.0 221.9 -0.9Q220.4 -1.8 219.5 -3.3Q218.6 -4.8 218.6 -6.6V-33.1H225.2V-6.9Q225.2 -6.8 225.3 -6.7Q225.4 -6.7 225.5 -6.7H244.8Q244.9 -6.7 245.0 -6.7Q245.0 -6.8 245.0 -6.9V-33.1H251.7V-6.6Q251.7 -4.8 250.8 -3.3Q249.9 -1.8 248.4 -0.9Q246.9 0.0 245.1 0.0H225.2Z M259.9 0.0V-33.1H266.5V0.0Z M274.7 0.0V-33.2H281.3V-6.7H307.8V0.0Z M314.6 0.0V-33.1H341.0Q342.9 -33.1 344.4 -32.2Q345.9 -31.3 346.8 -29.8Q347.7 -28.3 347.7 -26.5V-6.6Q347.7 -4.8 346.8 -3.3Q345.9 -1.8 344.4 -0.9Q342.9 0.0 341.0 0.0ZM321.4 -6.7H340.7Q340.8 -6.7 340.9 -6.7Q341.0 -6.8 341.0 -6.9V-26.2Q341.0 -26.3 340.9 -26.4Q340.8 -26.4 340.7 -26.4H321.4Q321.3 -26.4 321.2 -26.4Q321.2 -26.3 321.2 -26.2V-6.9Q321.2 -6.8 321.2 -6.7Q321.3 -6.7 321.4 -6.7Z M374.4 0.0V-33.1H381.0V0.0Z M400.8 0.0V-26.4H387.5V-33.1H420.6V-26.4H407.4V0.0Z M428.0 0.0V-6.5H434.5V0.0Z" fill="url(#fsheen)" /></g>
    <text x="640.0" y="160" text-anchor="middle" font-family="-apple-system,'Segoe UI','PingFang SC','Hiragino Sans GB','Microsoft YaHei',sans-serif" font-size="14"
      fill="#8B949E" letter-spacing="4" style="animation:breathe 4s ease-in-out infinite">预测未来的最好方式，就是亲手创造它</text>

    <g style="animation:drift1 9s linear infinite">
      <path d="M-10,182.8 L0,185.0 L16,188.5 L32,191.7 L48,194.3 L64,196.1 L80,196.9 L96,196.8 L112,195.5 L128,193.4 L144,190.5 L160,187.2 L176,183.7 L192,180.3 L208,177.2 L224,174.9 L240,173.5 L256,173.0 L272,173.6 L288,175.2 L304,177.6 L320,180.7 L336,184.1 L352,187.6 L368,190.9 L384,193.7 L400,195.7 L416,196.8 L432,196.9 L448,195.9 L464,194.0 L480,191.3 L496,188.1 L512,184.6 L528,181.1 L544,177.9 L560,175.4 L576,173.7 L592,173.0 L608,173.3 L624,174.7 L640,176.9 L656,179.9 L672,183.2 L688,186.8 L704,190.1 L720,193.1 L736,195.3 L752,196.7 L768,197.0 L784,196.3 L800,194.6 L816,192.1 L832,188.9 L848,185.4 L864,181.9 L880,178.7 L896,176.0 L912,174.1 L928,173.1 L944,173.2 L960,174.3 L976,176.3 L992,179.1 L1008,182.4 L1024,185.9 L1040,189.3 L1056,192.4 L1072,194.8 L1088,196.4 L1104,197.0 L1120,196.5 L1136,195.1 L1152,192.8 L1168,189.7 L1184,186.3 L1200,182.8 L1216,179.5 L1232,176.6 L1248,174.5 L1264,173.2 L1280,173.1 L1296,173.9 L1312,175.7 L1328,178.3 L1344,181.5 L1360,185.0 L1376,188.5 L1392,191.7 L1408,194.3 L1424,196.1 L1440,196.9 L1456,196.8 L1472,195.5 L1488,193.4 L1504,190.5 L1520,187.2 L1536,183.7 L1552,180.3 L1568,177.2 L1584,174.9 L1600,173.5 L1616,173.0 L1632,173.6 L1648,175.2 L1664,177.6 L1680,180.7 L1696,184.1 L1712,187.6 L1728,190.9 L1744,193.7 L1760,195.7 L1776,196.8 L1792,196.9 L1808,195.9 L1824,194.0 L1840,191.3 L1856,188.1 L1872,184.6 L1888,181.1 L1904,177.9 L1920,175.4 L1936,173.7 L1952,173.0 L1968,173.3 L1984,174.7 L2000,176.9 L2016,179.9 L2032,183.2 L2048,186.8 L2064,190.1 L2080,193.1 L2096,195.3 L2112,196.7 L2128,197.0 L2144,196.3 L2160,194.6 L2176,192.1 L2192,188.9 L2208,185.4 L2224,181.9 L2240,178.7 L2256,176.0 L2272,174.1 L2288,173.1 L2304,173.2 L2320,174.3 L2336,176.3 L2352,179.1 L2368,182.4 L2384,185.9 L2400,189.3 L2416,192.4 L2432,194.8 L2448,196.4 L2464,197.0 L2480,196.5 L2496,195.1 L2512,192.8 L2528,189.7 L2544,186.3 L2560,182.8 L2560,250 L-10,250 Z" fill="url(#wv1)"/>
    </g>
    <g style="animation:drift2 13s linear infinite">
      <path d="M-10,195.8 L0,198.0 L16,201.5 L32,204.8 L48,207.8 L64,210.3 L80,212.2 L96,213.5 L112,214.0 L128,213.7 L144,212.8 L160,211.1 L176,208.8 L192,205.9 L208,202.7 L224,199.3 L240,195.8 L256,192.4 L272,189.3 L288,186.6 L304,184.4 L320,182.9 L336,182.1 L352,182.1 L368,182.8 L384,184.2 L400,186.3 L416,189.0 L432,192.0 L448,195.4 L464,198.9 L480,202.3 L496,205.6 L512,208.4 L528,210.8 L544,212.6 L560,213.7 L576,214.0 L592,213.6 L608,212.4 L624,210.5 L640,208.1 L656,205.2 L672,201.9 L688,198.4 L704,195.0 L720,191.6 L736,188.6 L752,186.0 L768,184.0 L784,182.7 L800,182.0 L816,182.2 L832,183.1 L848,184.7 L864,186.9 L880,189.7 L896,192.8 L912,196.3 L928,199.7 L944,203.2 L960,206.3 L976,209.1 L992,211.3 L1008,212.9 L1024,213.8 L1040,214.0 L1056,213.3 L1072,212.0 L1088,210.0 L1104,207.4 L1120,204.4 L1136,201.0 L1152,197.6 L1168,194.1 L1184,190.8 L1200,187.9 L1216,185.5 L1232,183.6 L1248,182.4 L1264,182.0 L1280,182.3 L1296,183.4 L1312,185.2 L1328,187.6 L1344,190.4 L1360,193.7 L1376,197.1 L1392,200.6 L1408,204.0 L1424,207.0 L1440,209.7 L1456,211.8 L1472,213.2 L1488,213.9 L1504,213.9 L1520,213.1 L1536,211.6 L1552,209.4 L1568,206.7 L1584,203.6 L1600,200.2 L1616,196.7 L1632,193.3 L1648,190.1 L1664,187.2 L1680,184.9 L1696,183.2 L1712,182.3 L1728,182.0 L1744,182.5 L1760,183.8 L1776,185.7 L1792,188.2 L1808,191.2 L1824,194.5 L1840,198.0 L1856,201.5 L1872,204.8 L1888,207.8 L1904,210.3 L1920,212.2 L1936,213.5 L1952,214.0 L1968,213.7 L1984,212.8 L2000,211.1 L2016,208.8 L2032,205.9 L2048,202.7 L2064,199.3 L2080,195.8 L2096,192.4 L2112,189.3 L2128,186.6 L2144,184.4 L2160,182.9 L2176,182.1 L2192,182.1 L2208,182.8 L2224,184.2 L2240,186.3 L2256,189.0 L2272,192.0 L2288,195.4 L2304,198.9 L2320,202.3 L2336,205.6 L2352,208.4 L2368,210.8 L2384,212.6 L2400,213.7 L2416,214.0 L2432,213.6 L2448,212.4 L2464,210.5 L2480,208.1 L2496,205.2 L2512,201.9 L2528,198.4 L2544,195.0 L2560,191.6 L2560,250 L-10,250 Z" fill="url(#wv2)"/>
    </g>
    <g style="animation:drift3 7s linear infinite">
      <path d="M-10,209.6 L0,212.0 L16,215.8 L32,219.0 L48,221.2 L64,222.0 L80,221.4 L96,219.3 L112,216.2 L128,212.5 L144,208.7 L160,205.4 L176,203.0 L192,202.0 L208,202.5 L224,204.4 L240,207.4 L256,211.0 L272,214.9 L288,218.3 L304,220.7 L320,221.9 L336,221.6 L352,219.9 L368,217.1 L384,213.4 L400,209.6 L416,206.1 L432,203.5 L448,202.1 L464,202.2 L480,203.8 L496,206.5 L512,210.1 L528,213.9 L544,217.5 L560,220.2 L576,221.8 L592,221.9 L608,220.5 L624,217.9 L640,214.4 L656,210.6 L672,206.9 L688,204.1 L704,202.4 L720,202.1 L736,203.3 L752,205.7 L768,209.1 L784,213.0 L800,216.6 L816,219.6 L832,221.5 L848,222.0 L864,221.0 L880,218.6 L896,215.3 L912,211.5 L928,207.8 L944,204.7 L960,202.6 L976,202.0 L992,202.8 L1008,205.0 L1024,208.2 L1040,212.0 L1056,215.8 L1072,219.0 L1088,221.2 L1104,222.0 L1120,221.4 L1136,219.3 L1152,216.2 L1168,212.5 L1184,208.7 L1200,205.4 L1216,203.0 L1232,202.0 L1248,202.5 L1264,204.4 L1280,207.4 L1296,211.0 L1312,214.9 L1328,218.3 L1344,220.7 L1360,221.9 L1376,221.6 L1392,219.9 L1408,217.1 L1424,213.4 L1440,209.6 L1456,206.1 L1472,203.5 L1488,202.1 L1504,202.2 L1520,203.8 L1536,206.5 L1552,210.1 L1568,213.9 L1584,217.5 L1600,220.2 L1616,221.8 L1632,221.9 L1648,220.5 L1664,217.9 L1680,214.4 L1696,210.6 L1712,206.9 L1728,204.1 L1744,202.4 L1760,202.1 L1776,203.3 L1792,205.7 L1808,209.1 L1824,213.0 L1840,216.6 L1856,219.6 L1872,221.5 L1888,222.0 L1904,221.0 L1920,218.6 L1936,215.3 L1952,211.5 L1968,207.8 L1984,204.7 L2000,202.6 L2016,202.0 L2032,202.8 L2048,205.0 L2064,208.2 L2080,212.0 L2096,215.8 L2112,219.0 L2128,221.2 L2144,222.0 L2160,221.4 L2176,219.3 L2192,216.2 L2208,212.5 L2224,208.7 L2240,205.4 L2256,203.0 L2272,202.0 L2288,202.5 L2304,204.4 L2320,207.4 L2336,211.0 L2352,214.9 L2368,218.3 L2384,220.7 L2400,221.9 L2416,221.6 L2432,219.9 L2448,217.1 L2464,213.4 L2480,209.6 L2496,206.1 L2512,203.5 L2528,202.1 L2544,202.2 L2560,203.8 L2560,250 L-10,250 Z" fill="url(#wv3)"/>
    </g>
    <circle cx="694" cy="235" r="2.6" fill="#67E8F9" opacity="0" style="animation:rise 5.5s linear 0.1s infinite"/><circle cx="808" cy="235" r="1.9" fill="#67E8F9" opacity="0" style="animation:rise 7.1s linear 7.5s infinite"/><circle cx="1056" cy="235" r="1.7" fill="#67E8F9" opacity="0" style="animation:rise 8.3s linear 1.7s infinite"/><circle cx="408" cy="235" r="1.7" fill="#67E8F9" opacity="0" style="animation:rise 6.0s linear 4.7s infinite"/><circle cx="549" cy="235" r="1.8" fill="#67E8F9" opacity="0" style="animation:rise 5.5s linear 7.3s infinite"/><circle cx="593" cy="235" r="1.9" fill="#67E8F9" opacity="0" style="animation:rise 7.3s linear 7.2s infinite"/><circle cx="1108" cy="235" r="2.0" fill="#67E8F9" opacity="0" style="animation:rise 7.0s linear 4.3s infinite"/><circle cx="101" cy="235" r="1.4" fill="#67E8F9" opacity="0" style="animation:rise 6.8s linear 1.5s infinite"/><circle cx="975" cy="235" r="2.3" fill="#67E8F9" opacity="0" style="animation:rise 5.7s linear 3.8s infinite"/><circle cx="703" cy="235" r="2.1" fill="#67E8F9" opacity="0" style="animation:rise 6.3s linear 4.1s infinite"/>

    <text x="640.0" y="234" text-anchor="middle" class="mono" font-size="12.5"
      fill="#C9D1D9" letter-spacing="2">MADE WITH 💜 × ☕ × AI — MARWAYS7</text>
    <rect x="1" y="1" width="1278" height="248" rx="17" fill="none" stroke="#8B5CF6" stroke-opacity=".35" stroke-width="1.5"/>
  </g>
</svg>
