<svg xmlns="http://www.w3.org/2000/svg" viewBox="0 0 1100 118" width="100%" height="auto" role="img" aria-label="TECH ARSENAL">
  <defs>
    <style>
      @keyframes sweep { 0% { transform:translateX(-260px); opacity:0; } 15% { opacity:1; } 85% { opacity:1; } 100% { transform:translateX(260px); opacity:0; } }
      @keyframes spin { to { transform:rotate(360deg); } }
      @keyframes breathe { 0%,100% { opacity:.45; } 50% { opacity:1; } }
      @keyframes dotTravelL { 0% { transform:translateX(0); opacity:0; } 10% { opacity:1; } 90% { opacity:1; } 100% { transform:translateX(190px); opacity:0; } }
      @keyframes dotTravelR { 0% { transform:translateX(0); opacity:0; } 10% { opacity:1; } 90% { opacity:1; } 100% { transform:translateX(-190px); opacity:0; } }
    </style>
    <linearGradient id="ink" x1="0" y1="0" x2="1" y2="0"><stop offset="0" stop-color="#8B5CF6"/><stop offset=".55" stop-color="#06B6D4"/><stop offset="1" stop-color="#EC4899"/></linearGradient>
    <linearGradient id="lineL" x1="0" y1="0" x2="1" y2="0">
      <stop offset="0" stop-color="#06B6D4" stop-opacity="0"/>
      <stop offset="1" stop-color="#06B6D4" stop-opacity=".85"/>
    </linearGradient>
    <linearGradient id="lineR" x1="1" y1="0" x2="0" y2="0">
      <stop offset="0" stop-color="#06B6D4" stop-opacity="0"/>
      <stop offset="1" stop-color="#06B6D4" stop-opacity=".85"/>
    </linearGradient>
    <linearGradient id="bar" x1="0" y1="0" x2="1" y2="0">
      <stop offset="0" stop-color="#06B6D4" stop-opacity="0"/>
      <stop offset=".5" stop-color="#06B6D4"/>
      <stop offset="1" stop-color="#06B6D4" stop-opacity="0"/>
    </linearGradient>
    <clipPath id="barClip"><rect x="420" y="78" width="260" height="4"/></clipPath>
  </defs>

  <g transform="translate(60.0,92.0)"><path d="M16.7 0.0Q13.4 0.0 10.8 -1.8Q8.1 -3.6 6.4 -6.5Q4.8 -9.4 4.8 -12.6V-48.3Q4.8 -51.6 6.4 -54.3Q8.1 -57.1 10.8 -58.8Q13.4 -60.5 16.7 -60.5H52.5Q55.8 -60.5 58.5 -58.8Q61.2 -57.1 62.8 -54.3Q64.4 -51.6 64.4 -48.3V-12.6Q64.4 -9.4 62.8 -6.5Q61.2 -3.6 58.5 -1.8Q55.8 0.0 52.5 0.0H16.7ZM22.8 -12.7H52.0Q52.2 -12.7 52.3 -12.8Q52.5 -12.9 52.5 -13.2V-37.5ZM16.7 -23.4 46.5 -48.2H17.2Q17.1 -48.2 16.9 -48.1Q16.7 -48.0 16.7 -47.7Z M76.8 0.0V-23.4Q76.8 -26.6 78.5 -29.3Q80.1 -32.0 82.8 -33.6Q85.5 -35.2 88.8 -35.2H124.1Q124.2 -35.2 124.4 -35.4Q124.6 -35.5 124.6 -35.7V-48.0Q124.6 -48.2 124.4 -48.4Q124.2 -48.6 124.1 -48.6H89.3Q89.1 -48.6 88.9 -48.4Q88.8 -48.2 88.8 -48.0V-43.5H76.8V-48.6Q76.8 -51.9 78.5 -54.6Q80.1 -57.3 82.8 -58.9Q85.5 -60.5 88.8 -60.5H124.6Q127.7 -60.5 130.5 -58.9Q133.2 -57.3 134.8 -54.6Q136.5 -51.9 136.5 -48.6V-35.1Q136.5 -31.8 134.8 -29.1Q133.2 -26.5 130.5 -24.8Q127.7 -23.2 124.6 -23.2H89.3Q89.1 -23.2 88.9 -23.0Q88.8 -22.8 88.8 -22.7V-12.4Q88.8 -12.3 88.9 -12.1Q89.1 -11.9 89.3 -11.9H136.5V0.0Z" fill="none" stroke="#06B6D4" stroke-width="1.6" opacity=".38"/></g><g transform="translate(898.2,92.0)"><path d="M16.7 0.0Q13.4 0.0 10.8 -1.8Q8.1 -3.6 6.4 -6.5Q4.8 -9.4 4.8 -12.6V-48.3Q4.8 -51.6 6.4 -54.3Q8.1 -57.1 10.8 -58.8Q13.4 -60.5 16.7 -60.5H52.5Q55.8 -60.5 58.5 -58.8Q61.2 -57.1 62.8 -54.3Q64.4 -51.6 64.4 -48.3V-12.6Q64.4 -9.4 62.8 -6.5Q61.2 -3.6 58.5 -1.8Q55.8 0.0 52.5 0.0H16.7ZM22.8 -12.7H52.0Q52.2 -12.7 52.3 -12.8Q52.5 -12.9 52.5 -13.2V-37.5ZM16.7 -23.4 46.5 -48.2H17.2Q17.1 -48.2 16.9 -48.1Q16.7 -48.0 16.7 -47.7Z M76.8 0.0V-23.4Q76.8 -26.6 78.5 -29.3Q80.1 -32.0 82.8 -33.6Q85.5 -35.2 88.8 -35.2H124.1Q124.2 -35.2 124.4 -35.4Q124.6 -35.5 124.6 -35.7V-48.0Q124.6 -48.2 124.4 -48.4Q124.2 -48.6 124.1 -48.6H89.3Q89.1 -48.6 88.9 -48.4Q88.8 -48.2 88.8 -48.0V-43.5H76.8V-48.6Q76.8 -51.9 78.5 -54.6Q80.1 -57.3 82.8 -58.9Q85.5 -60.5 88.8 -60.5H124.6Q127.7 -60.5 130.5 -58.9Q133.2 -57.3 134.8 -54.6Q136.5 -51.9 136.5 -48.6V-35.1Q136.5 -31.8 134.8 -29.1Q133.2 -26.5 130.5 -24.8Q127.7 -23.2 124.6 -23.2H89.3Q89.1 -23.2 88.9 -23.0Q88.8 -22.8 88.8 -22.7V-12.4Q88.8 -12.3 88.9 -12.1Q89.1 -11.9 89.3 -11.9H136.5V0.0Z" fill="none" stroke="#06B6D4" stroke-width="1.6" opacity=".18"/></g>

  <line x1="130" y1="50" x2="300" y2="50" stroke="url(#lineL)" stroke-width="1.6"/>
  <line x1="800" y1="50" x2="970" y2="50" stroke="url(#lineR)" stroke-width="1.6"/>
  <g style="animation:dotTravelL 3.2s ease-in-out infinite">
    <circle cx="150" cy="50" r="3" fill="#06B6D4"/>
  </g>
  <g style="animation:dotTravelR 3.2s ease-in-out 1.6s infinite">
    <circle cx="950" cy="50" r="3" fill="#06B6D4"/>
  </g>

  <rect x="284" y="44" width="12" height="12" fill="none" stroke="#06B6D4"
    stroke-width="1.6" transform="rotate(45 290 50)"
    style="transform-origin:290px 50px;animation:spin 8s linear infinite"/>
  <rect x="804" y="44" width="12" height="12" fill="none" stroke="#06B6D4"
    stroke-width="1.6" transform="rotate(45 810 50)"
    style="transform-origin:810px 50px;animation:spin 8s linear infinite reverse"/>

  <g transform="translate(343.7,62.0)"><path d="M12.3 0.0V-23.0H0.8V-28.8H29.6V-23.0H18.1V0.0Z M36.7 0.0V-28.8H63.2V-23.0H42.5V-17.3H59.2V-11.5H42.5V-5.8H63.2V0.0Z M77.0 0.0Q75.4 0.0 74.1 -0.8Q72.8 -1.6 72.0 -2.9Q71.2 -4.2 71.2 -5.8V-23.0Q71.2 -24.6 72.0 -25.9Q72.8 -27.2 74.1 -28.0Q75.4 -28.8 77.0 -28.8H100.0V-23.0H78.4Q77.7 -23.0 77.4 -22.7Q77.0 -22.3 77.0 -21.6V-7.2Q77.0 -6.5 77.4 -6.2Q77.7 -5.8 78.4 -5.8H100.0V0.0Z M108.2 0.0V-28.8H113.9V-17.3H131.8V-28.8H137.6V0.0H131.8V-11.5H113.9V0.0Z M162.8 0.0V-23.0Q162.8 -24.6 163.6 -25.9Q164.4 -27.2 165.7 -28.0Q167.0 -28.8 168.6 -28.8H185.8Q187.4 -28.8 188.7 -28.0Q190.0 -27.2 190.8 -25.9Q191.6 -24.6 191.6 -23.0V0.0H185.8V-9.5H168.6V0.0H162.8ZM168.6 -15.2H185.8V-22.8Q185.8 -22.9 185.7 -22.9Q185.7 -23.0 185.6 -23.0H168.8Q168.7 -23.0 168.7 -22.9Q168.6 -22.9 168.6 -22.8V-15.2Z M222.8 0.0 214.3 -10.2H221.9L228.9 -1.8V0.0ZM200.2 0.0V-28.8H223.2Q224.8 -28.8 226.1 -28.0Q227.4 -27.2 228.2 -25.9Q229.0 -24.6 229.0 -23.0V-15.4Q229.0 -13.8 228.2 -12.5Q227.4 -11.2 226.1 -10.5Q224.8 -9.7 223.2 -9.7L206.0 -9.6V0.0ZM206.2 -15.5H222.9Q223.0 -15.5 223.1 -15.5Q223.2 -15.6 223.2 -15.7V-22.8Q223.2 -22.9 223.1 -22.9Q223.0 -23.0 222.9 -23.0H206.2Q206.1 -23.0 206.0 -22.9Q206.0 -22.9 206.0 -22.8V-15.7Q206.0 -15.6 206.0 -15.5Q206.1 -15.5 206.2 -15.5Z M242.8 0.0Q241.3 0.0 240.0 -0.8Q238.6 -1.6 237.9 -2.9Q237.1 -4.2 237.1 -5.8V-8.2H242.9V-6.0Q242.9 -5.9 242.9 -5.9Q243.0 -5.8 243.1 -5.8H259.8Q259.9 -5.8 260.0 -5.9Q260.1 -5.9 260.1 -6.0V-11.3Q260.1 -11.4 260.0 -11.4Q259.9 -11.5 259.8 -11.5H242.8Q241.3 -11.5 240.0 -12.3Q238.6 -13.0 237.9 -14.4Q237.1 -15.7 237.1 -17.2V-23.0Q237.1 -24.6 237.9 -25.9Q238.6 -27.2 240.0 -28.0Q241.3 -28.8 242.8 -28.8H260.2Q261.7 -28.8 263.0 -28.0Q264.3 -27.2 265.1 -25.9Q265.9 -24.6 265.9 -23.0V-20.6H260.1V-22.8Q260.1 -22.9 260.0 -22.9Q259.9 -23.0 259.8 -23.0H243.1Q243.0 -23.0 242.9 -22.9Q242.9 -22.9 242.9 -22.8V-17.5Q242.9 -17.4 242.9 -17.4Q243.0 -17.3 243.1 -17.3H260.2Q261.7 -17.3 263.0 -16.5Q264.3 -15.8 265.1 -14.4Q265.9 -13.1 265.9 -11.6V-5.8Q265.9 -4.2 265.1 -2.9Q264.3 -1.6 263.0 -0.8Q261.7 0.0 260.2 0.0Z M274.4 0.0V-28.8H300.9V-23.0H280.2V-17.3H296.9V-11.5H280.2V-5.8H300.9V0.0Z M308.9 0.0V-28.8H315.0L331.9 -8.7V-28.8H337.7V0.0H331.6L314.7 -20.2V0.0Z M346.3 0.0V-23.0Q346.3 -24.6 347.1 -25.9Q347.8 -27.2 349.1 -28.0Q350.4 -28.8 352.0 -28.8H369.3Q370.9 -28.8 372.2 -28.0Q373.5 -27.2 374.3 -25.9Q375.1 -24.6 375.1 -23.0V0.0H369.2V-9.5H352.0V0.0H346.3ZM352.0 -15.2H369.2V-22.8Q369.2 -22.9 369.2 -22.9Q369.1 -23.0 369.0 -23.0H352.3Q352.2 -23.0 352.1 -22.9Q352.0 -22.9 352.0 -22.8V-15.2Z M383.7 0.0V-28.8H389.4V-5.8H412.5V0.0Z" fill="url(#ink)" /></g>

  <g clip-path="url(#barClip)">
    <rect x="420" y="78" width="260" height="3" rx="1.5" fill="url(#bar)"
      style="animation:sweep 3s ease-in-out infinite"/>
  </g>

  <text x="550.0" y="106" text-anchor="middle" font-family="-apple-system,'Segoe UI','PingFang SC','Hiragino Sans GB','Microsoft YaHei',sans-serif" font-size="15"
    fill="#8B949E" letter-spacing="3" style="animation:breathe 4s ease-in-out infinite">技术军火库 · 从想法到武器</text>
</svg>
