<svg xmlns="http://www.w3.org/2000/svg" viewBox="0 0 1100 118" width="100%" height="auto" role="img" aria-label="CONTRIBUTION GALAXY">
  <defs>
    <style>
      @keyframes sweep { 0% { transform:translateX(-260px); opacity:0; } 15% { opacity:1; } 85% { opacity:1; } 100% { transform:translateX(260px); opacity:0; } }
      @keyframes spin { to { transform:rotate(360deg); } }
      @keyframes breathe { 0%,100% { opacity:.45; } 50% { opacity:1; } }
      @keyframes dotTravelL { 0% { transform:translateX(0); opacity:0; } 10% { opacity:1; } 90% { opacity:1; } 100% { transform:translateX(296px); opacity:0; } }
      @keyframes dotTravelR { 0% { transform:translateX(0); opacity:0; } 10% { opacity:1; } 90% { opacity:1; } 100% { transform:translateX(-296px); opacity:0; } }
    </style>
    <linearGradient id="ink" x1="0" y1="0" x2="1" y2="0"><stop offset="0" stop-color="#8B5CF6"/><stop offset=".55" stop-color="#06B6D4"/><stop offset="1" stop-color="#EC4899"/></linearGradient>
    <linearGradient id="lineL" x1="0" y1="0" x2="1" y2="0">
      <stop offset="0" stop-color="#06B6D4" stop-opacity="0"/>
      <stop offset="1" stop-color="#06B6D4" stop-opacity=".85"/>
    </linearGradient>
    <linearGradient id="lineR" x1="1" y1="0" x2="0" y2="0">
      <stop offset="0" stop-color="#06B6D4" stop-opacity="0"/>
      <stop offset="1" stop-color="#06B6D4" stop-opacity=".85"/>
    </linearGradient>
    <linearGradient id="bar" x1="0" y1="0" x2="1" y2="0">
      <stop offset="0" stop-color="#06B6D4" stop-opacity="0"/>
      <stop offset=".5" stop-color="#06B6D4"/>
      <stop offset="1" stop-color="#06B6D4" stop-opacity="0"/>
    </linearGradient>
    <clipPath id="barClip"><rect x="420" y="78" width="260" height="4"/></clipPath>
  </defs>

  <g transform="translate(60.0,92.0)"><path d="M16.7 0.0Q13.4 0.0 10.8 -1.8Q8.1 -3.6 6.4 -6.5Q4.8 -9.4 4.8 -12.6V-48.3Q4.8 -51.6 6.4 -54.3Q8.1 -57.1 10.8 -58.8Q13.4 -60.5 16.7 -60.5H52.5Q55.8 -60.5 58.5 -58.8Q61.2 -57.1 62.8 -54.3Q64.4 -51.6 64.4 -48.3V-12.6Q64.4 -9.4 62.8 -6.5Q61.2 -3.6 58.5 -1.8Q55.8 0.0 52.5 0.0H16.7ZM22.8 -12.7H52.0Q52.2 -12.7 52.3 -12.8Q52.5 -12.9 52.5 -13.2V-37.5ZM16.7 -23.4 46.5 -48.2H17.2Q17.1 -48.2 16.9 -48.1Q16.7 -48.0 16.7 -47.7Z M88.8 0.0Q85.5 0.0 82.8 -1.6Q80.1 -3.3 78.5 -6.0Q76.8 -8.7 76.8 -11.8V-16.2H88.8V-12.4Q88.8 -12.3 88.9 -12.1Q89.1 -11.9 89.3 -11.9H124.1Q124.2 -11.9 124.4 -12.1Q124.6 -12.3 124.6 -12.4V-24.2Q124.6 -24.4 124.4 -24.6Q124.2 -24.7 124.1 -24.7H76.8V-60.5H136.5V-48.6H89.3Q89.1 -48.6 88.9 -48.4Q88.8 -48.2 88.8 -48.0V-37.2Q88.8 -37.0 88.9 -36.9Q89.1 -36.8 89.3 -36.8H124.6Q127.7 -36.8 130.5 -35.2Q133.2 -33.6 134.8 -30.9Q136.5 -28.1 136.5 -24.9V-11.8Q136.5 -8.7 134.8 -6.0Q133.2 -3.3 130.5 -1.6Q127.7 0.0 124.6 0.0H88.8Z" fill="none" stroke="#06B6D4" stroke-width="1.6" opacity=".38"/></g><g transform="translate(898.2,92.0)"><path d="M16.7 0.0Q13.4 0.0 10.8 -1.8Q8.1 -3.6 6.4 -6.5Q4.8 -9.4 4.8 -12.6V-48.3Q4.8 -51.6 6.4 -54.3Q8.1 -57.1 10.8 -58.8Q13.4 -60.5 16.7 -60.5H52.5Q55.8 -60.5 58.5 -58.8Q61.2 -57.1 62.8 -54.3Q64.4 -51.6 64.4 -48.3V-12.6Q64.4 -9.4 62.8 -6.5Q61.2 -3.6 58.5 -1.8Q55.8 0.0 52.5 0.0H16.7ZM22.8 -12.7H52.0Q52.2 -12.7 52.3 -12.8Q52.5 -12.9 52.5 -13.2V-37.5ZM16.7 -23.4 46.5 -48.2H17.2Q17.1 -48.2 16.9 -48.1Q16.7 -48.0 16.7 -47.7Z M88.8 0.0Q85.5 0.0 82.8 -1.6Q80.1 -3.3 78.5 -6.0Q76.8 -8.7 76.8 -11.8V-16.2H88.8V-12.4Q88.8 -12.3 88.9 -12.1Q89.1 -11.9 89.3 -11.9H124.1Q124.2 -11.9 124.4 -12.1Q124.6 -12.3 124.6 -12.4V-24.2Q124.6 -24.4 124.4 -24.6Q124.2 -24.7 124.1 -24.7H76.8V-60.5H136.5V-48.6H89.3Q89.1 -48.6 88.9 -48.4Q88.8 -48.2 88.8 -48.0V-37.2Q88.8 -37.0 88.9 -36.9Q89.1 -36.8 89.3 -36.8H124.6Q127.7 -36.8 130.5 -35.2Q133.2 -33.6 134.8 -30.9Q136.5 -28.1 136.5 -24.9V-11.8Q136.5 -8.7 134.8 -6.0Q133.2 -3.3 130.5 -1.6Q127.7 0.0 124.6 0.0H88.8Z" fill="none" stroke="#06B6D4" stroke-width="1.6" opacity=".18"/></g>

  <line x1="130" y1="50" x2="194" y2="50" stroke="url(#lineL)" stroke-width="1.6"/>
  <line x1="906" y1="50" x2="970" y2="50" stroke="url(#lineR)" stroke-width="1.6"/>
  <g style="animation:dotTravelL 3.2s ease-in-out infinite">
    <circle cx="150" cy="50" r="3" fill="#06B6D4"/>
  </g>
  <g style="animation:dotTravelR 3.2s ease-in-out 1.6s infinite">
    <circle cx="950" cy="50" r="3" fill="#06B6D4"/>
  </g>

  <rect x="178" y="44" width="12" height="12" fill="none" stroke="#06B6D4"
    stroke-width="1.6" transform="rotate(45 184 50)"
    style="transform-origin:184px 50px;animation:spin 8s linear infinite"/>
  <rect x="910" y="44" width="12" height="12" fill="none" stroke="#06B6D4"
    stroke-width="1.6" transform="rotate(45 916 50)"
    style="transform-origin:916px 50px;animation:spin 8s linear infinite reverse"/>

  <g transform="translate(238.3,62.0)"><path d="M8.0 0.0Q6.4 0.0 5.1 -0.8Q3.8 -1.6 3.0 -2.9Q2.2 -4.2 2.2 -5.8V-23.0Q2.2 -24.6 3.0 -25.9Q3.8 -27.2 5.1 -28.0Q6.4 -28.8 8.0 -28.8H31.0V-23.0H9.4Q8.7 -23.0 8.4 -22.7Q8.0 -22.3 8.0 -21.6V-7.2Q8.0 -6.5 8.4 -6.2Q8.7 -5.8 9.4 -5.8H31.0V0.0Z M44.8 0.0Q43.2 0.0 41.9 -0.8Q40.6 -1.6 39.8 -2.9Q39.0 -4.2 39.0 -5.8V-23.0Q39.0 -24.6 39.8 -25.9Q40.6 -27.2 41.9 -28.0Q43.2 -28.8 44.8 -28.8H62.1Q63.6 -28.8 64.9 -28.0Q66.2 -27.2 67.0 -25.9Q67.8 -24.6 67.8 -23.0V-5.8Q67.8 -4.2 67.0 -2.9Q66.2 -1.6 64.9 -0.8Q63.6 0.0 62.1 0.0ZM45.0 -5.8H61.8Q61.9 -5.8 61.9 -5.9Q62.0 -5.9 62.0 -6.0V-22.8Q62.0 -22.9 61.9 -22.9Q61.9 -23.0 61.8 -23.0H45.0Q44.9 -23.0 44.9 -22.9Q44.8 -22.9 44.8 -22.8V-6.0Q44.8 -5.9 44.9 -5.9Q44.9 -5.8 45.0 -5.8Z M76.2 0.0V-28.8H82.4L99.2 -8.7V-28.8H105.0V0.0H98.9L82.0 -20.2V0.0Z M123.6 0.0V-23.0H112.1V-28.8H140.9V-23.0H129.4V0.0Z M170.5 0.0 162.0 -10.2H169.6L176.6 -1.8V0.0ZM147.9 0.0V-28.8H170.9Q172.5 -28.8 173.8 -28.0Q175.1 -27.2 175.9 -25.9Q176.7 -24.6 176.7 -23.0V-15.4Q176.7 -13.8 175.9 -12.5Q175.1 -11.2 173.8 -10.5Q172.5 -9.7 170.9 -9.7L153.6 -9.6V0.0ZM153.9 -15.5H170.6Q170.7 -15.5 170.8 -15.5Q170.8 -15.6 170.8 -15.7V-22.8Q170.8 -22.9 170.8 -22.9Q170.7 -23.0 170.6 -23.0H153.9Q153.8 -23.0 153.7 -22.9Q153.6 -22.9 153.6 -22.8V-15.7Q153.6 -15.6 153.7 -15.5Q153.8 -15.5 153.9 -15.5Z M184.1 0.0V-28.8H189.8V0.0Z M197.6 0.0V-28.8H219.5Q221.0 -28.8 222.3 -28.0Q223.6 -27.2 224.4 -25.9Q225.2 -24.6 225.2 -23.0V-17.5Q225.2 -17.0 225.2 -16.5Q225.1 -16.1 224.9 -15.6Q225.6 -14.8 226.0 -13.8Q226.4 -12.8 226.4 -11.8V-5.8Q226.4 -4.2 225.6 -2.9Q224.8 -1.6 223.5 -0.8Q222.2 0.0 220.6 0.0H197.6ZM203.6 -5.8H220.3Q220.4 -5.8 220.5 -5.9Q220.5 -5.9 220.5 -6.0V-11.5Q220.5 -11.6 220.5 -11.7Q220.4 -11.8 220.3 -11.8H203.6Q203.4 -11.8 203.4 -11.7Q203.3 -11.6 203.3 -11.5V-6.0Q203.3 -5.9 203.4 -5.9Q203.4 -5.8 203.6 -5.8ZM203.6 -17.6H219.2Q219.2 -17.6 219.3 -17.6Q219.4 -17.7 219.4 -17.8V-22.8Q219.4 -22.9 219.3 -22.9Q219.2 -23.0 219.2 -23.0H203.6Q203.4 -23.0 203.4 -22.9Q203.3 -22.9 203.3 -22.8V-17.8Q203.3 -17.7 203.4 -17.6Q203.4 -17.6 203.6 -17.6Z M240.4 0.0Q238.8 0.0 237.5 -0.8Q236.2 -1.6 235.4 -2.9Q234.6 -4.2 234.6 -5.8V-28.8H240.4V-6.0Q240.4 -5.9 240.5 -5.9Q240.5 -5.8 240.6 -5.8H257.4Q257.5 -5.8 257.5 -5.9Q257.6 -5.9 257.6 -6.0V-28.8H263.4V-5.8Q263.4 -4.2 262.6 -2.9Q261.8 -1.6 260.5 -0.8Q259.2 0.0 257.7 0.0H240.4Z M281.9 0.0V-23.0H270.4V-28.8H299.2V-23.0H287.7V0.0Z M305.4 0.0V-28.8H311.1V0.0Z M324.4 0.0Q322.8 0.0 321.5 -0.8Q320.2 -1.6 319.5 -2.9Q318.7 -4.2 318.7 -5.8V-23.0Q318.7 -24.6 319.5 -25.9Q320.2 -27.2 321.5 -28.0Q322.8 -28.8 324.4 -28.8H341.7Q343.3 -28.8 344.6 -28.0Q345.9 -27.2 346.7 -25.9Q347.5 -24.6 347.5 -23.0V-5.8Q347.5 -4.2 346.7 -2.9Q345.9 -1.6 344.6 -0.8Q343.3 0.0 341.7 0.0ZM324.7 -5.8H341.4Q341.5 -5.8 341.6 -5.9Q341.6 -5.9 341.6 -6.0V-22.8Q341.6 -22.9 341.6 -22.9Q341.5 -23.0 341.4 -23.0H324.7Q324.6 -23.0 324.5 -22.9Q324.4 -22.9 324.4 -22.8V-6.0Q324.4 -5.9 324.5 -5.9Q324.6 -5.8 324.7 -5.8Z M355.9 0.0V-28.8H362.0L378.8 -8.7V-28.8H384.7V0.0H378.6L361.6 -20.2V0.0Z M415.5 0.0Q413.9 0.0 412.6 -0.8Q411.3 -1.6 410.5 -2.9Q409.8 -4.2 409.8 -5.8V-23.0Q409.8 -24.6 410.5 -25.9Q411.3 -27.2 412.6 -28.0Q413.9 -28.8 415.5 -28.8H432.8Q434.4 -28.8 435.7 -28.0Q437.0 -27.2 437.8 -25.9Q438.6 -24.6 438.6 -23.0V-20.6H432.7V-22.8Q432.7 -22.9 432.7 -22.9Q432.6 -23.0 432.5 -23.0H415.8Q415.6 -23.0 415.6 -22.9Q415.5 -22.9 415.5 -22.8V-6.0Q415.5 -5.9 415.6 -5.9Q415.6 -5.8 415.8 -5.8H432.5Q432.6 -5.8 432.7 -5.9Q432.7 -5.9 432.7 -6.0V-10.8H426.4V-16.6H438.6V-5.8Q438.6 -4.2 437.8 -2.9Q437.0 -1.6 435.7 -0.8Q434.4 0.0 432.8 0.0Z M447.0 0.0V-23.0Q447.0 -24.6 447.8 -25.9Q448.6 -27.2 449.9 -28.0Q451.2 -28.8 452.8 -28.8H470.0Q471.6 -28.8 472.9 -28.0Q474.2 -27.2 475.0 -25.9Q475.8 -24.6 475.8 -23.0V0.0H470.0V-9.5H452.8V0.0H447.0ZM452.8 -15.2H470.0V-22.8Q470.0 -22.9 469.9 -22.9Q469.9 -23.0 469.8 -23.0H453.0Q452.9 -23.0 452.9 -22.9Q452.8 -22.9 452.8 -22.8V-15.2Z M484.4 0.0V-28.8H490.2V-5.8H513.2V0.0Z M519.6 0.0V-23.0Q519.6 -24.6 520.4 -25.9Q521.2 -27.2 522.5 -28.0Q523.8 -28.8 525.4 -28.8H542.6Q544.2 -28.8 545.5 -28.0Q546.8 -27.2 547.6 -25.9Q548.4 -24.6 548.4 -23.0V0.0H542.6V-9.5H525.4V0.0H519.6ZM525.4 -15.2H542.6V-22.8Q542.6 -22.9 542.5 -22.9Q542.5 -23.0 542.4 -23.0H525.6Q525.5 -23.0 525.5 -22.9Q525.4 -22.9 525.4 -22.8V-15.2Z M556.6 0.0V-1.8L567.2 -14.4L556.6 -27.0V-28.8H562.7L571.0 -19.0L579.2 -28.8H585.3V-27.0L574.8 -14.4L585.4 -1.8V0.0H579.2L570.9 -9.8L562.7 0.0Z M604.4 0.0V-10.8L591.1 -28.8H598.0L607.3 -17.0L616.6 -28.8H623.6L610.2 -10.7V0.0Z" fill="url(#ink)" /></g>

  <g clip-path="url(#barClip)">
    <rect x="420" y="78" width="260" height="3" rx="1.5" fill="url(#bar)"
      style="animation:sweep 3s ease-in-out infinite"/>
  </g>

  <text x="550.0" y="106" text-anchor="middle" font-family="-apple-system,'Segoe UI','PingFang SC','Hiragino Sans GB','Microsoft YaHei',sans-serif" font-size="15"
    fill="#8B949E" letter-spacing="3" style="animation:breathe 4s ease-in-out infinite">贡献星图 · 每一格都是热爱</text>
</svg>
