<svg xmlns="http://www.w3.org/2000/svg" viewBox="0 0 1100 118" width="100%" height="auto" role="img" aria-label="FEATURED PROJECTS">
  <defs>
    <style>
      @keyframes sweep { 0% { transform:translateX(-260px); opacity:0; } 15% { opacity:1; } 85% { opacity:1; } 100% { transform:translateX(260px); opacity:0; } }
      @keyframes spin { to { transform:rotate(360deg); } }
      @keyframes breathe { 0%,100% { opacity:.45; } 50% { opacity:1; } }
      @keyframes dotTravelL { 0% { transform:translateX(0); opacity:0; } 10% { opacity:1; } 90% { opacity:1; } 100% { transform:translateX(277px); opacity:0; } }
      @keyframes dotTravelR { 0% { transform:translateX(0); opacity:0; } 10% { opacity:1; } 90% { opacity:1; } 100% { transform:translateX(-277px); opacity:0; } }
    </style>
    <linearGradient id="ink" x1="0" y1="0" x2="1" y2="0"><stop offset="0" stop-color="#8B5CF6"/><stop offset=".55" stop-color="#06B6D4"/><stop offset="1" stop-color="#EC4899"/></linearGradient>
    <linearGradient id="lineL" x1="0" y1="0" x2="1" y2="0">
      <stop offset="0" stop-color="#8B5CF6" stop-opacity="0"/>
      <stop offset="1" stop-color="#8B5CF6" stop-opacity=".85"/>
    </linearGradient>
    <linearGradient id="lineR" x1="1" y1="0" x2="0" y2="0">
      <stop offset="0" stop-color="#8B5CF6" stop-opacity="0"/>
      <stop offset="1" stop-color="#8B5CF6" stop-opacity=".85"/>
    </linearGradient>
    <linearGradient id="bar" x1="0" y1="0" x2="1" y2="0">
      <stop offset="0" stop-color="#8B5CF6" stop-opacity="0"/>
      <stop offset=".5" stop-color="#8B5CF6"/>
      <stop offset="1" stop-color="#8B5CF6" stop-opacity="0"/>
    </linearGradient>
    <clipPath id="barClip"><rect x="420" y="78" width="260" height="4"/></clipPath>
  </defs>

  <g transform="translate(60.0,92.0)"><path d="M16.7 0.0Q13.4 0.0 10.8 -1.8Q8.1 -3.6 6.4 -6.5Q4.8 -9.4 4.8 -12.6V-48.3Q4.8 -51.6 6.4 -54.3Q8.1 -57.1 10.8 -58.8Q13.4 -60.5 16.7 -60.5H52.5Q55.8 -60.5 58.5 -58.8Q61.2 -57.1 62.8 -54.3Q64.4 -51.6 64.4 -48.3V-12.6Q64.4 -9.4 62.8 -6.5Q61.2 -3.6 58.5 -1.8Q55.8 0.0 52.5 0.0H16.7ZM22.8 -12.7H52.0Q52.2 -12.7 52.3 -12.8Q52.5 -12.9 52.5 -13.2V-37.5ZM16.7 -23.4 46.5 -48.2H17.2Q17.1 -48.2 16.9 -48.1Q16.7 -48.0 16.7 -47.7Z M109.7 0.0V-15.1H72.6V-26.0L110.7 -60.5H121.6V-27.1H129.8V-15.1H121.6V0.0ZM91.7 -27.1H109.7V-42.0Z" fill="none" stroke="#8B5CF6" stroke-width="1.6" opacity=".38"/></g><g transform="translate(906.6,92.0)"><path d="M16.7 0.0Q13.4 0.0 10.8 -1.8Q8.1 -3.6 6.4 -6.5Q4.8 -9.4 4.8 -12.6V-48.3Q4.8 -51.6 6.4 -54.3Q8.1 -57.1 10.8 -58.8Q13.4 -60.5 16.7 -60.5H52.5Q55.8 -60.5 58.5 -58.8Q61.2 -57.1 62.8 -54.3Q64.4 -51.6 64.4 -48.3V-12.6Q64.4 -9.4 62.8 -6.5Q61.2 -3.6 58.5 -1.8Q55.8 0.0 52.5 0.0H16.7ZM22.8 -12.7H52.0Q52.2 -12.7 52.3 -12.8Q52.5 -12.9 52.5 -13.2V-37.5ZM16.7 -23.4 46.5 -48.2H17.2Q17.1 -48.2 16.9 -48.1Q16.7 -48.0 16.7 -47.7Z M109.7 0.0V-15.1H72.6V-26.0L110.7 -60.5H121.6V-27.1H129.8V-15.1H121.6V0.0ZM91.7 -27.1H109.7V-42.0Z" fill="none" stroke="#8B5CF6" stroke-width="1.6" opacity=".18"/></g>

  <line x1="130" y1="50" x2="213" y2="50" stroke="url(#lineL)" stroke-width="1.6"/>
  <line x1="887" y1="50" x2="970" y2="50" stroke="url(#lineR)" stroke-width="1.6"/>
  <g style="animation:dotTravelL 3.2s ease-in-out infinite">
    <circle cx="150" cy="50" r="3" fill="#8B5CF6"/>
  </g>
  <g style="animation:dotTravelR 3.2s ease-in-out 1.6s infinite">
    <circle cx="950" cy="50" r="3" fill="#8B5CF6"/>
  </g>

  <rect x="197" y="44" width="12" height="12" fill="none" stroke="#8B5CF6"
    stroke-width="1.6" transform="rotate(45 203 50)"
    style="transform-origin:203px 50px;animation:spin 8s linear infinite"/>
  <rect x="891" y="44" width="12" height="12" fill="none" stroke="#8B5CF6"
    stroke-width="1.6" transform="rotate(45 897 50)"
    style="transform-origin:897px 50px;animation:spin 8s linear infinite reverse"/>

  <g transform="translate(257.0,62.0)"><path d="M2.3 0.0V-28.8H28.9V-23.0H8.2V-17.3H24.8V-11.5H8.2V0.0Z M35.2 0.0V-28.8H61.8V-23.0H41.1V-17.3H57.8V-11.5H41.1V-5.8H61.8V0.0Z M69.9 0.0V-23.0Q69.9 -24.6 70.7 -25.9Q71.4 -27.2 72.7 -28.0Q74.0 -28.8 75.6 -28.8H92.9Q94.5 -28.8 95.8 -28.0Q97.1 -27.2 97.9 -25.9Q98.7 -24.6 98.7 -23.0V0.0H92.8V-9.5H75.6V0.0H69.9ZM75.6 -15.2H92.8V-22.8Q92.8 -22.9 92.8 -22.9Q92.7 -23.0 92.6 -23.0H75.9Q75.8 -23.0 75.7 -22.9Q75.6 -22.9 75.6 -22.8V-15.2Z M117.3 0.0V-23.0H105.8V-28.8H134.6V-23.0H123.1V0.0Z M147.3 0.0Q145.7 0.0 144.4 -0.8Q143.1 -1.6 142.3 -2.9Q141.5 -4.2 141.5 -5.8V-28.8H147.3V-6.0Q147.3 -5.9 147.3 -5.9Q147.4 -5.8 147.5 -5.8H164.2Q164.4 -5.8 164.4 -5.9Q164.5 -5.9 164.5 -6.0V-28.8H170.3V-5.8Q170.3 -4.2 169.5 -2.9Q168.7 -1.6 167.4 -0.8Q166.1 0.0 164.6 0.0H147.3Z M201.4 0.0 192.8 -10.2H200.4L207.4 -1.8V0.0ZM178.7 0.0V-28.8H201.7Q203.3 -28.8 204.6 -28.0Q205.9 -27.2 206.7 -25.9Q207.5 -24.6 207.5 -23.0V-15.4Q207.5 -13.8 206.7 -12.5Q205.9 -11.2 204.6 -10.5Q203.3 -9.7 201.7 -9.7L184.5 -9.6V0.0ZM184.7 -15.5H201.4Q201.6 -15.5 201.6 -15.5Q201.7 -15.6 201.7 -15.7V-22.8Q201.7 -22.9 201.6 -22.9Q201.6 -23.0 201.4 -23.0H184.7Q184.6 -23.0 184.5 -22.9Q184.5 -22.9 184.5 -22.8V-15.7Q184.5 -15.6 184.5 -15.5Q184.6 -15.5 184.7 -15.5Z M215.8 0.0V-28.8H242.4V-23.0H221.6V-17.3H238.3V-11.5H221.6V-5.8H242.4V0.0Z M250.4 0.0V-28.8H273.4Q275.0 -28.8 276.3 -28.0Q277.6 -27.2 278.4 -25.9Q279.2 -24.6 279.2 -23.0V-5.8Q279.2 -4.2 278.4 -2.9Q277.6 -1.6 276.3 -0.8Q275.0 0.0 273.4 0.0ZM256.4 -5.8H273.2Q273.3 -5.8 273.3 -5.9Q273.4 -5.9 273.4 -6.0V-22.8Q273.4 -22.9 273.3 -22.9Q273.3 -23.0 273.2 -23.0H256.4Q256.3 -23.0 256.2 -22.9Q256.2 -22.9 256.2 -22.8V-6.0Q256.2 -5.9 256.2 -5.9Q256.3 -5.8 256.4 -5.8Z M304.3 0.0V-28.8H327.3Q328.9 -28.8 330.2 -28.0Q331.5 -27.2 332.3 -25.9Q333.1 -24.6 333.1 -23.0V-15.4Q333.1 -13.8 332.3 -12.5Q331.5 -11.2 330.2 -10.5Q328.9 -9.7 327.3 -9.7L310.1 -9.6V0.0ZM310.3 -15.5H327.0Q327.2 -15.5 327.2 -15.5Q327.3 -15.6 327.3 -15.7V-22.8Q327.3 -22.9 327.2 -22.9Q327.2 -23.0 327.0 -23.0H310.3Q310.2 -23.0 310.1 -22.9Q310.1 -22.9 310.1 -22.8V-15.7Q310.1 -15.6 310.1 -15.5Q310.2 -15.5 310.3 -15.5Z M362.6 0.0 354.1 -10.2H361.6L368.7 -1.8V0.0ZM340.0 0.0V-28.8H363.0Q364.6 -28.8 365.9 -28.0Q367.2 -27.2 368.0 -25.9Q368.8 -24.6 368.8 -23.0V-15.4Q368.8 -13.8 368.0 -12.5Q367.2 -11.2 365.9 -10.5Q364.6 -9.7 363.0 -9.7L345.7 -9.6V0.0ZM346.0 -15.5H362.7Q362.8 -15.5 362.9 -15.5Q362.9 -15.6 362.9 -15.7V-22.8Q362.9 -22.9 362.9 -22.9Q362.8 -23.0 362.7 -23.0H346.0Q345.8 -23.0 345.8 -22.9Q345.7 -22.9 345.7 -22.8V-15.7Q345.7 -15.6 345.8 -15.5Q345.8 -15.5 346.0 -15.5Z M382.6 0.0Q381.0 0.0 379.7 -0.8Q378.4 -1.6 377.7 -2.9Q376.9 -4.2 376.9 -5.8V-23.0Q376.9 -24.6 377.7 -25.9Q378.4 -27.2 379.7 -28.0Q381.0 -28.8 382.6 -28.8H399.9Q401.5 -28.8 402.8 -28.0Q404.1 -27.2 404.9 -25.9Q405.7 -24.6 405.7 -23.0V-5.8Q405.7 -4.2 404.9 -2.9Q404.1 -1.6 402.8 -0.8Q401.5 0.0 399.9 0.0ZM382.9 -5.8H399.6Q399.7 -5.8 399.8 -5.9Q399.8 -5.9 399.8 -6.0V-22.8Q399.8 -22.9 399.8 -22.9Q399.7 -23.0 399.6 -23.0H382.9Q382.8 -23.0 382.7 -22.9Q382.6 -22.9 382.6 -22.8V-6.0Q382.6 -5.9 382.7 -5.9Q382.8 -5.8 382.9 -5.8Z M417.8 0.0Q416.2 0.0 414.9 -0.8Q413.6 -1.6 412.8 -2.9Q412.0 -4.2 412.0 -5.8V-9.2H417.8V-6.0Q417.8 -5.9 417.8 -5.9Q417.9 -5.8 418.0 -5.8H434.7Q434.8 -5.8 434.9 -5.9Q435.0 -5.9 435.0 -6.0V-28.8H440.8V-5.8Q440.8 -4.2 440.0 -2.9Q439.2 -1.6 437.9 -0.8Q436.6 0.0 435.0 0.0Z M449.4 0.0V-28.8H475.9V-23.0H455.2V-17.3H471.9V-11.5H455.2V-5.8H475.9V0.0Z M489.7 0.0Q488.1 0.0 486.8 -0.8Q485.5 -1.6 484.7 -2.9Q483.9 -4.2 483.9 -5.8V-23.0Q483.9 -24.6 484.7 -25.9Q485.5 -27.2 486.8 -28.0Q488.1 -28.8 489.7 -28.8H512.6V-23.0H491.0Q490.4 -23.0 490.0 -22.7Q489.7 -22.3 489.7 -21.6V-7.2Q489.7 -6.5 490.0 -6.2Q490.4 -5.8 491.0 -5.8H512.6V0.0Z M530.9 0.0V-23.0H519.4V-28.8H548.2V-23.0H536.7V0.0Z M560.8 0.0Q559.2 0.0 557.9 -0.8Q556.6 -1.6 555.8 -2.9Q555.1 -4.2 555.1 -5.8V-8.2H560.8V-6.0Q560.8 -5.9 560.9 -5.9Q561.0 -5.8 561.0 -5.8H577.8Q577.9 -5.8 578.0 -5.9Q578.0 -5.9 578.0 -6.0V-11.3Q578.0 -11.4 578.0 -11.4Q577.9 -11.5 577.8 -11.5H560.8Q559.2 -11.5 557.9 -12.3Q556.6 -13.0 555.8 -14.4Q555.1 -15.7 555.1 -17.2V-23.0Q555.1 -24.6 555.8 -25.9Q556.6 -27.2 557.9 -28.0Q559.2 -28.8 560.8 -28.8H578.1Q579.7 -28.8 581.0 -28.0Q582.3 -27.2 583.1 -25.9Q583.9 -24.6 583.9 -23.0V-20.6H578.0V-22.8Q578.0 -22.9 578.0 -22.9Q577.9 -23.0 577.8 -23.0H561.0Q561.0 -23.0 560.9 -22.9Q560.8 -22.9 560.8 -22.8V-17.5Q560.8 -17.4 560.9 -17.4Q561.0 -17.3 561.0 -17.3H578.1Q579.7 -17.3 581.0 -16.5Q582.3 -15.8 583.1 -14.4Q583.9 -13.1 583.9 -11.6V-5.8Q583.9 -4.2 583.1 -2.9Q582.3 -1.6 581.0 -0.8Q579.7 0.0 578.1 0.0Z" fill="url(#ink)" /></g>

  <g clip-path="url(#barClip)">
    <rect x="420" y="78" width="260" height="3" rx="1.5" fill="url(#bar)"
      style="animation:sweep 3s ease-in-out infinite"/>
  </g>

  <text x="550.0" y="106" text-anchor="middle" font-family="-apple-system,'Segoe UI','PingFang SC','Hiragino Sans GB','Microsoft YaHei',sans-serif" font-size="15"
    fill="#8B949E" letter-spacing="3" style="animation:breathe 4s ease-in-out infinite">精选项目 · 让想法落地生根</text>
</svg>
