<svg xmlns="http://www.w3.org/2000/svg" viewBox="0 0 1100 118" width="100%" height="auto" role="img" aria-label="GITHUB ANALYTICS">
  <defs>
    <style>
      @keyframes sweep { 0% { transform:translateX(-260px); opacity:0; } 15% { opacity:1; } 85% { opacity:1; } 100% { transform:translateX(260px); opacity:0; } }
      @keyframes spin { to { transform:rotate(360deg); } }
      @keyframes breathe { 0%,100% { opacity:.45; } 50% { opacity:1; } }
      @keyframes dotTravelL { 0% { transform:translateX(0); opacity:0; } 10% { opacity:1; } 90% { opacity:1; } 100% { transform:translateX(241px); opacity:0; } }
      @keyframes dotTravelR { 0% { transform:translateX(0); opacity:0; } 10% { opacity:1; } 90% { opacity:1; } 100% { transform:translateX(-241px); opacity:0; } }
    </style>
    <linearGradient id="ink" x1="0" y1="0" x2="1" y2="0"><stop offset="0" stop-color="#8B5CF6"/><stop offset=".55" stop-color="#06B6D4"/><stop offset="1" stop-color="#EC4899"/></linearGradient>
    <linearGradient id="lineL" x1="0" y1="0" x2="1" y2="0">
      <stop offset="0" stop-color="#EC4899" stop-opacity="0"/>
      <stop offset="1" stop-color="#EC4899" stop-opacity=".85"/>
    </linearGradient>
    <linearGradient id="lineR" x1="1" y1="0" x2="0" y2="0">
      <stop offset="0" stop-color="#EC4899" stop-opacity="0"/>
      <stop offset="1" stop-color="#EC4899" stop-opacity=".85"/>
    </linearGradient>
    <linearGradient id="bar" x1="0" y1="0" x2="1" y2="0">
      <stop offset="0" stop-color="#EC4899" stop-opacity="0"/>
      <stop offset=".5" stop-color="#EC4899"/>
      <stop offset="1" stop-color="#EC4899" stop-opacity="0"/>
    </linearGradient>
    <clipPath id="barClip"><rect x="420" y="78" width="260" height="4"/></clipPath>
  </defs>

  <g transform="translate(60.0,92.0)"><path d="M16.7 0.0Q13.4 0.0 10.8 -1.8Q8.1 -3.6 6.4 -6.5Q4.8 -9.4 4.8 -12.6V-48.3Q4.8 -51.6 6.4 -54.3Q8.1 -57.1 10.8 -58.8Q13.4 -60.5 16.7 -60.5H52.5Q55.8 -60.5 58.5 -58.8Q61.2 -57.1 62.8 -54.3Q64.4 -51.6 64.4 -48.3V-12.6Q64.4 -9.4 62.8 -6.5Q61.2 -3.6 58.5 -1.8Q55.8 0.0 52.5 0.0H16.7ZM22.8 -12.7H52.0Q52.2 -12.7 52.3 -12.8Q52.5 -12.9 52.5 -13.2V-37.5ZM16.7 -23.4 46.5 -48.2H17.2Q17.1 -48.2 16.9 -48.1Q16.7 -48.0 16.7 -47.7Z M88.4 0.0Q85.2 0.0 82.5 -1.6Q79.8 -3.3 78.1 -6.0Q76.5 -8.7 76.5 -11.8V-16.0H88.5V-12.4Q88.5 -12.3 88.6 -12.1Q88.8 -11.9 88.9 -11.9H123.7Q123.9 -11.9 124.1 -12.1Q124.2 -12.3 124.2 -12.4V-24.0Q124.2 -24.3 124.1 -24.4Q123.9 -24.5 123.7 -24.5H86.7V-36.5H121.4Q121.6 -36.5 121.7 -36.7Q121.9 -36.8 121.9 -37.0V-48.0Q121.9 -48.2 121.7 -48.4Q121.6 -48.6 121.4 -48.6H88.9Q88.8 -48.6 88.6 -48.4Q88.5 -48.2 88.5 -48.0V-43.7H76.5V-48.6Q76.5 -51.9 78.1 -54.6Q79.8 -57.3 82.5 -58.9Q85.2 -60.5 88.4 -60.5H122.0Q125.2 -60.5 127.9 -58.9Q130.6 -57.3 132.2 -54.6Q133.8 -51.9 133.8 -48.6V-36.5Q133.8 -35.4 133.7 -34.4Q133.5 -33.3 133.2 -32.5Q134.6 -30.9 135.4 -28.9Q136.1 -26.8 136.1 -24.6V-11.8Q136.1 -8.7 134.6 -6.0Q133.0 -3.3 130.2 -1.6Q127.5 0.0 124.3 0.0H88.4Z" fill="none" stroke="#EC4899" stroke-width="1.6" opacity=".38"/></g><g transform="translate(898.6,92.0)"><path d="M16.7 0.0Q13.4 0.0 10.8 -1.8Q8.1 -3.6 6.4 -6.5Q4.8 -9.4 4.8 -12.6V-48.3Q4.8 -51.6 6.4 -54.3Q8.1 -57.1 10.8 -58.8Q13.4 -60.5 16.7 -60.5H52.5Q55.8 -60.5 58.5 -58.8Q61.2 -57.1 62.8 -54.3Q64.4 -51.6 64.4 -48.3V-12.6Q64.4 -9.4 62.8 -6.5Q61.2 -3.6 58.5 -1.8Q55.8 0.0 52.5 0.0H16.7ZM22.8 -12.7H52.0Q52.2 -12.7 52.3 -12.8Q52.5 -12.9 52.5 -13.2V-37.5ZM16.7 -23.4 46.5 -48.2H17.2Q17.1 -48.2 16.9 -48.1Q16.7 -48.0 16.7 -47.7Z M88.4 0.0Q85.2 0.0 82.5 -1.6Q79.8 -3.3 78.1 -6.0Q76.5 -8.7 76.5 -11.8V-16.0H88.5V-12.4Q88.5 -12.3 88.6 -12.1Q88.8 -11.9 88.9 -11.9H123.7Q123.9 -11.9 124.1 -12.1Q124.2 -12.3 124.2 -12.4V-24.0Q124.2 -24.3 124.1 -24.4Q123.9 -24.5 123.7 -24.5H86.7V-36.5H121.4Q121.6 -36.5 121.7 -36.7Q121.9 -36.8 121.9 -37.0V-48.0Q121.9 -48.2 121.7 -48.4Q121.6 -48.6 121.4 -48.6H88.9Q88.8 -48.6 88.6 -48.4Q88.5 -48.2 88.5 -48.0V-43.7H76.5V-48.6Q76.5 -51.9 78.1 -54.6Q79.8 -57.3 82.5 -58.9Q85.2 -60.5 88.4 -60.5H122.0Q125.2 -60.5 127.9 -58.9Q130.6 -57.3 132.2 -54.6Q133.8 -51.9 133.8 -48.6V-36.5Q133.8 -35.4 133.7 -34.4Q133.5 -33.3 133.2 -32.5Q134.6 -30.9 135.4 -28.9Q136.1 -26.8 136.1 -24.6V-11.8Q136.1 -8.7 134.6 -6.0Q133.0 -3.3 130.2 -1.6Q127.5 0.0 124.3 0.0H88.4Z" fill="none" stroke="#EC4899" stroke-width="1.6" opacity=".18"/></g>

  <line x1="130" y1="50" x2="249" y2="50" stroke="url(#lineL)" stroke-width="1.6"/>
  <line x1="851" y1="50" x2="970" y2="50" stroke="url(#lineR)" stroke-width="1.6"/>
  <g style="animation:dotTravelL 3.2s ease-in-out infinite">
    <circle cx="150" cy="50" r="3" fill="#EC4899"/>
  </g>
  <g style="animation:dotTravelR 3.2s ease-in-out 1.6s infinite">
    <circle cx="950" cy="50" r="3" fill="#EC4899"/>
  </g>

  <rect x="233" y="44" width="12" height="12" fill="none" stroke="#EC4899"
    stroke-width="1.6" transform="rotate(45 239 50)"
    style="transform-origin:239px 50px;animation:spin 8s linear infinite"/>
  <rect x="855" y="44" width="12" height="12" fill="none" stroke="#EC4899"
    stroke-width="1.6" transform="rotate(45 861 50)"
    style="transform-origin:861px 50px;animation:spin 8s linear infinite reverse"/>

  <g transform="translate(293.2,62.0)"><path d="M8.0 0.0Q6.4 0.0 5.1 -0.8Q3.8 -1.6 3.0 -2.9Q2.2 -4.2 2.2 -5.8V-23.0Q2.2 -24.6 3.0 -25.9Q3.8 -27.2 5.1 -28.0Q6.4 -28.8 8.0 -28.8H25.2Q26.8 -28.8 28.1 -28.0Q29.4 -27.2 30.2 -25.9Q31.0 -24.6 31.0 -23.0V-20.6H25.2V-22.8Q25.2 -22.9 25.1 -22.9Q25.1 -23.0 25.0 -23.0H8.2Q8.1 -23.0 8.1 -22.9Q8.0 -22.9 8.0 -22.8V-6.0Q8.0 -5.9 8.1 -5.9Q8.1 -5.8 8.2 -5.8H25.0Q25.1 -5.8 25.1 -5.9Q25.2 -5.9 25.2 -6.0V-10.8H18.8V-16.6H31.0V-5.8Q31.0 -4.2 30.2 -2.9Q29.4 -1.6 28.1 -0.8Q26.8 0.0 25.2 0.0Z M38.6 0.0V-28.8H44.4V0.0Z M62.1 0.0V-23.0H50.6V-28.8H79.4V-23.0H67.9V0.0Z M86.4 0.0V-28.8H92.2V-17.3H110.0V-28.8H115.8V0.0H110.0V-11.5H92.2V0.0Z M130.1 0.0Q128.5 0.0 127.2 -0.8Q125.9 -1.6 125.1 -2.9Q124.3 -4.2 124.3 -5.8V-28.8H130.1V-6.0Q130.1 -5.9 130.1 -5.9Q130.2 -5.8 130.3 -5.8H147.0Q147.2 -5.8 147.2 -5.9Q147.3 -5.9 147.3 -6.0V-28.8H153.1V-5.8Q153.1 -4.2 152.3 -2.9Q151.5 -1.6 150.2 -0.8Q148.9 0.0 147.4 0.0H130.1Z M161.6 0.0V-28.8H183.6Q185.1 -28.8 186.4 -28.0Q187.7 -27.2 188.5 -25.9Q189.3 -24.6 189.3 -23.0V-17.5Q189.3 -17.0 189.2 -16.5Q189.2 -16.1 189.0 -15.6Q189.6 -14.8 190.0 -13.8Q190.4 -12.8 190.4 -11.8V-5.8Q190.4 -4.2 189.6 -2.9Q188.8 -1.6 187.5 -0.8Q186.2 0.0 184.6 0.0H161.6ZM167.6 -5.8H184.4Q184.5 -5.8 184.5 -5.9Q184.6 -5.9 184.6 -6.0V-11.5Q184.6 -11.6 184.5 -11.7Q184.5 -11.8 184.4 -11.8H167.6Q167.5 -11.8 167.5 -11.7Q167.4 -11.6 167.4 -11.5V-6.0Q167.4 -5.9 167.5 -5.9Q167.5 -5.8 167.6 -5.8ZM167.6 -17.6H183.2Q183.3 -17.6 183.4 -17.6Q183.5 -17.7 183.5 -17.8V-22.8Q183.5 -22.9 183.4 -22.9Q183.3 -23.0 183.2 -23.0H167.6Q167.5 -23.0 167.5 -22.9Q167.4 -22.9 167.4 -22.8V-17.8Q167.4 -17.7 167.5 -17.6Q167.5 -17.6 167.6 -17.6Z M215.5 0.0V-23.0Q215.5 -24.6 216.3 -25.9Q217.0 -27.2 218.3 -28.0Q219.6 -28.8 221.2 -28.8H238.5Q240.1 -28.8 241.4 -28.0Q242.7 -27.2 243.5 -25.9Q244.3 -24.6 244.3 -23.0V0.0H238.4V-9.5H221.2V0.0H215.5ZM221.2 -15.2H238.4V-22.8Q238.4 -22.9 238.4 -22.9Q238.3 -23.0 238.2 -23.0H221.5Q221.4 -23.0 221.3 -22.9Q221.2 -22.9 221.2 -22.8V-15.2Z M252.8 0.0V-28.8H259.0L275.8 -8.7V-28.8H281.6V0.0H275.5L258.6 -20.2V0.0Z M290.2 0.0V-23.0Q290.2 -24.6 291.0 -25.9Q291.8 -27.2 293.1 -28.0Q294.4 -28.8 296.0 -28.8H313.2Q314.8 -28.8 316.1 -28.0Q317.4 -27.2 318.2 -25.9Q319.0 -24.6 319.0 -23.0V0.0H313.2V-9.5H296.0V0.0H290.2ZM296.0 -15.2H313.2V-22.8Q313.2 -22.9 313.1 -22.9Q313.0 -23.0 312.9 -23.0H296.2Q296.1 -23.0 296.0 -22.9Q296.0 -22.9 296.0 -22.8V-15.2Z M327.6 0.0V-28.8H333.4V-5.8H356.4V0.0Z M373.7 0.0V-10.8L360.4 -28.8H367.2L376.6 -17.0L385.9 -28.8H392.8L379.5 -10.7V0.0Z M409.0 0.0V-23.0H397.5V-28.8H426.3V-23.0H414.8V0.0Z M432.5 0.0V-28.8H438.2V0.0Z M451.6 0.0Q450.0 0.0 448.7 -0.8Q447.4 -1.6 446.7 -2.9Q445.9 -4.2 445.9 -5.8V-23.0Q445.9 -24.6 446.7 -25.9Q447.4 -27.2 448.7 -28.0Q450.0 -28.8 451.6 -28.8H474.6V-23.0H453.0Q452.4 -23.0 452.0 -22.7Q451.6 -22.3 451.6 -21.6V-7.2Q451.6 -6.5 452.0 -6.2Q452.4 -5.8 453.0 -5.8H474.6V0.0Z M488.4 0.0Q486.8 0.0 485.5 -0.8Q484.2 -1.6 483.4 -2.9Q482.7 -4.2 482.7 -5.8V-8.2H488.4V-6.0Q488.4 -5.9 488.5 -5.9Q488.6 -5.8 488.6 -5.8H505.4Q505.5 -5.8 505.6 -5.9Q505.6 -5.9 505.6 -6.0V-11.3Q505.6 -11.4 505.6 -11.4Q505.5 -11.5 505.4 -11.5H488.4Q486.8 -11.5 485.5 -12.3Q484.2 -13.0 483.4 -14.4Q482.7 -15.7 482.7 -17.2V-23.0Q482.7 -24.6 483.4 -25.9Q484.2 -27.2 485.5 -28.0Q486.8 -28.8 488.4 -28.8H505.7Q507.3 -28.8 508.6 -28.0Q509.9 -27.2 510.7 -25.9Q511.5 -24.6 511.5 -23.0V-20.6H505.6V-22.8Q505.6 -22.9 505.6 -22.9Q505.5 -23.0 505.4 -23.0H488.6Q488.6 -23.0 488.5 -22.9Q488.4 -22.9 488.4 -22.8V-17.5Q488.4 -17.4 488.5 -17.4Q488.6 -17.3 488.6 -17.3H505.7Q507.3 -17.3 508.6 -16.5Q509.9 -15.8 510.7 -14.4Q511.5 -13.1 511.5 -11.6V-5.8Q511.5 -4.2 510.7 -2.9Q509.9 -1.6 508.6 -0.8Q507.3 0.0 505.7 0.0Z" fill="url(#ink)" /></g>

  <g clip-path="url(#barClip)">
    <rect x="420" y="78" width="260" height="3" rx="1.5" fill="url(#bar)"
      style="animation:sweep 3s ease-in-out infinite"/>
  </g>

  <text x="550.0" y="106" text-anchor="middle" font-family="-apple-system,'Segoe UI','PingFang SC','Hiragino Sans GB','Microsoft YaHei',sans-serif" font-size="15"
    fill="#8B949E" letter-spacing="3" style="animation:breathe 4s ease-in-out infinite">数据观测站 · 用数字讲故事</text>
</svg>
