<svg xmlns="http://www.w3.org/2000/svg" viewBox="0 0 420 232" width="100%" height="auto" role="img" aria-label="AiliaoX">
  <defs>
    <style>
      @keyframes borderFlow { to { stroke-dashoffset:-320; } }
      @keyframes scanline { 0% { transform:translateY(-60px); } 100% { transform:translateY(252px); } }
      @keyframes cardFloat { 0%,100% { transform:translateY(0); } 50% { transform:translateY(-3px); } }
      @keyframes blinkDot { 0%,88%,100% { opacity:1; } 92%,96% { opacity:.25; } }
      @keyframes chipPulse { 0%,100% { opacity:.75; } 50% { opacity:1; } }
      @keyframes arrowNudge { 0%,100% { transform:translateX(0); } 50% { transform:translateX(3px); } }
      @keyframes trace { to { stroke-dashoffset:-120; } }
      .mono { font-family:ui-monospace,'SFMono-Regular','SF Mono','Cascadia Code','JetBrains Mono',Menlo,Consolas,monospace; }
    </style>
    <linearGradient id="cardBg" x1="0" y1="0" x2="1" y2="1">
      <stop offset="0" stop-color="#0D1117"/>
      <stop offset="1" stop-color="#11182a"/>
    </linearGradient>
    <linearGradient id="scan" x1="0" y1="0" x2="0" y2="1">
      <stop offset="0" stop-color="#F472B6" stop-opacity="0"/>
      <stop offset=".5" stop-color="#F472B6" stop-opacity=".12"/>
      <stop offset="1" stop-color="#F472B6" stop-opacity="0"/>
    </linearGradient>
    <clipPath id="clip"><rect x="4" y="4" width="412" height="224" rx="14"/></clipPath>
  </defs>

  <g style="animation:cardFloat 6s ease-in-out 0.55s infinite">
    <g clip-path="url(#clip)">
      <rect x="4" y="4" width="412" height="224" fill="url(#cardBg)"/>
      <rect x="4" y="0" width="412" height="48" fill="url(#scan)"
        style="animation:scanline 4.5s linear 0.55s infinite"/>
      <path d="M 302 228 v -26 h 44 v -18 h 62" fill="none" stroke="#F472B6"
        stroke-opacity=".28" stroke-width="1.3" stroke-dasharray="7 5"
        style="animation:trace 5s linear infinite"/>
      <circle cx="302" cy="202" r="2.2" fill="#F472B6" opacity=".5"/>
    </g>

    <rect x="4" y="4" width="412" height="224" rx="14" fill="none"
      stroke="#8B5CF6" stroke-opacity=".35" stroke-width="1.3"/>
    <rect x="4" y="4" width="412" height="224" rx="14" fill="none"
      stroke="#F472B6" stroke-width="1.6" stroke-dasharray="46 114" stroke-opacity=".9"
      style="animation:borderFlow 7s linear infinite"/>

    <path d="M 16 34 L 16 16 L 34 16" fill="none" stroke="#F472B6" stroke-width="2.2" opacity=".9"/>
    <path d="M 404 198 L 404 216 L 386 216" fill="none" stroke="#F472B6" stroke-width="2.2" opacity=".9"/>

    <svg x="22" y="36" viewBox="0 0 16 16" width="20" height="20">
      <path fill="#F472B6" fill-rule="evenodd" d="M2 2.5A2.5 2.5 0 014.5 0h8.75a.75.75 0 01.75.75v12.5a.75.75 0 01-.75.75h-2.5a.75.75 0 110-1.5h1.75v-2h-8a1 1 0 00-.714 1.7.75.75 0 01-1.072 1.05A2.495 2.495 0 012 11.5v-9zm10.5-1V9h-8c-.356 0-.694.074-1 .208V2.5a1 1 0 011-1h8z"/>
    </svg>
    <g transform="translate(52.0,52.0)"><path d="M1.2 0.0V-12.1Q1.2 -12.9 1.6 -13.6Q2.0 -14.3 2.7 -14.7Q3.4 -15.1 4.2 -15.1H13.3Q14.1 -15.1 14.8 -14.7Q15.5 -14.3 15.9 -13.6Q16.3 -12.9 16.3 -12.1V0.0H13.3V-5.0H4.2V0.0H1.2ZM4.2 -8.0H13.3V-11.9Q13.3 -12.0 13.2 -12.0Q13.2 -12.1 13.1 -12.1H4.4Q4.3 -12.1 4.3 -12.0Q4.2 -12.0 4.2 -11.9V-8.0Z M19.1 0.0V-12.2H22.1V0.0ZM19.1 -13.2V-16.2H22.1V-13.2Z M27.4 0.0Q26.6 0.0 25.9 -0.4Q25.2 -0.8 24.8 -1.5Q24.4 -2.2 24.4 -3.0V-16.2H27.4V-3.1Q27.4 -3.1 27.4 -3.0Q27.5 -3.0 27.5 -3.0H29.9V0.0H27.4Z M31.9 0.0V-12.2H34.8V0.0ZM31.9 -13.2V-16.2H34.8V-13.2Z M40.1 0.0Q39.3 0.0 38.6 -0.4Q37.9 -0.8 37.5 -1.5Q37.1 -2.2 37.1 -3.0V-7.6H46.5V-9.1Q46.5 -9.1 46.4 -9.2Q46.4 -9.2 46.4 -9.2H37.1V-12.2H46.5Q47.3 -12.2 48.0 -11.8Q48.7 -11.4 49.1 -10.7Q49.5 -10.0 49.5 -9.2V0.0ZM40.2 -3.0H46.5V-4.9H40.1V-3.1Q40.1 -3.1 40.1 -3.0Q40.2 -3.0 40.2 -3.0Z M55.1 0.0Q54.3 0.0 53.7 -0.4Q53.0 -0.8 52.6 -1.5Q52.2 -2.2 52.2 -3.0V-9.2Q52.2 -10.0 52.6 -10.7Q53.0 -11.4 53.7 -11.8Q54.3 -12.2 55.1 -12.2H61.6Q62.4 -12.2 63.0 -11.8Q63.7 -11.4 64.1 -10.7Q64.5 -10.0 64.5 -9.2V-3.0Q64.5 -2.2 64.1 -1.5Q63.7 -0.8 63.0 -0.4Q62.4 0.0 61.6 0.0H55.1ZM55.3 -3.0H61.4Q61.4 -3.0 61.5 -3.0Q61.5 -3.1 61.5 -3.1V-9.1Q61.5 -9.1 61.5 -9.2Q61.4 -9.2 61.4 -9.2H55.3Q55.2 -9.2 55.2 -9.2Q55.1 -9.1 55.1 -9.1V-3.1Q55.1 -3.1 55.2 -3.0Q55.2 -3.0 55.3 -3.0Z M67.1 0.0V-0.9L72.6 -7.6L67.1 -14.2V-15.1H70.3L74.7 -10.0L79.0 -15.1H82.2V-14.2L76.6 -7.6L82.2 -1.0V0.0H79.0L74.6 -5.1L70.3 0.0Z" fill="#F472B6" /></g>

    <rect x="22" y="70" width="145" height="20" rx="10"
      fill="#F472B6" fill-opacity=".1" stroke="#F472B6" stroke-opacity=".45" stroke-width="1"/>
    <text x="35" y="84" class="mono" font-size="10.5" letter-spacing="2" fill="#F472B6">HEALTHCARE AI</text>

    <text x="24" y="122" class="mono" font-size="13" fill="#E6EDF3" opacity=".88">Intelligent medical healthcare system.</text>
    <text x="24" y="143" class="mono" font-size="13" fill="#E6EDF3" opacity=".88">Bridging AI and real-world medicine.</text>

    <line x1="22" y1="170" x2="398" y2="170" stroke="#8B5CF6" stroke-opacity=".25" stroke-width="1"/>

    <circle cx="32" cy="194" r="5.5" fill="#3178C6" style="animation:blinkDot 4s ease-in-out infinite"/>
    <text x="45" y="199" class="mono" font-size="12.5" font-weight="600" fill="#3178C6">TypeScript</text>

    <svg x="168" y="185" viewBox="0 0 16 16" width="15" height="15">
      <path fill="#FBBF24" fill-rule="evenodd" d="M8 .25a.75.75 0 01.673.418l1.882 3.815 4.21.612a.75.75 0 01.416 1.279l-3.046 2.97.719 4.192a.75.75 0 01-1.088.791L8 12.347l-3.766 1.98a.75.75 0 01-1.088-.79l.72-4.194L.818 6.374a.75.75 0 01.416-1.28l4.21-.611L7.327.668A.75.75 0 018 .25z"/>
    </svg>
    <text x="189" y="199" class="mono" font-size="12.5" font-weight="600" fill="#FBBF24">★</text>

    <g style="animation:chipPulse 2.8s ease-in-out infinite">
      <rect x="294" y="182" width="104" height="26" rx="13"
        fill="#F472B6" fill-opacity=".14" stroke="#F472B6" stroke-opacity=".6" stroke-width="1.1"/>
      <text x="308" y="200" class="mono" font-size="11.5" letter-spacing="1" fill="#F472B6">EXPLORE</text>
      <g style="animation:arrowNudge 1.6s ease-in-out infinite">
        <text x="380" y="200" class="mono" font-size="12.5" fill="#F472B6">→</text>
      </g>
    </g>
  </g>
</svg>
