<svg xmlns="http://www.w3.org/2000/svg" viewBox="0 0 420 232" width="100%" height="auto" role="img" aria-label="ECG_IdentificationX">
  <defs>
    <style>
      @keyframes borderFlow { to { stroke-dashoffset:-320; } }
      @keyframes scanline { 0% { transform:translateY(-60px); } 100% { transform:translateY(252px); } }
      @keyframes cardFloat { 0%,100% { transform:translateY(0); } 50% { transform:translateY(-3px); } }
      @keyframes blinkDot { 0%,88%,100% { opacity:1; } 92%,96% { opacity:.25; } }
      @keyframes chipPulse { 0%,100% { opacity:.75; } 50% { opacity:1; } }
      @keyframes arrowNudge { 0%,100% { transform:translateX(0); } 50% { transform:translateX(3px); } }
      @keyframes trace { to { stroke-dashoffset:-120; } }
      .mono { font-family:ui-monospace,'SFMono-Regular','SF Mono','Cascadia Code','JetBrains Mono',Menlo,Consolas,monospace; }
    </style>
    <linearGradient id="cardBg" x1="0" y1="0" x2="1" y2="1">
      <stop offset="0" stop-color="#0D1117"/>
      <stop offset="1" stop-color="#11182a"/>
    </linearGradient>
    <linearGradient id="scan" x1="0" y1="0" x2="0" y2="1">
      <stop offset="0" stop-color="#67E8F9" stop-opacity="0"/>
      <stop offset=".5" stop-color="#67E8F9" stop-opacity=".12"/>
      <stop offset="1" stop-color="#67E8F9" stop-opacity="0"/>
    </linearGradient>
    <clipPath id="clip"><rect x="4" y="4" width="412" height="224" rx="14"/></clipPath>
  </defs>

  <g style="animation:cardFloat 6s ease-in-out 0.00s infinite">
    <g clip-path="url(#clip)">
      <rect x="4" y="4" width="412" height="224" fill="url(#cardBg)"/>
      <rect x="4" y="0" width="412" height="48" fill="url(#scan)"
        style="animation:scanline 4.5s linear 0.00s infinite"/>
      <path d="M 302 228 v -26 h 44 v -18 h 62" fill="none" stroke="#67E8F9"
        stroke-opacity=".28" stroke-width="1.3" stroke-dasharray="7 5"
        style="animation:trace 5s linear infinite"/>
      <circle cx="302" cy="202" r="2.2" fill="#67E8F9" opacity=".5"/>
    </g>

    <rect x="4" y="4" width="412" height="224" rx="14" fill="none"
      stroke="#8B5CF6" stroke-opacity=".35" stroke-width="1.3"/>
    <rect x="4" y="4" width="412" height="224" rx="14" fill="none"
      stroke="#67E8F9" stroke-width="1.6" stroke-dasharray="46 114" stroke-opacity=".9"
      style="animation:borderFlow 7s linear infinite"/>

    <path d="M 16 34 L 16 16 L 34 16" fill="none" stroke="#67E8F9" stroke-width="2.2" opacity=".9"/>
    <path d="M 404 198 L 404 216 L 386 216" fill="none" stroke="#67E8F9" stroke-width="2.2" opacity=".9"/>

    <svg x="22" y="36" viewBox="0 0 16 16" width="20" height="20">
      <path fill="#67E8F9" fill-rule="evenodd" d="M2 2.5A2.5 2.5 0 014.5 0h8.75a.75.75 0 01.75.75v12.5a.75.75 0 01-.75.75h-2.5a.75.75 0 110-1.5h1.75v-2h-8a1 1 0 00-.714 1.7.75.75 0 01-1.072 1.05A2.495 2.495 0 012 11.5v-9zm10.5-1V9h-8c-.356 0-.694.074-1 .208V2.5a1 1 0 011-1h8z"/>
    </svg>
    <g transform="translate(52.0,52.0)"><path d="M1.2 0.0V-15.1H15.2V-12.1H4.3V-9.1H13.0V-6.0H4.3V-3.0H15.2V0.0Z M20.8 0.0Q19.9 0.0 19.3 -0.4Q18.6 -0.8 18.2 -1.5Q17.8 -2.2 17.8 -3.0V-12.1Q17.8 -12.9 18.2 -13.6Q18.6 -14.3 19.3 -14.7Q19.9 -15.1 20.8 -15.1H32.8V-12.1H21.5Q21.2 -12.1 21.0 -11.9Q20.8 -11.7 20.8 -11.4V-3.8Q20.8 -3.4 21.0 -3.2Q21.2 -3.0 21.5 -3.0H32.8V0.0Z M38.5 0.0Q37.7 0.0 37.0 -0.4Q36.3 -0.8 35.9 -1.5Q35.5 -2.2 35.5 -3.0V-12.1Q35.5 -12.9 35.9 -13.6Q36.3 -14.3 37.0 -14.7Q37.7 -15.1 38.5 -15.1H47.6Q48.4 -15.1 49.1 -14.7Q49.8 -14.3 50.2 -13.6Q50.6 -12.9 50.6 -12.1V-10.8H47.6V-11.9Q47.6 -12.0 47.5 -12.0Q47.5 -12.1 47.5 -12.1H38.7Q38.6 -12.1 38.6 -12.0Q38.5 -12.0 38.5 -11.9V-3.2Q38.5 -3.1 38.6 -3.1Q38.6 -3.0 38.7 -3.0H47.5Q47.5 -3.0 47.5 -3.1Q47.6 -3.1 47.6 -3.2V-5.6H44.2V-8.7H50.6V-3.0Q50.6 -2.2 50.2 -1.5Q49.8 -0.8 49.1 -0.4Q48.4 0.0 47.6 0.0Z M53.4 3.0V0.0H68.3V3.0Z M70.9 0.0V-15.1H73.9V0.0Z M78.6 0.0Q77.8 0.0 77.1 -0.4Q76.4 -0.8 76.0 -1.5Q75.6 -2.2 75.6 -3.0V-9.2Q75.6 -10.0 76.0 -10.7Q76.4 -11.4 77.1 -11.8Q77.8 -12.2 78.6 -12.2H85.0V-16.2H88.0V0.0H78.6ZM78.8 -3.0H84.9Q84.9 -3.0 85.0 -3.0Q85.0 -3.1 85.0 -3.1V-9.1Q85.0 -9.1 85.0 -9.2Q84.9 -9.2 84.9 -9.2H78.8Q78.7 -9.2 78.7 -9.2Q78.6 -9.1 78.6 -9.1V-3.1Q78.6 -3.1 78.7 -3.0Q78.7 -3.0 78.8 -3.0Z M93.7 0.0Q92.9 0.0 92.2 -0.4Q91.6 -0.8 91.1 -1.5Q90.7 -2.2 90.7 -3.0V-9.2Q90.7 -10.0 91.1 -10.7Q91.6 -11.4 92.2 -11.8Q92.9 -12.2 93.7 -12.2H100.1Q100.9 -12.2 101.6 -11.8Q102.3 -11.4 102.7 -10.7Q103.1 -10.0 103.1 -9.2V-4.6H93.7V-3.1Q93.7 -3.1 93.8 -3.0Q93.8 -3.0 93.8 -3.0H103.1V0.0H93.7ZM93.7 -7.2H100.1V-9.1Q100.1 -9.1 100.1 -9.2Q100.0 -9.2 100.0 -9.2H93.8Q93.8 -9.2 93.8 -9.2Q93.7 -9.1 93.7 -9.1Z M105.8 0.0V-12.2H115.2Q116.0 -12.2 116.7 -11.8Q117.4 -11.4 117.8 -10.7Q118.2 -10.0 118.2 -9.2V0.0H115.2V-9.1Q115.2 -9.1 115.2 -9.2Q115.1 -9.2 115.1 -9.2H108.9Q108.9 -9.2 108.9 -9.2Q108.8 -9.1 108.8 -9.1V0.0Z M123.9 0.0Q123.1 0.0 122.4 -0.4Q121.7 -0.8 121.3 -1.5Q120.9 -2.2 120.9 -3.0V-15.9H123.9V-12.2H128.6V-9.2H123.9V-3.1Q123.9 -3.1 124.0 -3.0Q124.0 -3.0 124.0 -3.0H128.6V0.0H123.9Z M130.8 0.0V-12.2H133.7V0.0ZM130.8 -13.2V-16.2H133.7V-13.2Z M136.0 0.0V-13.2Q136.0 -14.0 136.4 -14.7Q136.8 -15.4 137.5 -15.8Q138.2 -16.2 139.0 -16.2H143.6V-13.2H139.1Q139.1 -13.2 139.0 -13.1Q139.0 -13.1 139.0 -13.0V-12.2H143.6V-9.2H139.0V0.0Z M145.6 0.0V-12.2H148.6V0.0ZM145.6 -13.2V-16.2H148.6V-13.2Z M153.8 0.0Q153.0 0.0 152.3 -0.4Q151.7 -0.8 151.3 -1.5Q150.9 -2.2 150.9 -3.0V-9.2Q150.9 -10.0 151.3 -10.7Q151.7 -11.4 152.3 -11.8Q153.0 -12.2 153.8 -12.2H163.2V-9.2H154.0Q153.9 -9.2 153.9 -9.2Q153.8 -9.1 153.8 -9.1V-3.1Q153.8 -3.1 153.9 -3.0Q153.9 -3.0 154.0 -3.0H163.2V0.0H153.8Z M168.9 0.0Q168.1 0.0 167.5 -0.4Q166.8 -0.8 166.4 -1.5Q166.0 -2.2 166.0 -3.0V-7.6H175.3V-9.1Q175.3 -9.1 175.3 -9.2Q175.3 -9.2 175.2 -9.2H166.0V-12.2H175.4Q176.2 -12.2 176.9 -11.8Q177.5 -11.4 177.9 -10.7Q178.3 -10.0 178.3 -9.2V0.0ZM169.1 -3.0H175.3V-4.9H169.0V-3.1Q169.0 -3.1 169.0 -3.0Q169.0 -3.0 169.1 -3.0Z M184.1 0.0Q183.2 0.0 182.6 -0.4Q181.9 -0.8 181.5 -1.5Q181.1 -2.2 181.1 -3.0V-15.9H184.1V-12.2H188.7V-9.2H184.1V-3.1Q184.1 -3.1 184.1 -3.0Q184.1 -3.0 184.2 -3.0H188.7V0.0H184.1Z M190.9 0.0V-12.2H193.9V0.0ZM190.9 -13.2V-16.2H193.9V-13.2Z M199.1 0.0Q198.3 0.0 197.6 -0.4Q196.9 -0.8 196.5 -1.5Q196.1 -2.2 196.1 -3.0V-9.2Q196.1 -10.0 196.5 -10.7Q196.9 -11.4 197.6 -11.8Q198.3 -12.2 199.1 -12.2H205.5Q206.3 -12.2 207.0 -11.8Q207.7 -11.4 208.1 -10.7Q208.5 -10.0 208.5 -9.2V-3.0Q208.5 -2.2 208.1 -1.5Q207.7 -0.8 207.0 -0.4Q206.3 0.0 205.5 0.0H199.1ZM199.2 -3.0H205.4Q205.4 -3.0 205.4 -3.0Q205.5 -3.1 205.5 -3.1V-9.1Q205.5 -9.1 205.4 -9.2Q205.4 -9.2 205.4 -9.2H199.2Q199.2 -9.2 199.1 -9.2Q199.1 -9.1 199.1 -9.1V-3.1Q199.1 -3.1 199.1 -3.0Q199.2 -3.0 199.2 -3.0Z M211.2 0.0V-12.2H220.6Q221.4 -12.2 222.1 -11.8Q222.8 -11.4 223.2 -10.7Q223.6 -10.0 223.6 -9.2V0.0H220.6V-9.1Q220.6 -9.1 220.5 -9.2Q220.5 -9.2 220.5 -9.2H214.3Q214.3 -9.2 214.2 -9.2Q214.2 -9.1 214.2 -9.1V0.0Z M226.2 0.0V-0.9L231.7 -7.6L226.2 -14.2V-15.1H229.4L233.7 -10.0L238.0 -15.1H241.2V-14.2L235.7 -7.6L241.3 -1.0V0.0H238.0L233.7 -5.1L229.4 0.0Z" fill="#67E8F9" /></g>

    <rect x="22" y="70" width="144" height="20" rx="10"
      fill="#67E8F9" fill-opacity=".1" stroke="#67E8F9" stroke-opacity=".45" stroke-width="1"/>
    <text x="35" y="84" class="mono" font-size="10.5" letter-spacing="2" fill="#67E8F9">DEEP LEARNING</text>

    <text x="24" y="122" class="mono" font-size="13" fill="#E6EDF3" opacity=".88">Deep-learning ST-segment classification</text>
    <text x="24" y="143" class="mono" font-size="13" fill="#E6EDF3" opacity=".88">for biomedical ECG signals — SOTA accuracy.</text>

    <line x1="22" y1="170" x2="398" y2="170" stroke="#8B5CF6" stroke-opacity=".25" stroke-width="1"/>

    <circle cx="32" cy="194" r="5.5" fill="#3572A5" style="animation:blinkDot 4s ease-in-out infinite"/>
    <text x="45" y="199" class="mono" font-size="12.5" font-weight="600" fill="#3572A5">Python</text>

    <svg x="168" y="185" viewBox="0 0 16 16" width="15" height="15">
      <path fill="#FBBF24" fill-rule="evenodd" d="M8 .25a.75.75 0 01.673.418l1.882 3.815 4.21.612a.75.75 0 01.416 1.279l-3.046 2.97.719 4.192a.75.75 0 01-1.088.791L8 12.347l-3.766 1.98a.75.75 0 01-1.088-.79l.72-4.194L.818 6.374a.75.75 0 01.416-1.28l4.21-.611L7.327.668A.75.75 0 018 .25z"/>
    </svg>
    <text x="189" y="199" class="mono" font-size="12.5" font-weight="600" fill="#FBBF24">2</text>

    <g style="animation:chipPulse 2.8s ease-in-out infinite">
      <rect x="294" y="182" width="104" height="26" rx="13"
        fill="#67E8F9" fill-opacity=".14" stroke="#67E8F9" stroke-opacity=".6" stroke-width="1.1"/>
      <text x="308" y="200" class="mono" font-size="11.5" letter-spacing="1" fill="#67E8F9">EXPLORE</text>
      <g style="animation:arrowNudge 1.6s ease-in-out infinite">
        <text x="380" y="200" class="mono" font-size="12.5" fill="#67E8F9">→</text>
      </g>
    </g>
  </g>
</svg>
