<svg xmlns="http://www.w3.org/2000/svg" viewBox="0 0 1280 420" width="100%" height="auto" role="img" aria-label="Marways — Vibe Coder and AI Builder">
  <defs>
    <style>
      @keyframes twinkle { 0%,100% { opacity:.15; } 50% { opacity:.9; } }
      @keyframes floaty  { 0%,100% { transform:translateY(0); } 50% { transform:translateY(-8px); } }
      @keyframes auroraA { 0%,100% { transform:translate(0,0) scale(1); } 50% { transform:translate(60px,18px) scale(1.15); } }
      @keyframes auroraB { 0%,100% { transform:translate(0,0) scale(1.1); } 50% { transform:translate(-70px,-14px) scale(0.95); } }
      @keyframes auroraC { 0%,100% { transform:translate(0,0); } 50% { transform:translate(30px,-24px); } }
      @keyframes shoot {
        0%   { transform:translate(0,0); opacity:0; }
        6%   { opacity:.9; }
        22%  { transform:translate(-460px,300px); opacity:0; }
        100% { transform:translate(-460px,300px); opacity:0; }
      }
      @keyframes gridFall {
        0%   { transform:translateY(0); opacity:0; }
        12%  { opacity:.55; }
        100% { transform:translateY(115px); opacity:0; }
      }
      @keyframes spin    { to { transform:rotate(360deg); } }
      @keyframes spinRev { to { transform:rotate(-360deg); } }
      @keyframes cursorBlink { 0%,49% { opacity:1; } 50%,100% { opacity:0; } }
      @keyframes glitch {
        0%,93%,100% { transform:translate(0,0); opacity:0; }
        94%  { transform:translate(-5px,2px); opacity:.55; }
        95%  { transform:translate(4px,-2px); opacity:.4; }
        96%  { transform:translate(-3px,1px); opacity:.5; }
        97%  { transform:translate(0,0); opacity:0; }
      }
      @keyframes waveSlide  { to { transform:translateX(-320px); } }
      @keyframes waveSlide2 { to { transform:translateX(-440px); } }
      @keyframes phrase1 { 0%,4% {opacity:0;} 7%,29% {opacity:1;} 32%,100% {opacity:0;} }
      @keyframes phrase2 { 0%,37% {opacity:0;} 40%,62% {opacity:1;} 65%,100% {opacity:0;} }
      @keyframes phrase3 { 0%,70% {opacity:0;} 73%,95% {opacity:1;} 98%,100% {opacity:0;} }
      @keyframes breathe { 0%,100% { opacity:.5; } 50% { opacity:1; } }
      @keyframes dashFlow { to { stroke-dashoffset:-200; } }

      .mono { font-family:ui-monospace,'SFMono-Regular','SF Mono','Cascadia Code','JetBrains Mono',Menlo,Consolas,monospace; }
      .star { fill:#E6EDF3; }
      .hud  { fill:none; stroke:#22D3EE; stroke-width:2; opacity:.65; }
    </style>

    <linearGradient id="bgGrad" x1="0" y1="0" x2="1" y2="1">
      <stop offset="0" stop-color="#05060E"/>
      <stop offset=".55" stop-color="#0B0820"/>
      <stop offset="1" stop-color="#060B18"/>
    </linearGradient>

    <radialGradient id="blobViolet" cx="50%" cy="50%" r="50%">
      <stop offset="0" stop-color="#8B5CF6" stop-opacity=".34"/>
      <stop offset="1" stop-color="#8B5CF6" stop-opacity="0"/>
    </radialGradient>
    <radialGradient id="blobCyan" cx="50%" cy="50%" r="50%">
      <stop offset="0" stop-color="#22D3EE" stop-opacity=".26"/>
      <stop offset="1" stop-color="#22D3EE" stop-opacity="0"/>
    </radialGradient>
    <radialGradient id="blobPink" cx="50%" cy="50%" r="50%">
      <stop offset="0" stop-color="#F472B6" stop-opacity=".2"/>
      <stop offset="1" stop-color="#F472B6" stop-opacity="0"/>
    </radialGradient>

    <linearGradient id="titleGrad" x1="0" y1="0" x2="1" y2="0">
      <stop offset="0" stop-color="#67E8F9"/>
      <stop offset=".35" stop-color="#A78BFA"/>
      <stop offset=".7" stop-color="#8B5CF6"/>
      <stop offset="1" stop-color="#F472B6"/>
    </linearGradient>

    <linearGradient id="sheen" gradientUnits="userSpaceOnUse" x1="0" y1="0" x2="1280" y2="0">
      <stop offset="0" stop-color="#fff" stop-opacity="0"/>
      <stop offset=".46" stop-color="#fff" stop-opacity="0"/>
      <stop offset=".5" stop-color="#fff" stop-opacity=".85"/>
      <stop offset=".54" stop-color="#fff" stop-opacity="0"/>
      <stop offset="1" stop-color="#fff" stop-opacity="0"/>
      <animateTransform attributeName="gradientTransform" type="translate"
        from="-1280 0" to="1280 0" dur="5.5s" repeatCount="indefinite"/>
    </linearGradient>

    <linearGradient id="hairline" x1="0" y1="0" x2="1" y2="0">
      <stop offset="0" stop-color="#8B5CF6" stop-opacity="0"/>
      <stop offset=".5" stop-color="#22D3EE"/>
      <stop offset="1" stop-color="#F472B6" stop-opacity="0"/>
    </linearGradient>

    <filter id="soft" x="-40%" y="-40%" width="180%" height="180%">
      <feGaussianBlur stdDeviation="10"/>
    </filter>
    <filter id="glow" x="-30%" y="-30%" width="160%" height="160%">
      <feGaussianBlur stdDeviation="4" result="b"/>
      <feMerge><feMergeNode in="b"/><feMergeNode in="SourceGraphic"/></feMerge>
    </filter>

    <clipPath id="frame"><rect width="1280" height="420" rx="18"/></clipPath>
  </defs>

  <g clip-path="url(#frame)">
  <rect width="1280" height="420" fill="url(#bgGrad)"/>

  <g style="mix-blend-mode:screen">
    <ellipse cx="250" cy="150" rx="430" ry="230" fill="url(#blobViolet)" style="animation:auroraA 16s ease-in-out infinite"/>
    <ellipse cx="1030" cy="190" rx="470" ry="250" fill="url(#blobCyan)"  style="animation:auroraB 20s ease-in-out infinite"/>
    <ellipse cx="660" cy="360" rx="500" ry="200" fill="url(#blobPink)"   style="animation:auroraC 24s ease-in-out infinite"/>
  </g>
  <circle class="star" cx="444" cy="322" r="1.6" style="animation:twinkle 3.4s ease-in-out 4.0s infinite"/>
  <circle class="star" cx="519" cy="221" r="1.8" style="animation:twinkle 3.6s ease-in-out 5.9s infinite"/>
  <circle class="star" cx="631" cy="285" r="1.9" style="animation:twinkle 5.1s ease-in-out 4.1s infinite"/>
  <circle class="star" cx="607" cy="98" r="1.4" style="animation:twinkle 3.5s ease-in-out 2.2s infinite"/>
  <circle class="star" cx="849" cy="144" r="1.5" style="animation:twinkle 3.0s ease-in-out 1.0s infinite"/>
  <circle class="star" cx="875" cy="8" r="1.0" style="animation:twinkle 4.8s ease-in-out 4.9s infinite"/>
  <circle class="star" cx="631" cy="276" r="0.6" style="animation:twinkle 3.7s ease-in-out 6.0s infinite"/>
  <circle class="star" cx="191" cy="51" r="0.8" style="animation:twinkle 5.7s ease-in-out 3.3s infinite"/>
  <circle class="star" cx="207" cy="147" r="1.8" style="animation:twinkle 5.6s ease-in-out 4.3s infinite"/>
  <circle class="star" cx="988" cy="76" r="0.6" style="animation:twinkle 5.8s ease-in-out 2.1s infinite"/>
  <circle class="star" cx="466" cy="233" r="1.0" style="animation:twinkle 3.4s ease-in-out 0.5s infinite"/>
  <circle class="star" cx="828" cy="278" r="0.6" style="animation:twinkle 3.5s ease-in-out 1.3s infinite"/>
  <circle class="star" cx="116" cy="288" r="0.5" style="animation:twinkle 3.1s ease-in-out 4.7s infinite"/>
  <circle class="star" cx="108" cy="280" r="1.2" style="animation:twinkle 3.1s ease-in-out 0.4s infinite"/>
  <circle class="star" cx="165" cy="341" r="0.9" style="animation:twinkle 4.0s ease-in-out 4.9s infinite"/>
  <circle class="star" cx="939" cy="294" r="0.7" style="animation:twinkle 6.5s ease-in-out 5.0s infinite"/>
  <circle class="star" cx="85" cy="193" r="1.6" style="animation:twinkle 3.8s ease-in-out 3.4s infinite"/>
  <circle class="star" cx="226" cy="358" r="1.4" style="animation:twinkle 6.2s ease-in-out 4.1s infinite"/>
  <circle class="star" cx="990" cy="187" r="1.3" style="animation:twinkle 2.3s ease-in-out 0.4s infinite"/>
  <circle class="star" cx="1259" cy="178" r="0.9" style="animation:twinkle 5.5s ease-in-out 1.3s infinite"/>
  <circle class="star" cx="177" cy="113" r="1.4" style="animation:twinkle 5.0s ease-in-out 3.0s infinite"/>
  <circle class="star" cx="982" cy="138" r="1.8" style="animation:twinkle 3.8s ease-in-out 2.4s infinite"/>
  <circle class="star" cx="209" cy="173" r="1.6" style="animation:twinkle 3.1s ease-in-out 4.4s infinite"/>
  <circle class="star" cx="1088" cy="299" r="1.0" style="animation:twinkle 6.2s ease-in-out 3.7s infinite"/>
  <circle class="star" cx="820" cy="125" r="1.3" style="animation:twinkle 5.0s ease-in-out 0.8s infinite"/>
  <circle class="star" cx="561" cy="101" r="0.9" style="animation:twinkle 3.7s ease-in-out 3.8s infinite"/>
  <circle class="star" cx="1131" cy="11" r="1.3" style="animation:twinkle 5.0s ease-in-out 3.9s infinite"/>
  <circle class="star" cx="555" cy="172" r="1.0" style="animation:twinkle 4.2s ease-in-out 0.1s infinite"/>
  <circle class="star" cx="1231" cy="209" r="0.8" style="animation:twinkle 5.8s ease-in-out 3.7s infinite"/>
  <circle class="star" cx="701" cy="91" r="0.6" style="animation:twinkle 5.6s ease-in-out 4.9s infinite"/>
  <circle class="star" cx="848" cy="80" r="1.3" style="animation:twinkle 4.4s ease-in-out 3.5s infinite"/>
  <circle class="star" cx="900" cy="338" r="0.6" style="animation:twinkle 5.2s ease-in-out 5.3s infinite"/>
  <circle class="star" cx="594" cy="339" r="0.9" style="animation:twinkle 2.4s ease-in-out 0.8s infinite"/>
  <circle class="star" cx="180" cy="303" r="1.0" style="animation:twinkle 6.2s ease-in-out 3.2s infinite"/>
  <circle class="star" cx="1188" cy="281" r="1.7" style="animation:twinkle 4.9s ease-in-out 1.8s infinite"/>
  <circle class="star" cx="1202" cy="41" r="1.0" style="animation:twinkle 2.8s ease-in-out 5.2s infinite"/>
  <circle class="star" cx="1269" cy="45" r="1.0" style="animation:twinkle 3.6s ease-in-out 4.0s infinite"/>
  <circle class="star" cx="269" cy="304" r="1.7" style="animation:twinkle 6.2s ease-in-out 2.7s infinite"/>
  <circle class="star" cx="981" cy="79" r="1.8" style="animation:twinkle 5.7s ease-in-out 2.8s infinite"/>
  <circle class="star" cx="992" cy="17" r="1.0" style="animation:twinkle 6.2s ease-in-out 3.8s infinite"/>
  <circle class="star" cx="263" cy="333" r="0.8" style="animation:twinkle 5.4s ease-in-out 3.2s infinite"/>
  <circle class="star" cx="354" cy="151" r="1.5" style="animation:twinkle 3.2s ease-in-out 0.3s infinite"/>
  <circle class="star" cx="770" cy="129" r="0.8" style="animation:twinkle 6.5s ease-in-out 2.3s infinite"/>
  <circle class="star" cx="22" cy="134" r="1.9" style="animation:twinkle 6.4s ease-in-out 5.8s infinite"/>
  <circle class="star" cx="449" cy="272" r="1.0" style="animation:twinkle 3.8s ease-in-out 5.8s infinite"/>
  <circle class="star" cx="768" cy="179" r="0.6" style="animation:twinkle 5.0s ease-in-out 2.1s infinite"/>
  <circle class="star" cx="285" cy="174" r="1.9" style="animation:twinkle 6.0s ease-in-out 2.9s infinite"/>
  <circle class="star" cx="371" cy="89" r="1.8" style="animation:twinkle 4.2s ease-in-out 0.2s infinite"/>
  <circle class="star" cx="524" cy="10" r="1.0" style="animation:twinkle 4.7s ease-in-out 1.9s infinite"/>
  <circle class="star" cx="1146" cy="104" r="1.6" style="animation:twinkle 3.3s ease-in-out 2.6s infinite"/>
  <circle class="star" cx="989" cy="269" r="1.6" style="animation:twinkle 3.2s ease-in-out 0.1s infinite"/>
  <circle class="star" cx="179" cy="305" r="0.9" style="animation:twinkle 2.8s ease-in-out 0.9s infinite"/>
  <circle class="star" cx="604" cy="231" r="1.1" style="animation:twinkle 3.8s ease-in-out 2.1s infinite"/>
  <circle class="star" cx="1051" cy="30" r="1.6" style="animation:twinkle 5.9s ease-in-out 3.9s infinite"/>
  <circle class="star" cx="71" cy="144" r="0.6" style="animation:twinkle 3.5s ease-in-out 0.0s infinite"/>
  <circle class="star" cx="1041" cy="183" r="1.4" style="animation:twinkle 5.9s ease-in-out 5.5s infinite"/>
  <circle class="star" cx="1091" cy="185" r="1.5" style="animation:twinkle 3.6s ease-in-out 1.4s infinite"/>
  <circle class="star" cx="978" cy="19" r="0.6" style="animation:twinkle 4.7s ease-in-out 2.7s infinite"/>
  <circle class="star" cx="782" cy="266" r="1.7" style="animation:twinkle 3.3s ease-in-out 2.0s infinite"/>
  <circle class="star" cx="1212" cy="259" r="0.5" style="animation:twinkle 5.7s ease-in-out 0.8s infinite"/>
  <circle class="star" cx="773" cy="169" r="0.5" style="animation:twinkle 2.4s ease-in-out 3.4s infinite"/>
  <circle class="star" cx="22" cy="53" r="1.1" style="animation:twinkle 2.2s ease-in-out 2.2s infinite"/>
  <circle class="star" cx="554" cy="33" r="1.6" style="animation:twinkle 2.8s ease-in-out 4.4s infinite"/>
  <circle class="star" cx="394" cy="147" r="1.6" style="animation:twinkle 6.4s ease-in-out 6.0s infinite"/>
  <circle class="star" cx="726" cy="208" r="0.7" style="animation:twinkle 3.9s ease-in-out 3.7s infinite"/>
  <circle class="star" cx="162" cy="92" r="1.6" style="animation:twinkle 5.4s ease-in-out 4.9s infinite"/>
  <circle class="star" cx="215" cy="287" r="0.9" style="animation:twinkle 3.9s ease-in-out 4.9s infinite"/>
  <circle class="star" cx="619" cy="48" r="1.5" style="animation:twinkle 3.4s ease-in-out 4.5s infinite"/>
  <circle class="star" cx="442" cy="106" r="1.4" style="animation:twinkle 6.0s ease-in-out 2.5s infinite"/>
  <circle class="star" cx="404" cy="286" r="1.4" style="animation:twinkle 5.0s ease-in-out 3.4s infinite"/>
  <circle class="star" cx="142" cy="225" r="1.2" style="animation:twinkle 4.8s ease-in-out 0.8s infinite"/>
  <circle class="star" cx="154" cy="142" r="1.2" style="animation:twinkle 3.5s ease-in-out 3.8s infinite"/>
  <circle class="star" cx="340" cy="90" r="1.1" style="animation:twinkle 5.1s ease-in-out 2.1s infinite"/>
  <circle class="star" cx="687" cy="149" r="1.1" style="animation:twinkle 6.4s ease-in-out 2.0s infinite"/>
  <circle class="star" cx="761" cy="112" r="1.1" style="animation:twinkle 6.4s ease-in-out 0.3s infinite"/>
  <circle class="star" cx="715" cy="68" r="1.9" style="animation:twinkle 4.7s ease-in-out 0.6s infinite"/>
  <circle class="star" cx="529" cy="92" r="0.6" style="animation:twinkle 3.5s ease-in-out 0.3s infinite"/>
  <circle class="star" cx="1146" cy="296" r="1.7" style="animation:twinkle 5.0s ease-in-out 1.9s infinite"/>
  <circle class="star" cx="778" cy="210" r="1.1" style="animation:twinkle 4.6s ease-in-out 5.7s infinite"/>
  <circle class="star" cx="250" cy="333" r="1.9" style="animation:twinkle 2.9s ease-in-out 3.8s infinite"/>
  <circle class="star" cx="599" cy="61" r="0.7" style="animation:twinkle 6.4s ease-in-out 2.7s infinite"/>
  <circle class="star" cx="136" cy="230" r="1.8" style="animation:twinkle 3.4s ease-in-out 1.4s infinite"/>
  <circle class="star" cx="415" cy="142" r="1.8" style="animation:twinkle 6.1s ease-in-out 0.5s infinite"/>
  <circle class="star" cx="699" cy="52" r="1.7" style="animation:twinkle 5.8s ease-in-out 0.7s infinite"/>
  <circle class="star" cx="106" cy="101" r="1.9" style="animation:twinkle 5.6s ease-in-out 0.7s infinite"/>
  <circle class="star" cx="1203" cy="351" r="0.9" style="animation:twinkle 2.5s ease-in-out 6.0s infinite"/>
  <circle class="star" cx="515" cy="348" r="0.9" style="animation:twinkle 6.0s ease-in-out 0.3s infinite"/>
  <circle class="star" cx="61" cy="99" r="1.7" style="animation:twinkle 2.3s ease-in-out 2.5s infinite"/>
  <circle class="star" cx="222" cy="227" r="0.5" style="animation:twinkle 4.5s ease-in-out 1.8s infinite"/>
  <circle class="star" cx="515" cy="111" r="0.5" style="animation:twinkle 3.6s ease-in-out 0.7s infinite"/>
  <g style="animation:shoot 11.3s linear 1.2s infinite;opacity:0">
    <line x1="934" y1="-2" x2="1064" y2="-88"
      stroke="#E6EDF3" stroke-width="1.6" stroke-linecap="round" opacity=".8" filter="url(#soft)"/>
    <circle cx="934" cy="-2" r="2" fill="#fff"/>
  </g>
  <g style="animation:shoot 9.5s linear 3.8s infinite;opacity:0">
    <line x1="846" y1="108" x2="976" y2="22"
      stroke="#E6EDF3" stroke-width="1.6" stroke-linecap="round" opacity=".8" filter="url(#soft)"/>
    <circle cx="846" cy="108" r="2" fill="#fff"/>
  </g>
  <g style="animation:shoot 10.8s linear 5.4s infinite;opacity:0">
    <line x1="899" y1="95" x2="1029" y2="9"
      stroke="#E6EDF3" stroke-width="1.6" stroke-linecap="round" opacity=".8" filter="url(#soft)"/>
    <circle cx="899" cy="95" r="2" fill="#fff"/>
  </g>
  <g style="animation:shoot 9.9s linear 8.2s infinite;opacity:0">
    <line x1="846" y1="76" x2="976" y2="-10"
      stroke="#E6EDF3" stroke-width="1.6" stroke-linecap="round" opacity=".8" filter="url(#soft)"/>
    <circle cx="846" cy="76" r="2" fill="#fff"/>
  </g>
  <g>
    <line x1="0" y1="302" x2="1280" y2="302" stroke="url(#hairline)" stroke-width="1.4" opacity=".8"/>
    <line x1="640.0" y1="302" x2="-790" y2="450" stroke="#8B5CF6" stroke-opacity=".16" stroke-width="1"/><line x1="640.0" y1="302" x2="-680" y2="450" stroke="#8B5CF6" stroke-opacity=".16" stroke-width="1"/><line x1="640.0" y1="302" x2="-570" y2="450" stroke="#8B5CF6" stroke-opacity=".16" stroke-width="1"/><line x1="640.0" y1="302" x2="-460" y2="450" stroke="#8B5CF6" stroke-opacity=".16" stroke-width="1"/><line x1="640.0" y1="302" x2="-350" y2="450" stroke="#8B5CF6" stroke-opacity=".16" stroke-width="1"/><line x1="640.0" y1="302" x2="-240" y2="450" stroke="#8B5CF6" stroke-opacity=".16" stroke-width="1"/><line x1="640.0" y1="302" x2="-130" y2="450" stroke="#8B5CF6" stroke-opacity=".16" stroke-width="1"/><line x1="640.0" y1="302" x2="-20" y2="450" stroke="#8B5CF6" stroke-opacity=".16" stroke-width="1"/><line x1="640.0" y1="302" x2="90" y2="450" stroke="#8B5CF6" stroke-opacity=".16" stroke-width="1"/><line x1="640.0" y1="302" x2="200" y2="450" stroke="#8B5CF6" stroke-opacity=".16" stroke-width="1"/><line x1="640.0" y1="302" x2="310" y2="450" stroke="#8B5CF6" stroke-opacity=".16" stroke-width="1"/><line x1="640.0" y1="302" x2="420" y2="450" stroke="#8B5CF6" stroke-opacity=".16" stroke-width="1"/><line x1="640.0" y1="302" x2="530" y2="450" stroke="#8B5CF6" stroke-opacity=".16" stroke-width="1"/><line x1="640.0" y1="302" x2="640" y2="450" stroke="#8B5CF6" stroke-opacity=".16" stroke-width="1"/><line x1="640.0" y1="302" x2="750" y2="450" stroke="#8B5CF6" stroke-opacity=".16" stroke-width="1"/><line x1="640.0" y1="302" x2="860" y2="450" stroke="#8B5CF6" stroke-opacity=".16" stroke-width="1"/><line x1="640.0" y1="302" x2="970" y2="450" stroke="#8B5CF6" stroke-opacity=".16" stroke-width="1"/><line x1="640.0" y1="302" x2="1080" y2="450" stroke="#8B5CF6" stroke-opacity=".16" stroke-width="1"/><line x1="640.0" y1="302" x2="1190" y2="450" stroke="#8B5CF6" stroke-opacity=".16" stroke-width="1"/><line x1="640.0" y1="302" x2="1300" y2="450" stroke="#8B5CF6" stroke-opacity=".16" stroke-width="1"/><line x1="640.0" y1="302" x2="1410" y2="450" stroke="#8B5CF6" stroke-opacity=".16" stroke-width="1"/><line x1="640.0" y1="302" x2="1520" y2="450" stroke="#8B5CF6" stroke-opacity=".16" stroke-width="1"/><line x1="640.0" y1="302" x2="1630" y2="450" stroke="#8B5CF6" stroke-opacity=".16" stroke-width="1"/><line x1="640.0" y1="302" x2="1740" y2="450" stroke="#8B5CF6" stroke-opacity=".16" stroke-width="1"/><line x1="640.0" y1="302" x2="1850" y2="450" stroke="#8B5CF6" stroke-opacity=".16" stroke-width="1"/><line x1="640.0" y1="302" x2="1960" y2="450" stroke="#8B5CF6" stroke-opacity=".16" stroke-width="1"/><line x1="640.0" y1="302" x2="2070" y2="450" stroke="#8B5CF6" stroke-opacity=".16" stroke-width="1"/>
    <line x1="0" y1="306" x2="1280" y2="306" stroke="#22D3EE" stroke-opacity=".3" stroke-width="1" style="animation:gridFall 4.2s linear 0.0s infinite"/><line x1="0" y1="306" x2="1280" y2="306" stroke="#22D3EE" stroke-opacity=".3" stroke-width="1" style="animation:gridFall 4.2s linear 0.7s infinite"/><line x1="0" y1="306" x2="1280" y2="306" stroke="#22D3EE" stroke-opacity=".3" stroke-width="1" style="animation:gridFall 4.2s linear 1.4s infinite"/><line x1="0" y1="306" x2="1280" y2="306" stroke="#22D3EE" stroke-opacity=".3" stroke-width="1" style="animation:gridFall 4.2s linear 2.1s infinite"/><line x1="0" y1="306" x2="1280" y2="306" stroke="#22D3EE" stroke-opacity=".3" stroke-width="1" style="animation:gridFall 4.2s linear 2.8s infinite"/><line x1="0" y1="306" x2="1280" y2="306" stroke="#22D3EE" stroke-opacity=".3" stroke-width="1" style="animation:gridFall 4.2s linear 3.5s infinite"/>
  </g>
  <g style="animation:floaty 9s ease-in-out infinite">
    <g style="transform-origin:150px 168px;animation:spin 26s linear infinite">
      <circle cx="150" cy="168" r="66" fill="none" stroke="#8B5CF6" stroke-opacity=".5"
        stroke-width="1.6" stroke-dasharray="30 14"/>
      <circle cx="150" cy="168" r="94" fill="none" stroke="#22D3EE" stroke-opacity=".32"
        stroke-width="1.2" stroke-dasharray="4 10 44 10"/>
      <circle cx="216" cy="168" r="3.4" fill="#67E8F9" filter="url(#glow)"/>
    </g>
    <rect x="143" y="161" width="14" height="14" fill="none" stroke="#F472B6"
      stroke-width="1.6" transform="rotate(45 150 168)" opacity=".8"
      style="transform-origin:150px 168px;animation:spin 12s linear infinite"/>
  </g>
  <g style="animation:floaty 9s ease-in-out infinite">
    <g style="transform-origin:1130px 168px;animation:spinRev 26s linear infinite">
      <circle cx="1130" cy="168" r="66" fill="none" stroke="#8B5CF6" stroke-opacity=".5"
        stroke-width="1.6" stroke-dasharray="30 14"/>
      <circle cx="1130" cy="168" r="94" fill="none" stroke="#22D3EE" stroke-opacity=".32"
        stroke-width="1.2" stroke-dasharray="4 10 44 10"/>
      <circle cx="1196" cy="168" r="3.4" fill="#67E8F9" filter="url(#glow)"/>
    </g>
    <rect x="1123" y="161" width="14" height="14" fill="none" stroke="#F472B6"
      stroke-width="1.6" transform="rotate(45 1130 168)" opacity=".8"
      style="transform-origin:1130px 168px;animation:spinRev 12s linear infinite"/>
  </g>
  <g style="animation:floaty 10s ease-in-out infinite">
    <g transform="translate(248.0,208.0)"><path d="M6.6 0.0V-85.0H24.7L54.4 -49.4L84.0 -85.0H102.2V0.0H85.1V-59.6L54.4 -22.9L23.6 -59.5V0.0Z M124.3 0.0V-68.0Q124.3 -72.7 126.6 -76.5Q128.9 -80.4 132.8 -82.7Q136.6 -85.0 141.3 -85.0H192.2Q196.9 -85.0 200.8 -82.7Q204.6 -80.4 206.9 -76.5Q209.3 -72.7 209.3 -68.0V0.0H192.1V-28.0H141.3V0.0H124.3ZM141.3 -45.0H192.1V-67.1Q192.1 -67.5 191.9 -67.7Q191.7 -67.8 191.4 -67.8H142.0Q141.7 -67.8 141.5 -67.7Q141.3 -67.5 141.3 -67.1V-45.0Z M297.5 0.0 272.4 -30.0H294.7L315.5 -5.3V0.0ZM230.8 0.0V-84.8H298.6Q303.3 -84.8 307.2 -82.5Q311.0 -80.2 313.4 -76.3Q315.7 -72.5 315.7 -67.8V-45.4Q315.7 -40.8 313.4 -37.0Q311.0 -33.2 307.2 -30.9Q303.3 -28.6 298.6 -28.6L247.8 -28.4V0.0ZM248.5 -45.7H297.8Q298.1 -45.7 298.3 -45.8Q298.5 -46.0 298.5 -46.3V-67.1Q298.5 -67.5 298.3 -67.7Q298.1 -67.8 297.8 -67.8H248.5Q248.1 -67.8 247.9 -67.7Q247.8 -67.5 247.8 -67.1V-46.3Q247.8 -46.0 247.9 -45.8Q248.1 -45.7 248.5 -45.7Z M364.5 0.0 333.6 -85.0H351.7L371.2 -31.7L390.6 -85.0H406.7L426.3 -31.7L445.7 -85.0H463.8L432.9 0.0H419.7L398.6 -57.3L377.8 0.0Z M483.5 0.0V-68.0Q483.5 -72.7 485.8 -76.5Q488.1 -80.4 491.9 -82.7Q495.7 -85.0 500.5 -85.0H551.3Q556.0 -85.0 559.9 -82.7Q563.7 -80.4 566.1 -76.5Q568.4 -72.7 568.4 -68.0V0.0H551.2V-28.0H500.5V0.0H483.5ZM500.5 -45.0H551.2V-67.1Q551.2 -67.5 551.0 -67.7Q550.8 -67.8 550.5 -67.8H501.2Q500.8 -67.8 500.6 -67.7Q500.5 -67.5 500.5 -67.1V-45.0Z M622.2 0.0V-31.7L582.9 -85.0H603.1L630.7 -50.3L658.2 -85.0H678.6L639.3 -31.6V0.0Z M709.6 0.0Q705.0 0.0 701.1 -2.3Q697.2 -4.6 695.0 -8.4Q692.8 -12.3 692.8 -17.0V-24.2H709.7V-17.8Q709.7 -17.5 709.9 -17.3Q710.1 -17.1 710.3 -17.1H759.8Q760.0 -17.1 760.2 -17.3Q760.5 -17.5 760.5 -17.8V-33.3Q760.5 -33.5 760.2 -33.7Q760.0 -33.9 759.8 -33.9H709.6Q705.0 -33.9 701.1 -36.2Q697.2 -38.5 695.0 -42.4Q692.8 -46.3 692.8 -50.9V-68.0Q692.8 -72.7 695.0 -76.5Q697.2 -80.4 701.1 -82.7Q705.0 -85.0 709.6 -85.0H760.7Q765.3 -85.0 769.2 -82.7Q773.0 -80.4 775.4 -76.5Q777.7 -72.7 777.7 -68.0V-60.8H760.5V-67.1Q760.5 -67.5 760.2 -67.7Q760.0 -67.8 759.8 -67.8H710.3Q710.1 -67.8 709.9 -67.7Q709.7 -67.5 709.7 -67.1V-51.7Q709.7 -51.4 709.9 -51.3Q710.1 -51.1 710.3 -51.1H760.7Q765.3 -51.1 769.2 -48.8Q773.0 -46.5 775.4 -42.6Q777.7 -38.7 777.7 -34.1V-17.0Q777.7 -12.3 775.4 -8.4Q773.0 -4.6 769.2 -2.3Q765.3 0.0 760.7 0.0Z" fill="#8B5CF6" filter="url(#soft)" opacity=".85"/></g>
    <g transform="translate(248.0,208.0)"><path d="M6.6 0.0V-85.0H24.7L54.4 -49.4L84.0 -85.0H102.2V0.0H85.1V-59.6L54.4 -22.9L23.6 -59.5V0.0Z M124.3 0.0V-68.0Q124.3 -72.7 126.6 -76.5Q128.9 -80.4 132.8 -82.7Q136.6 -85.0 141.3 -85.0H192.2Q196.9 -85.0 200.8 -82.7Q204.6 -80.4 206.9 -76.5Q209.3 -72.7 209.3 -68.0V0.0H192.1V-28.0H141.3V0.0H124.3ZM141.3 -45.0H192.1V-67.1Q192.1 -67.5 191.9 -67.7Q191.7 -67.8 191.4 -67.8H142.0Q141.7 -67.8 141.5 -67.7Q141.3 -67.5 141.3 -67.1V-45.0Z M297.5 0.0 272.4 -30.0H294.7L315.5 -5.3V0.0ZM230.8 0.0V-84.8H298.6Q303.3 -84.8 307.2 -82.5Q311.0 -80.2 313.4 -76.3Q315.7 -72.5 315.7 -67.8V-45.4Q315.7 -40.8 313.4 -37.0Q311.0 -33.2 307.2 -30.9Q303.3 -28.6 298.6 -28.6L247.8 -28.4V0.0ZM248.5 -45.7H297.8Q298.1 -45.7 298.3 -45.8Q298.5 -46.0 298.5 -46.3V-67.1Q298.5 -67.5 298.3 -67.7Q298.1 -67.8 297.8 -67.8H248.5Q248.1 -67.8 247.9 -67.7Q247.8 -67.5 247.8 -67.1V-46.3Q247.8 -46.0 247.9 -45.8Q248.1 -45.7 248.5 -45.7Z M364.5 0.0 333.6 -85.0H351.7L371.2 -31.7L390.6 -85.0H406.7L426.3 -31.7L445.7 -85.0H463.8L432.9 0.0H419.7L398.6 -57.3L377.8 0.0Z M483.5 0.0V-68.0Q483.5 -72.7 485.8 -76.5Q488.1 -80.4 491.9 -82.7Q495.7 -85.0 500.5 -85.0H551.3Q556.0 -85.0 559.9 -82.7Q563.7 -80.4 566.1 -76.5Q568.4 -72.7 568.4 -68.0V0.0H551.2V-28.0H500.5V0.0H483.5ZM500.5 -45.0H551.2V-67.1Q551.2 -67.5 551.0 -67.7Q550.8 -67.8 550.5 -67.8H501.2Q500.8 -67.8 500.6 -67.7Q500.5 -67.5 500.5 -67.1V-45.0Z M622.2 0.0V-31.7L582.9 -85.0H603.1L630.7 -50.3L658.2 -85.0H678.6L639.3 -31.6V0.0Z M709.6 0.0Q705.0 0.0 701.1 -2.3Q697.2 -4.6 695.0 -8.4Q692.8 -12.3 692.8 -17.0V-24.2H709.7V-17.8Q709.7 -17.5 709.9 -17.3Q710.1 -17.1 710.3 -17.1H759.8Q760.0 -17.1 760.2 -17.3Q760.5 -17.5 760.5 -17.8V-33.3Q760.5 -33.5 760.2 -33.7Q760.0 -33.9 759.8 -33.9H709.6Q705.0 -33.9 701.1 -36.2Q697.2 -38.5 695.0 -42.4Q692.8 -46.3 692.8 -50.9V-68.0Q692.8 -72.7 695.0 -76.5Q697.2 -80.4 701.1 -82.7Q705.0 -85.0 709.6 -85.0H760.7Q765.3 -85.0 769.2 -82.7Q773.0 -80.4 775.4 -76.5Q777.7 -72.7 777.7 -68.0V-60.8H760.5V-67.1Q760.5 -67.5 760.2 -67.7Q760.0 -67.8 759.8 -67.8H710.3Q710.1 -67.8 709.9 -67.7Q709.7 -67.5 709.7 -67.1V-51.7Q709.7 -51.4 709.9 -51.3Q710.1 -51.1 710.3 -51.1H760.7Q765.3 -51.1 769.2 -48.8Q773.0 -46.5 775.4 -42.6Q777.7 -38.7 777.7 -34.1V-17.0Q777.7 -12.3 775.4 -8.4Q773.0 -4.6 769.2 -2.3Q765.3 0.0 760.7 0.0Z" fill="url(#titleGrad)" /></g>
    <g transform="translate(248.0,208.0)"><path d="M6.6 0.0V-85.0H24.7L54.4 -49.4L84.0 -85.0H102.2V0.0H85.1V-59.6L54.4 -22.9L23.6 -59.5V0.0Z M124.3 0.0V-68.0Q124.3 -72.7 126.6 -76.5Q128.9 -80.4 132.8 -82.7Q136.6 -85.0 141.3 -85.0H192.2Q196.9 -85.0 200.8 -82.7Q204.6 -80.4 206.9 -76.5Q209.3 -72.7 209.3 -68.0V0.0H192.1V-28.0H141.3V0.0H124.3ZM141.3 -45.0H192.1V-67.1Q192.1 -67.5 191.9 -67.7Q191.7 -67.8 191.4 -67.8H142.0Q141.7 -67.8 141.5 -67.7Q141.3 -67.5 141.3 -67.1V-45.0Z M297.5 0.0 272.4 -30.0H294.7L315.5 -5.3V0.0ZM230.8 0.0V-84.8H298.6Q303.3 -84.8 307.2 -82.5Q311.0 -80.2 313.4 -76.3Q315.7 -72.5 315.7 -67.8V-45.4Q315.7 -40.8 313.4 -37.0Q311.0 -33.2 307.2 -30.9Q303.3 -28.6 298.6 -28.6L247.8 -28.4V0.0ZM248.5 -45.7H297.8Q298.1 -45.7 298.3 -45.8Q298.5 -46.0 298.5 -46.3V-67.1Q298.5 -67.5 298.3 -67.7Q298.1 -67.8 297.8 -67.8H248.5Q248.1 -67.8 247.9 -67.7Q247.8 -67.5 247.8 -67.1V-46.3Q247.8 -46.0 247.9 -45.8Q248.1 -45.7 248.5 -45.7Z M364.5 0.0 333.6 -85.0H351.7L371.2 -31.7L390.6 -85.0H406.7L426.3 -31.7L445.7 -85.0H463.8L432.9 0.0H419.7L398.6 -57.3L377.8 0.0Z M483.5 0.0V-68.0Q483.5 -72.7 485.8 -76.5Q488.1 -80.4 491.9 -82.7Q495.7 -85.0 500.5 -85.0H551.3Q556.0 -85.0 559.9 -82.7Q563.7 -80.4 566.1 -76.5Q568.4 -72.7 568.4 -68.0V0.0H551.2V-28.0H500.5V0.0H483.5ZM500.5 -45.0H551.2V-67.1Q551.2 -67.5 551.0 -67.7Q550.8 -67.8 550.5 -67.8H501.2Q500.8 -67.8 500.6 -67.7Q500.5 -67.5 500.5 -67.1V-45.0Z M622.2 0.0V-31.7L582.9 -85.0H603.1L630.7 -50.3L658.2 -85.0H678.6L639.3 -31.6V0.0Z M709.6 0.0Q705.0 0.0 701.1 -2.3Q697.2 -4.6 695.0 -8.4Q692.8 -12.3 692.8 -17.0V-24.2H709.7V-17.8Q709.7 -17.5 709.9 -17.3Q710.1 -17.1 710.3 -17.1H759.8Q760.0 -17.1 760.2 -17.3Q760.5 -17.5 760.5 -17.8V-33.3Q760.5 -33.5 760.2 -33.7Q760.0 -33.9 759.8 -33.9H709.6Q705.0 -33.9 701.1 -36.2Q697.2 -38.5 695.0 -42.4Q692.8 -46.3 692.8 -50.9V-68.0Q692.8 -72.7 695.0 -76.5Q697.2 -80.4 701.1 -82.7Q705.0 -85.0 709.6 -85.0H760.7Q765.3 -85.0 769.2 -82.7Q773.0 -80.4 775.4 -76.5Q777.7 -72.7 777.7 -68.0V-60.8H760.5V-67.1Q760.5 -67.5 760.2 -67.7Q760.0 -67.8 759.8 -67.8H710.3Q710.1 -67.8 709.9 -67.7Q709.7 -67.5 709.7 -67.1V-51.7Q709.7 -51.4 709.9 -51.3Q710.1 -51.1 710.3 -51.1H760.7Q765.3 -51.1 769.2 -48.8Q773.0 -46.5 775.4 -42.6Q777.7 -38.7 777.7 -34.1V-17.0Q777.7 -12.3 775.4 -8.4Q773.0 -4.6 769.2 -2.3Q765.3 0.0 760.7 0.0Z" fill="url(#sheen)" /></g>
    <g opacity="0" style="animation:glitch 7s steps(1) infinite"><g transform="translate(248.0,208.0)"><path d="M6.6 0.0V-85.0H24.7L54.4 -49.4L84.0 -85.0H102.2V0.0H85.1V-59.6L54.4 -22.9L23.6 -59.5V0.0Z M124.3 0.0V-68.0Q124.3 -72.7 126.6 -76.5Q128.9 -80.4 132.8 -82.7Q136.6 -85.0 141.3 -85.0H192.2Q196.9 -85.0 200.8 -82.7Q204.6 -80.4 206.9 -76.5Q209.3 -72.7 209.3 -68.0V0.0H192.1V-28.0H141.3V0.0H124.3ZM141.3 -45.0H192.1V-67.1Q192.1 -67.5 191.9 -67.7Q191.7 -67.8 191.4 -67.8H142.0Q141.7 -67.8 141.5 -67.7Q141.3 -67.5 141.3 -67.1V-45.0Z M297.5 0.0 272.4 -30.0H294.7L315.5 -5.3V0.0ZM230.8 0.0V-84.8H298.6Q303.3 -84.8 307.2 -82.5Q311.0 -80.2 313.4 -76.3Q315.7 -72.5 315.7 -67.8V-45.4Q315.7 -40.8 313.4 -37.0Q311.0 -33.2 307.2 -30.9Q303.3 -28.6 298.6 -28.6L247.8 -28.4V0.0ZM248.5 -45.7H297.8Q298.1 -45.7 298.3 -45.8Q298.5 -46.0 298.5 -46.3V-67.1Q298.5 -67.5 298.3 -67.7Q298.1 -67.8 297.8 -67.8H248.5Q248.1 -67.8 247.9 -67.7Q247.8 -67.5 247.8 -67.1V-46.3Q247.8 -46.0 247.9 -45.8Q248.1 -45.7 248.5 -45.7Z M364.5 0.0 333.6 -85.0H351.7L371.2 -31.7L390.6 -85.0H406.7L426.3 -31.7L445.7 -85.0H463.8L432.9 0.0H419.7L398.6 -57.3L377.8 0.0Z M483.5 0.0V-68.0Q483.5 -72.7 485.8 -76.5Q488.1 -80.4 491.9 -82.7Q495.7 -85.0 500.5 -85.0H551.3Q556.0 -85.0 559.9 -82.7Q563.7 -80.4 566.1 -76.5Q568.4 -72.7 568.4 -68.0V0.0H551.2V-28.0H500.5V0.0H483.5ZM500.5 -45.0H551.2V-67.1Q551.2 -67.5 551.0 -67.7Q550.8 -67.8 550.5 -67.8H501.2Q500.8 -67.8 500.6 -67.7Q500.5 -67.5 500.5 -67.1V-45.0Z M622.2 0.0V-31.7L582.9 -85.0H603.1L630.7 -50.3L658.2 -85.0H678.6L639.3 -31.6V0.0Z M709.6 0.0Q705.0 0.0 701.1 -2.3Q697.2 -4.6 695.0 -8.4Q692.8 -12.3 692.8 -17.0V-24.2H709.7V-17.8Q709.7 -17.5 709.9 -17.3Q710.1 -17.1 710.3 -17.1H759.8Q760.0 -17.1 760.2 -17.3Q760.5 -17.5 760.5 -17.8V-33.3Q760.5 -33.5 760.2 -33.7Q760.0 -33.9 759.8 -33.9H709.6Q705.0 -33.9 701.1 -36.2Q697.2 -38.5 695.0 -42.4Q692.8 -46.3 692.8 -50.9V-68.0Q692.8 -72.7 695.0 -76.5Q697.2 -80.4 701.1 -82.7Q705.0 -85.0 709.6 -85.0H760.7Q765.3 -85.0 769.2 -82.7Q773.0 -80.4 775.4 -76.5Q777.7 -72.7 777.7 -68.0V-60.8H760.5V-67.1Q760.5 -67.5 760.2 -67.7Q760.0 -67.8 759.8 -67.8H710.3Q710.1 -67.8 709.9 -67.7Q709.7 -67.5 709.7 -67.1V-51.7Q709.7 -51.4 709.9 -51.3Q710.1 -51.1 710.3 -51.1H760.7Q765.3 -51.1 769.2 -48.8Q773.0 -46.5 775.4 -42.6Q777.7 -38.7 777.7 -34.1V-17.0Q777.7 -12.3 775.4 -8.4Q773.0 -4.6 769.2 -2.3Q765.3 0.0 760.7 0.0Z" fill="#22D3EE" /></g></g>
    <g opacity="0" style="animation:glitch 9s steps(1) 3.5s infinite"><g transform="translate(248.0,208.0)"><path d="M6.6 0.0V-85.0H24.7L54.4 -49.4L84.0 -85.0H102.2V0.0H85.1V-59.6L54.4 -22.9L23.6 -59.5V0.0Z M124.3 0.0V-68.0Q124.3 -72.7 126.6 -76.5Q128.9 -80.4 132.8 -82.7Q136.6 -85.0 141.3 -85.0H192.2Q196.9 -85.0 200.8 -82.7Q204.6 -80.4 206.9 -76.5Q209.3 -72.7 209.3 -68.0V0.0H192.1V-28.0H141.3V0.0H124.3ZM141.3 -45.0H192.1V-67.1Q192.1 -67.5 191.9 -67.7Q191.7 -67.8 191.4 -67.8H142.0Q141.7 -67.8 141.5 -67.7Q141.3 -67.5 141.3 -67.1V-45.0Z M297.5 0.0 272.4 -30.0H294.7L315.5 -5.3V0.0ZM230.8 0.0V-84.8H298.6Q303.3 -84.8 307.2 -82.5Q311.0 -80.2 313.4 -76.3Q315.7 -72.5 315.7 -67.8V-45.4Q315.7 -40.8 313.4 -37.0Q311.0 -33.2 307.2 -30.9Q303.3 -28.6 298.6 -28.6L247.8 -28.4V0.0ZM248.5 -45.7H297.8Q298.1 -45.7 298.3 -45.8Q298.5 -46.0 298.5 -46.3V-67.1Q298.5 -67.5 298.3 -67.7Q298.1 -67.8 297.8 -67.8H248.5Q248.1 -67.8 247.9 -67.7Q247.8 -67.5 247.8 -67.1V-46.3Q247.8 -46.0 247.9 -45.8Q248.1 -45.7 248.5 -45.7Z M364.5 0.0 333.6 -85.0H351.7L371.2 -31.7L390.6 -85.0H406.7L426.3 -31.7L445.7 -85.0H463.8L432.9 0.0H419.7L398.6 -57.3L377.8 0.0Z M483.5 0.0V-68.0Q483.5 -72.7 485.8 -76.5Q488.1 -80.4 491.9 -82.7Q495.7 -85.0 500.5 -85.0H551.3Q556.0 -85.0 559.9 -82.7Q563.7 -80.4 566.1 -76.5Q568.4 -72.7 568.4 -68.0V0.0H551.2V-28.0H500.5V0.0H483.5ZM500.5 -45.0H551.2V-67.1Q551.2 -67.5 551.0 -67.7Q550.8 -67.8 550.5 -67.8H501.2Q500.8 -67.8 500.6 -67.7Q500.5 -67.5 500.5 -67.1V-45.0Z M622.2 0.0V-31.7L582.9 -85.0H603.1L630.7 -50.3L658.2 -85.0H678.6L639.3 -31.6V0.0Z M709.6 0.0Q705.0 0.0 701.1 -2.3Q697.2 -4.6 695.0 -8.4Q692.8 -12.3 692.8 -17.0V-24.2H709.7V-17.8Q709.7 -17.5 709.9 -17.3Q710.1 -17.1 710.3 -17.1H759.8Q760.0 -17.1 760.2 -17.3Q760.5 -17.5 760.5 -17.8V-33.3Q760.5 -33.5 760.2 -33.7Q760.0 -33.9 759.8 -33.9H709.6Q705.0 -33.9 701.1 -36.2Q697.2 -38.5 695.0 -42.4Q692.8 -46.3 692.8 -50.9V-68.0Q692.8 -72.7 695.0 -76.5Q697.2 -80.4 701.1 -82.7Q705.0 -85.0 709.6 -85.0H760.7Q765.3 -85.0 769.2 -82.7Q773.0 -80.4 775.4 -76.5Q777.7 -72.7 777.7 -68.0V-60.8H760.5V-67.1Q760.5 -67.5 760.2 -67.7Q760.0 -67.8 759.8 -67.8H710.3Q710.1 -67.8 709.9 -67.7Q709.7 -67.5 709.7 -67.1V-51.7Q709.7 -51.4 709.9 -51.3Q710.1 -51.1 710.3 -51.1H760.7Q765.3 -51.1 769.2 -48.8Q773.0 -46.5 775.4 -42.6Q777.7 -38.7 777.7 -34.1V-17.0Q777.7 -12.3 775.4 -8.4Q773.0 -4.6 769.2 -2.3Q765.3 0.0 760.7 0.0Z" fill="#F472B6" /></g></g>
    <line x1="208" y1="234" x2="1072" y2="234"
      stroke="url(#hairline)" stroke-width="2"/>
    <rect x="635.0" y="229" width="10" height="10" fill="none" stroke="#67E8F9"
      stroke-width="1.6" transform="rotate(45 640.0 234)" style="animation:breathe 3s ease-in-out infinite"/>
  </g>
  <g class="mono" font-size="15" style="animation:floaty 10s ease-in-out infinite">
    <text x="640.0" y="96" text-anchor="middle" fill="#8B949E" letter-spacing="6">— 欢迎来到我的数字宇宙 —</text>
  </g>
  <g class="mono">
    <rect x="310.0" y="276" width="660" height="44" rx="22"
      fill="#0D1117" fill-opacity=".55" stroke="#8B5CF6" stroke-opacity=".45" stroke-width="1.2"/>
    <text x="334.0" y="307" font-size="17" fill="#34D399" font-weight="700">❯</text>
    <text x="646.0" y="307" text-anchor="middle" font-size="17" style="animation:phrase1 18s ease-in-out infinite;opacity:0"><tspan fill="#A78BFA">Vibe Coder</tspan><tspan fill="#8B949E"> · </tspan><tspan fill="#67E8F9">AI Alchemist</tspan><tspan fill="#8B949E"> · </tspan><tspan fill="#F472B6">Full-Stack Builder</tspan></text><text x="646.0" y="307" text-anchor="middle" font-size="17" style="animation:phrase2 18s ease-in-out infinite;opacity:0"><tspan fill="#F472B6">const</tspan><tspan fill="#E6EDF3"> future = </tspan><tspan fill="#F472B6">await</tspan><tspan fill="#67E8F9"> ai</tspan><tspan fill="#E6EDF3">.build(</tspan><tspan fill="#A78BFA">wildIdeas</tspan><tspan fill="#E6EDF3">)</tspan></text><text x="646.0" y="307" text-anchor="middle" font-size="17" style="animation:phrase3 18s ease-in-out infinite;opacity:0"><tspan fill="#67E8F9">AI × Creativity</tspan><tspan fill="#8B949E"> → </tspan><tspan fill="#34D399">Infinite Possibilities ∞</tspan></text>
    <rect x="936.0" y="292" width="9" height="20" fill="#67E8F9"
      style="animation:cursorBlink 1.1s steps(1) infinite"/>
  </g>
  <g opacity=".55">
    <path d="M-320,394.0 L-312,395.1 L-304,396.2 L-296,397.2 L-288,398.1 L-280,398.9 L-272,399.7 L-264,400.2 L-256,400.7 L-248,400.9 L-240,401.0 L-232,400.9 L-224,400.7 L-216,400.2 L-208,399.7 L-200,398.9 L-192,398.1 L-184,397.2 L-176,396.2 L-168,395.1 L-160,394.0 L-152,392.9 L-144,391.8 L-136,390.8 L-128,389.9 L-120,389.1 L-112,388.3 L-104,387.8 L-96,387.3 L-88,387.1 L-80,387.0 L-72,387.1 L-64,387.3 L-56,387.8 L-48,388.3 L-40,389.1 L-32,389.9 L-24,390.8 L-16,391.8 L-8,392.9 L0,394.0 L8,395.1 L16,396.2 L24,397.2 L32,398.1 L40,398.9 L48,399.7 L56,400.2 L64,400.7 L72,400.9 L80,401.0 L88,400.9 L96,400.7 L104,400.2 L112,399.7 L120,398.9 L128,398.1 L136,397.2 L144,396.2 L152,395.1 L160,394.0 L168,392.9 L176,391.8 L184,390.8 L192,389.9 L200,389.1 L208,388.3 L216,387.8 L224,387.3 L232,387.1 L240,387.0 L248,387.1 L256,387.3 L264,387.8 L272,388.3 L280,389.1 L288,389.9 L296,390.8 L304,391.8 L312,392.9 L320,394.0 L328,395.1 L336,396.2 L344,397.2 L352,398.1 L360,398.9 L368,399.7 L376,400.2 L384,400.7 L392,400.9 L400,401.0 L408,400.9 L416,400.7 L424,400.2 L432,399.7 L440,398.9 L448,398.1 L456,397.2 L464,396.2 L472,395.1 L480,394.0 L488,392.9 L496,391.8 L504,390.8 L512,389.9 L520,389.1 L528,388.3 L536,387.8 L544,387.3 L552,387.1 L560,387.0 L568,387.1 L576,387.3 L584,387.8 L592,388.3 L600,389.1 L608,389.9 L616,390.8 L624,391.8 L632,392.9 L640,394.0 L648,395.1 L656,396.2 L664,397.2 L672,398.1 L680,398.9 L688,399.7 L696,400.2 L704,400.7 L712,400.9 L720,401.0 L728,400.9 L736,400.7 L744,400.2 L752,399.7 L760,398.9 L768,398.1 L776,397.2 L784,396.2 L792,395.1 L800,394.0 L808,392.9 L816,391.8 L824,390.8 L832,389.9 L840,389.1 L848,388.3 L856,387.8 L864,387.3 L872,387.1 L880,387.0 L888,387.1 L896,387.3 L904,387.8 L912,388.3 L920,389.1 L928,389.9 L936,390.8 L944,391.8 L952,392.9 L960,394.0 L968,395.1 L976,396.2 L984,397.2 L992,398.1 L1000,398.9 L1008,399.7 L1016,400.2 L1024,400.7 L1032,400.9 L1040,401.0 L1048,400.9 L1056,400.7 L1064,400.2 L1072,399.7 L1080,398.9 L1088,398.1 L1096,397.2 L1104,396.2 L1112,395.1 L1120,394.0 L1128,392.9 L1136,391.8 L1144,390.8 L1152,389.9 L1160,389.1 L1168,388.3 L1176,387.8 L1184,387.3 L1192,387.1 L1200,387.0 L1208,387.1 L1216,387.3 L1224,387.8 L1232,388.3 L1240,389.1 L1248,389.9 L1256,390.8 L1264,391.8 L1272,392.9 L1280,394.0 L1288,395.1 L1296,396.2 L1304,397.2 L1312,398.1 L1320,398.9 L1328,399.7 L1336,400.2 L1344,400.7 L1352,400.9 L1360,401.0 L1368,400.9 L1376,400.7 L1384,400.2 L1392,399.7 L1400,398.9 L1408,398.1 L1416,397.2 L1424,396.2 L1432,395.1 L1440,394.0 L1448,392.9 L1456,391.8 L1464,390.8 L1472,389.9 L1480,389.1 L1488,388.3 L1496,387.8 L1504,387.3 L1512,387.1 L1520,387.0 L1528,387.1 L1536,387.3 L1544,387.8 L1552,388.3 L1560,389.1 L1568,389.9 L1576,390.8 L1584,391.8 L1592,392.9 L1600,394.0 L1608,395.1 L1616,396.2 L1624,397.2 L1632,398.1 L1640,398.9 L1648,399.7 L1656,400.2 L1664,400.7 L1672,400.9 L1680,401.0 L1688,400.9 L1696,400.7 L1704,400.2 L1712,399.7 L1720,398.9 L1728,398.1 L1736,397.2 L1744,396.2 L1752,395.1 L1760,394.0 L1768,392.9 L1776,391.8 L1784,390.8 L1792,389.9 L1800,389.1 L1808,388.3 L1816,387.8 L1824,387.3 L1832,387.1 L1840,387.0 L1848,387.1 L1856,387.3 L1864,387.8 L1872,388.3 L1880,389.1 L1888,389.9 L1896,390.8 L1904,391.8 L1912,392.9 L1920,394.0" fill="none" stroke="#22D3EE" stroke-width="1.6"
      style="animation:waveSlide 7s linear infinite"/>
    <path d="M-440,402.0 L-432,403.1 L-424,404.3 L-416,405.4 L-408,406.4 L-400,407.4 L-392,408.3 L-384,409.2 L-376,409.9 L-368,410.6 L-360,411.1 L-352,411.5 L-344,411.8 L-336,412.0 L-328,412.0 L-320,411.9 L-312,411.7 L-304,411.3 L-296,410.8 L-288,410.3 L-280,409.6 L-272,408.8 L-264,407.9 L-256,406.9 L-248,405.9 L-240,404.8 L-232,403.7 L-224,402.6 L-216,401.4 L-208,400.3 L-200,399.2 L-192,398.1 L-184,397.1 L-176,396.1 L-168,395.2 L-160,394.4 L-152,393.7 L-144,393.2 L-136,392.7 L-128,392.3 L-120,392.1 L-112,392.0 L-104,392.0 L-96,392.2 L-88,392.5 L-80,392.9 L-72,393.4 L-64,394.1 L-56,394.8 L-48,395.7 L-40,396.6 L-32,397.6 L-24,398.6 L-16,399.7 L-8,400.9 L0,402.0 L8,403.1 L16,404.3 L24,405.4 L32,406.4 L40,407.4 L48,408.3 L56,409.2 L64,409.9 L72,410.6 L80,411.1 L88,411.5 L96,411.8 L104,412.0 L112,412.0 L120,411.9 L128,411.7 L136,411.3 L144,410.8 L152,410.3 L160,409.6 L168,408.8 L176,407.9 L184,406.9 L192,405.9 L200,404.8 L208,403.7 L216,402.6 L224,401.4 L232,400.3 L240,399.2 L248,398.1 L256,397.1 L264,396.1 L272,395.2 L280,394.4 L288,393.7 L296,393.2 L304,392.7 L312,392.3 L320,392.1 L328,392.0 L336,392.0 L344,392.2 L352,392.5 L360,392.9 L368,393.4 L376,394.1 L384,394.8 L392,395.7 L400,396.6 L408,397.6 L416,398.6 L424,399.7 L432,400.9 L440,402.0 L448,403.1 L456,404.3 L464,405.4 L472,406.4 L480,407.4 L488,408.3 L496,409.2 L504,409.9 L512,410.6 L520,411.1 L528,411.5 L536,411.8 L544,412.0 L552,412.0 L560,411.9 L568,411.7 L576,411.3 L584,410.8 L592,410.3 L600,409.6 L608,408.8 L616,407.9 L624,406.9 L632,405.9 L640,404.8 L648,403.7 L656,402.6 L664,401.4 L672,400.3 L680,399.2 L688,398.1 L696,397.1 L704,396.1 L712,395.2 L720,394.4 L728,393.7 L736,393.2 L744,392.7 L752,392.3 L760,392.1 L768,392.0 L776,392.0 L784,392.2 L792,392.5 L800,392.9 L808,393.4 L816,394.1 L824,394.8 L832,395.7 L840,396.6 L848,397.6 L856,398.6 L864,399.7 L872,400.9 L880,402.0 L888,403.1 L896,404.3 L904,405.4 L912,406.4 L920,407.4 L928,408.3 L936,409.2 L944,409.9 L952,410.6 L960,411.1 L968,411.5 L976,411.8 L984,412.0 L992,412.0 L1000,411.9 L1008,411.7 L1016,411.3 L1024,410.8 L1032,410.3 L1040,409.6 L1048,408.8 L1056,407.9 L1064,406.9 L1072,405.9 L1080,404.8 L1088,403.7 L1096,402.6 L1104,401.4 L1112,400.3 L1120,399.2 L1128,398.1 L1136,397.1 L1144,396.1 L1152,395.2 L1160,394.4 L1168,393.7 L1176,393.2 L1184,392.7 L1192,392.3 L1200,392.1 L1208,392.0 L1216,392.0 L1224,392.2 L1232,392.5 L1240,392.9 L1248,393.4 L1256,394.1 L1264,394.8 L1272,395.7 L1280,396.6 L1288,397.6 L1296,398.6 L1304,399.7 L1312,400.9 L1320,402.0 L1328,403.1 L1336,404.3 L1344,405.4 L1352,406.4 L1360,407.4 L1368,408.3 L1376,409.2 L1384,409.9 L1392,410.6 L1400,411.1 L1408,411.5 L1416,411.8 L1424,412.0 L1432,412.0 L1440,411.9 L1448,411.7 L1456,411.3 L1464,410.8 L1472,410.3 L1480,409.6 L1488,408.8 L1496,407.9 L1504,406.9 L1512,405.9 L1520,404.8 L1528,403.7 L1536,402.6 L1544,401.4 L1552,400.3 L1560,399.2 L1568,398.1 L1576,397.1 L1584,396.1 L1592,395.2 L1600,394.4 L1608,393.7 L1616,393.2 L1624,392.7 L1632,392.3 L1640,392.1 L1648,392.0 L1656,392.0 L1664,392.2 L1672,392.5 L1680,392.9 L1688,393.4 L1696,394.1 L1704,394.8 L1712,395.7 L1720,396.6 L1728,397.6 L1736,398.6 L1744,399.7 L1752,400.9 L1760,402.0 L1768,403.1 L1776,404.3 L1784,405.4 L1792,406.4 L1800,407.4 L1808,408.3 L1816,409.2 L1824,409.9 L1832,410.6 L1840,411.1 L1848,411.5 L1856,411.8 L1864,412.0 L1872,412.0 L1880,411.9 L1888,411.7 L1896,411.3 L1904,410.8 L1912,410.3 L1920,409.6 L1928,408.8 L1936,407.9 L1944,406.9 L1952,405.9 L1960,404.8 L1968,403.7 L1976,402.6 L1984,401.4 L1992,400.3 L2000,399.2 L2008,398.1 L2016,397.1 L2024,396.1 L2032,395.2 L2040,394.4 L2048,393.7 L2056,393.2 L2064,392.7 L2072,392.3 L2080,392.1 L2088,392.0 L2096,392.0 L2104,392.2 L2112,392.5 L2120,392.9 L2128,393.4 L2136,394.1 L2144,394.8 L2152,395.7 L2160,396.6" fill="none" stroke="#8B5CF6" stroke-width="1.2"
      style="animation:waveSlide2 11s linear infinite"/>
  </g>
  <g>
    <path class="hud" d="M 26 62 L 26 26 L 62 26"/>
    <path class="hud" d="M 1254 358 L 1254 394 L 1218 394"/>
    <path class="hud" d="M 1218 26 L 1254 26 L 1254 62"/>
    <path class="hud" d="M 62 394 L 26 394 L 26 358"/>
    <g class="mono" font-size="12" fill="#8B949E" letter-spacing="2">
      <text x="44" y="34">SYS.ONLINE</text>
      <circle cx="36" cy="30" r="3" fill="#34D399" style="animation:breathe 2s ease-in-out infinite"/>
      <text x="1236" y="34" text-anchor="end">EST. 2023</text>
      <text x="44" y="390">GITHUB.COM/MARWAYS7</text>
      <text x="1236" y="390" text-anchor="end">OPEN SOURCE ∞</text>
    </g>
  </g>

  <rect x="1" y="1" width="1278" height="418" rx="17" fill="none"
    stroke="#8B5CF6" stroke-opacity=".4" stroke-width="1.5"/>
  <rect x="1" y="1" width="1278" height="418" rx="17" fill="none"
    stroke="#22D3EE" stroke-opacity=".5" stroke-width="1.5"
    stroke-dasharray="60 140" style="animation:dashFlow 6s linear infinite"/>
  </g>
</svg>
