<svg xmlns="http://www.w3.org/2000/svg" viewBox="0 0 1200 620" width="100%" height="auto" role="img" aria-label="Tech stack orbit">
  <defs>
    <style>
      @keyframes spinCW  { to { transform:rotate(360deg); } }
      @keyframes spinCCW { to { transform:rotate(-360deg); } }
      @keyframes corePulse {
        0%,100% { transform:scale(1); filter:drop-shadow(0 0 18px rgba(139,92,246,.7)); }
        50% { transform:scale(1.06); filter:drop-shadow(0 0 42px rgba(34,211,238,.9)); }
      }
      @keyframes twinkle { 0%,100% { opacity:.12; } 50% { opacity:.8; } }
      @keyframes breathe { 0%,100% { opacity:.5; } 50% { opacity:1; } }
      @keyframes arcFlow { to { stroke-dashoffset:-1200; } }
      .mono { font-family:ui-monospace,'SFMono-Regular','SF Mono','Cascadia Code','JetBrains Mono',Menlo,Consolas,monospace; }
      .orbitRing { fill:none; stroke:rgba(139,92,246,.22); stroke-width:1.4; stroke-dasharray:5 9; }
      .node { fill:#0D1117; stroke:rgba(167,139,250,.65); stroke-width:2;
               filter:drop-shadow(0 0 9px rgba(139,92,246,.45)); }
    </style>
    <linearGradient id="bgGrad" x1="0" y1="0" x2="1" y2="1">
      <stop offset="0" stop-color="#05060E"/>
      <stop offset=".5" stop-color="#0C0A22"/>
      <stop offset="1" stop-color="#071018"/>
    </linearGradient>
    <radialGradient id="coreGrad" cx="50%" cy="42%" r="60%">
      <stop offset="0" stop-color="#F472B6"/>
      <stop offset=".55" stop-color="#8B5CF6"/>
      <stop offset="1" stop-color="#0EA5B7"/>
    </radialGradient>
    <radialGradient id="vign" cx="50%" cy="50%" r="72%">
      <stop offset=".62" stop-color="#000" stop-opacity="0"/>
      <stop offset="1" stop-color="#000" stop-opacity=".55"/>
    </radialGradient>
    <radialGradient id="coreHalo" cx="50%" cy="50%" r="50%">
      <stop offset="0" stop-color="#8B5CF6" stop-opacity=".35"/>
      <stop offset="1" stop-color="#8B5CF6" stop-opacity="0"/>
    </radialGradient>
    <clipPath id="frame"><rect width="1200" height="620" rx="16"/></clipPath>
  </defs>

  <g clip-path="url(#frame)">
  <rect width="1200" height="620" fill="url(#bgGrad)"/>
  <circle cx="600.0" cy="300.0" r="360" fill="url(#coreHalo)"/>
<circle cx="766" cy="21" r="0.8" fill="#E6EDF3" style="animation:twinkle 3.3s ease-in-out 3.7s infinite"/><circle cx="810" cy="548" r="0.6" fill="#E6EDF3" style="animation:twinkle 4.0s ease-in-out 0.1s infinite"/><circle cx="266" cy="313" r="0.5" fill="#E6EDF3" style="animation:twinkle 3.2s ease-in-out 3.2s infinite"/><circle cx="653" cy="140" r="1.2" fill="#E6EDF3" style="animation:twinkle 5.3s ease-in-out 0.0s infinite"/><circle cx="963" cy="430" r="0.9" fill="#E6EDF3" style="animation:twinkle 3.0s ease-in-out 4.8s infinite"/><circle cx="406" cy="62" r="0.6" fill="#E6EDF3" style="animation:twinkle 5.5s ease-in-out 3.0s infinite"/><circle cx="965" cy="450" r="1.1" fill="#E6EDF3" style="animation:twinkle 5.9s ease-in-out 1.9s infinite"/><circle cx="662" cy="510" r="1.2" fill="#E6EDF3" style="animation:twinkle 5.5s ease-in-out 2.9s infinite"/><circle cx="843" cy="34" r="0.8" fill="#E6EDF3" style="animation:twinkle 3.5s ease-in-out 0.4s infinite"/><circle cx="283" cy="67" r="0.8" fill="#E6EDF3" style="animation:twinkle 4.7s ease-in-out 1.8s infinite"/><circle cx="446" cy="133" r="0.8" fill="#E6EDF3" style="animation:twinkle 5.8s ease-in-out 3.2s infinite"/><circle cx="730" cy="110" r="1.4" fill="#E6EDF3" style="animation:twinkle 3.1s ease-in-out 1.9s infinite"/><circle cx="1182" cy="395" r="1.2" fill="#E6EDF3" style="animation:twinkle 4.9s ease-in-out 4.2s infinite"/><circle cx="928" cy="145" r="0.5" fill="#E6EDF3" style="animation:twinkle 3.6s ease-in-out 1.3s infinite"/><circle cx="257" cy="579" r="1.6" fill="#E6EDF3" style="animation:twinkle 3.6s ease-in-out 3.3s infinite"/><circle cx="476" cy="562" r="1.1" fill="#E6EDF3" style="animation:twinkle 3.4s ease-in-out 1.2s infinite"/><circle cx="673" cy="166" r="1.2" fill="#E6EDF3" style="animation:twinkle 5.6s ease-in-out 2.0s infinite"/><circle cx="267" cy="613" r="1.1" fill="#E6EDF3" style="animation:twinkle 2.8s ease-in-out 0.2s infinite"/><circle cx="136" cy="387" r="1.5" fill="#E6EDF3" style="animation:twinkle 4.0s ease-in-out 0.3s infinite"/><circle cx="459" cy="612" r="1.1" fill="#E6EDF3" style="animation:twinkle 5.9s ease-in-out 4.3s infinite"/><circle cx="20" cy="444" r="1.3" fill="#E6EDF3" style="animation:twinkle 4.4s ease-in-out 1.3s infinite"/><circle cx="767" cy="74" r="1.0" fill="#E6EDF3" style="animation:twinkle 4.1s ease-in-out 4.8s infinite"/><circle cx="1047" cy="166" r="1.1" fill="#E6EDF3" style="animation:twinkle 3.1s ease-in-out 4.6s infinite"/><circle cx="1040" cy="187" r="1.3" fill="#E6EDF3" style="animation:twinkle 4.6s ease-in-out 0.8s infinite"/><circle cx="912" cy="334" r="1.4" fill="#E6EDF3" style="animation:twinkle 4.4s ease-in-out 0.0s infinite"/><circle cx="391" cy="18" r="1.6" fill="#E6EDF3" style="animation:twinkle 5.6s ease-in-out 4.2s infinite"/><circle cx="371" cy="41" r="1.6" fill="#E6EDF3" style="animation:twinkle 5.8s ease-in-out 0.4s infinite"/><circle cx="583" cy="48" r="1.4" fill="#E6EDF3" style="animation:twinkle 5.2s ease-in-out 0.6s infinite"/><circle cx="571" cy="340" r="0.8" fill="#E6EDF3" style="animation:twinkle 5.6s ease-in-out 2.1s infinite"/><circle cx="258" cy="334" r="1.4" fill="#E6EDF3" style="animation:twinkle 3.2s ease-in-out 1.6s infinite"/><circle cx="1188" cy="401" r="1.0" fill="#E6EDF3" style="animation:twinkle 4.3s ease-in-out 0.6s infinite"/><circle cx="273" cy="212" r="1.2" fill="#E6EDF3" style="animation:twinkle 3.3s ease-in-out 1.1s infinite"/><circle cx="90" cy="390" r="0.8" fill="#E6EDF3" style="animation:twinkle 5.7s ease-in-out 4.3s infinite"/><circle cx="90" cy="151" r="1.3" fill="#E6EDF3" style="animation:twinkle 3.2s ease-in-out 0.7s infinite"/><circle cx="1117" cy="353" r="1.1" fill="#E6EDF3" style="animation:twinkle 5.2s ease-in-out 4.0s infinite"/><circle cx="232" cy="65" r="1.0" fill="#E6EDF3" style="animation:twinkle 4.0s ease-in-out 2.3s infinite"/><circle cx="872" cy="415" r="1.7" fill="#E6EDF3" style="animation:twinkle 2.8s ease-in-out 2.0s infinite"/><circle cx="409" cy="530" r="0.8" fill="#E6EDF3" style="animation:twinkle 3.2s ease-in-out 2.2s infinite"/><circle cx="507" cy="175" r="0.8" fill="#E6EDF3" style="animation:twinkle 5.7s ease-in-out 2.2s infinite"/><circle cx="1029" cy="341" r="0.6" fill="#E6EDF3" style="animation:twinkle 6.0s ease-in-out 4.2s infinite"/><circle cx="1157" cy="569" r="1.5" fill="#E6EDF3" style="animation:twinkle 3.1s ease-in-out 2.4s infinite"/><circle cx="260" cy="250" r="0.6" fill="#E6EDF3" style="animation:twinkle 3.8s ease-in-out 4.9s infinite"/><circle cx="321" cy="483" r="1.0" fill="#E6EDF3" style="animation:twinkle 4.0s ease-in-out 4.8s infinite"/><circle cx="1189" cy="344" r="1.4" fill="#E6EDF3" style="animation:twinkle 3.0s ease-in-out 1.5s infinite"/><circle cx="1157" cy="358" r="1.2" fill="#E6EDF3" style="animation:twinkle 5.1s ease-in-out 0.3s infinite"/><circle cx="700" cy="312" r="1.5" fill="#E6EDF3" style="animation:twinkle 3.1s ease-in-out 4.8s infinite"/><circle cx="101" cy="119" r="1.2" fill="#E6EDF3" style="animation:twinkle 4.9s ease-in-out 1.2s infinite"/><circle cx="148" cy="547" r="0.8" fill="#E6EDF3" style="animation:twinkle 4.6s ease-in-out 3.1s infinite"/><circle cx="504" cy="361" r="1.1" fill="#E6EDF3" style="animation:twinkle 5.8s ease-in-out 1.0s infinite"/><circle cx="857" cy="151" r="1.0" fill="#E6EDF3" style="animation:twinkle 4.9s ease-in-out 1.5s infinite"/><circle cx="382" cy="463" r="0.6" fill="#E6EDF3" style="animation:twinkle 4.1s ease-in-out 5.0s infinite"/><circle cx="1189" cy="51" r="0.8" fill="#E6EDF3" style="animation:twinkle 3.4s ease-in-out 4.7s infinite"/><circle cx="1052" cy="541" r="0.9" fill="#E6EDF3" style="animation:twinkle 3.1s ease-in-out 4.2s infinite"/><circle cx="842" cy="378" r="1.7" fill="#E6EDF3" style="animation:twinkle 4.8s ease-in-out 0.0s infinite"/><circle cx="977" cy="188" r="1.3" fill="#E6EDF3" style="animation:twinkle 5.8s ease-in-out 0.7s infinite"/><circle cx="143" cy="71" r="1.2" fill="#E6EDF3" style="animation:twinkle 3.5s ease-in-out 3.0s infinite"/><circle cx="859" cy="130" r="1.3" fill="#E6EDF3" style="animation:twinkle 3.4s ease-in-out 2.4s infinite"/><circle cx="1082" cy="520" r="0.6" fill="#E6EDF3" style="animation:twinkle 4.0s ease-in-out 1.4s infinite"/><circle cx="10" cy="475" r="1.3" fill="#E6EDF3" style="animation:twinkle 3.4s ease-in-out 3.7s infinite"/><circle cx="661" cy="266" r="0.5" fill="#E6EDF3" style="animation:twinkle 2.8s ease-in-out 4.4s infinite"/><circle cx="1080" cy="338" r="1.5" fill="#E6EDF3" style="animation:twinkle 4.5s ease-in-out 0.7s infinite"/><circle cx="157" cy="193" r="1.6" fill="#E6EDF3" style="animation:twinkle 5.3s ease-in-out 4.3s infinite"/><circle cx="1074" cy="134" r="0.8" fill="#E6EDF3" style="animation:twinkle 2.9s ease-in-out 3.9s infinite"/><circle cx="1056" cy="253" r="1.2" fill="#E6EDF3" style="animation:twinkle 3.0s ease-in-out 4.6s infinite"/><circle cx="1033" cy="600" r="1.5" fill="#E6EDF3" style="animation:twinkle 5.6s ease-in-out 0.1s infinite"/><circle cx="881" cy="208" r="1.6" fill="#E6EDF3" style="animation:twinkle 5.3s ease-in-out 4.3s infinite"/><circle cx="969" cy="168" r="1.4" fill="#E6EDF3" style="animation:twinkle 2.9s ease-in-out 4.4s infinite"/><circle cx="1026" cy="141" r="1.5" fill="#E6EDF3" style="animation:twinkle 4.1s ease-in-out 1.5s infinite"/><circle cx="951" cy="144" r="0.5" fill="#E6EDF3" style="animation:twinkle 3.2s ease-in-out 1.6s infinite"/><circle cx="1033" cy="594" r="0.8" fill="#E6EDF3" style="animation:twinkle 4.7s ease-in-out 2.0s infinite"/>
  <g style="transform-origin:600.0px 300.0px;transform:rotate(14deg)">
    <ellipse cx="600.0" cy="300.0" rx="218" ry="74" class="orbitRing"/>
    <ellipse cx="600.0" cy="300.0" rx="218" ry="74" fill="none" stroke="rgba(34,211,238,.6)"
      stroke-width="2" stroke-dasharray="90 1023" stroke-linecap="round"
      style="animation:arcFlow 29s linear infinite"/>
    <g style="transform-origin:600.0px 300.0px;animation:spinCW 26s linear infinite">
      <g style="transform-origin:818.0px 300.0px;animation:spinCCW 26s linear infinite">
        <g style="transform-origin:818.0px 300.0px;transform:rotate(-14deg)">
          <circle cx="818.0" cy="300.0" r="27" class="node"/>
          <g transform="translate(798.0,280.0) scale(0.3125) translate(-0.0,-0.0)"><linearGradient id="python-original-a" gradientUnits="userSpaceOnUse" x1="70.252" y1="1237.476" x2="170.659" y2="1151.089" gradientTransform="matrix(.563 0 0 -.568 -29.215 707.817)"><stop offset="0" stop-color="#5A9FD4"/><stop offset="1" stop-color="#306998"/></linearGradient><linearGradient id="python-original-b" gradientUnits="userSpaceOnUse" x1="209.474" y1="1098.811" x2="173.62" y2="1149.537" gradientTransform="matrix(.563 0 0 -.568 -29.215 707.817)"><stop offset="0" stop-color="#FFD43B"/><stop offset="1" stop-color="#FFE873"/></linearGradient><path fill="url(#python-original-a)" d="M63.391 1.988c-4.222.02-8.252.379-11.8 1.007-10.45 1.846-12.346 5.71-12.346 12.837v9.411h24.693v3.137H29.977c-7.176 0-13.46 4.313-15.426 12.521-2.268 9.405-2.368 15.275 0 25.096 1.755 7.311 5.947 12.519 13.124 12.519h8.491V67.234c0-8.151 7.051-15.34 15.426-15.34h24.665c6.866 0 12.346-5.654 12.346-12.548V15.833c0-6.693-5.646-11.72-12.346-12.837-4.244-.706-8.645-1.027-12.866-1.008zM50.037 9.557c2.55 0 4.634 2.117 4.634 4.721 0 2.593-2.083 4.69-4.634 4.69-2.56 0-4.633-2.097-4.633-4.69-.001-2.604 2.073-4.721 4.633-4.721z" transform="translate(0 10.26)"/><path fill="url(#python-original-b)" d="M91.682 28.38v10.966c0 8.5-7.208 15.655-15.426 15.655H51.591c-6.756 0-12.346 5.783-12.346 12.549v23.515c0 6.691 5.818 10.628 12.346 12.547 7.816 2.297 15.312 2.713 24.665 0 6.216-1.801 12.346-5.423 12.346-12.547v-9.412H63.938v-3.138h37.012c7.176 0 9.852-5.005 12.348-12.519 2.578-7.735 2.467-15.174 0-25.096-1.774-7.145-5.161-12.521-12.348-12.521h-9.268zM77.809 87.927c2.561 0 4.634 2.097 4.634 4.692 0 2.602-2.074 4.719-4.634 4.719-2.55 0-4.633-2.117-4.633-4.719 0-2.595 2.083-4.692 4.633-4.692z" transform="translate(0 10.26)"/><radialGradient id="python-original-c" cx="1825.678" cy="444.45" r="26.743" gradientTransform="matrix(0 -.24 -1.055 0 532.979 557.576)" gradientUnits="userSpaceOnUse"><stop offset="0" stop-color="#B8B8B8" stop-opacity=".498"/><stop offset="1" stop-color="#7F7F7F" stop-opacity="0"/></radialGradient><path opacity=".444" fill="url(#python-original-c)" d="M97.309 119.597c0 3.543-14.816 6.416-33.091 6.416-18.276 0-33.092-2.873-33.092-6.416 0-3.544 14.815-6.417 33.092-6.417 18.275 0 33.091 2.872 33.091 6.417z"/></g>
        </g>
      </g>
      <g style="transform-origin:709.0px 364.1px;animation:spinCCW 26s linear infinite">
        <g style="transform-origin:709.0px 364.1px;transform:rotate(-14deg)">
          <circle cx="709.0" cy="364.1" r="27" class="node"/>
          <g transform="translate(689.0,344.1) scale(0.3125) translate(-0.0,-0.0)"><path fill="#fff" d="M22.67 47h99.67v73.67H22.67z"/><path data-name="original" fill="#007acc" d="M1.5 63.91v62.5h125v-125H1.5zm100.73-5a15.56 15.56 0 017.82 4.5 20.58 20.58 0 013 4c0 .16-5.4 3.81-8.69 5.85-.12.08-.6-.44-1.13-1.23a7.09 7.09 0 00-5.87-3.53c-3.79-.26-6.23 1.73-6.21 5a4.58 4.58 0 00.54 2.34c.83 1.73 2.38 2.76 7.24 4.86 8.95 3.85 12.78 6.39 15.16 10 2.66 4 3.25 10.46 1.45 15.24-2 5.2-6.9 8.73-13.83 9.9a38.32 38.32 0 01-9.52-.1 23 23 0 01-12.72-6.63c-1.15-1.27-3.39-4.58-3.25-4.82a9.34 9.34 0 011.15-.73L82 101l3.59-2.08.75 1.11a16.78 16.78 0 004.74 4.54c4 2.1 9.46 1.81 12.16-.62a5.43 5.43 0 00.69-6.92c-1-1.39-3-2.56-8.59-5-6.45-2.78-9.23-4.5-11.77-7.24a16.48 16.48 0 01-3.43-6.25 25 25 0 01-.22-8c1.33-6.23 6-10.58 12.82-11.87a31.66 31.66 0 019.49.26zm-29.34 5.24v5.12H56.66v46.23H45.15V69.26H28.88v-5a49.19 49.19 0 01.12-5.17C29.08 59 39 59 51 59h21.83z"/></g>
        </g>
      </g>
      <g style="transform-origin:491.0px 364.1px;animation:spinCCW 26s linear infinite">
        <g style="transform-origin:491.0px 364.1px;transform:rotate(-14deg)">
          <circle cx="491.0" cy="364.1" r="27" class="node"/>
          <g transform="translate(471.0,344.1) scale(0.3125) translate(-0.0,-0.0)"><path fill="#F0DB4F" d="M1.408 1.408h125.184v125.185H1.408z"/><path fill="#323330" d="M116.347 96.736c-.917-5.711-4.641-10.508-15.672-14.981-3.832-1.761-8.104-3.022-9.377-5.926-.452-1.69-.512-2.642-.226-3.665.821-3.32 4.784-4.355 7.925-3.403 2.023.678 3.938 2.237 5.093 4.724 5.402-3.498 5.391-3.475 9.163-5.879-1.381-2.141-2.118-3.129-3.022-4.045-3.249-3.629-7.676-5.498-14.756-5.355l-3.688.477c-3.534.893-6.902 2.748-8.877 5.235-5.926 6.724-4.236 18.492 2.975 23.335 7.104 5.332 17.54 6.545 18.873 11.531 1.297 6.104-4.486 8.08-10.234 7.378-4.236-.881-6.592-3.034-9.139-6.949-4.688 2.713-4.688 2.713-9.508 5.485 1.143 2.499 2.344 3.63 4.26 5.795 9.068 9.198 31.76 8.746 35.83-5.176.165-.478 1.261-3.666.38-8.581zM69.462 58.943H57.753l-.048 30.272c0 6.438.333 12.34-.714 14.149-1.713 3.558-6.152 3.117-8.175 2.427-2.059-1.012-3.106-2.451-4.319-4.485-.333-.584-.583-1.036-.667-1.071l-9.52 5.83c1.583 3.249 3.915 6.069 6.902 7.901 4.462 2.678 10.459 3.499 16.731 2.059 4.082-1.189 7.604-3.652 9.448-7.401 2.666-4.915 2.094-10.864 2.07-17.444.06-10.735.001-21.468.001-32.237z"/></g>
        </g>
      </g>
      <g style="transform-origin:382.0px 300.0px;animation:spinCCW 26s linear infinite">
        <g style="transform-origin:382.0px 300.0px;transform:rotate(-14deg)">
          <circle cx="382.0" cy="300.0" r="27" class="node"/>
          <g transform="translate(362.0,280.0) scale(0.3125) translate(-0.0,-0.0)"><g fill="#61DAFB"><circle cx="64" cy="64" r="11.4"/><path d="M107.3 45.2c-2.2-.8-4.5-1.6-6.9-2.3.6-2.4 1.1-4.8 1.5-7.1 2.1-13.2-.2-22.5-6.6-26.1-1.9-1.1-4-1.6-6.4-1.6-7 0-15.9 5.2-24.9 13.9-9-8.7-17.9-13.9-24.9-13.9-2.4 0-4.5.5-6.4 1.6-6.4 3.7-8.7 13-6.6 26.1.4 2.3.9 4.7 1.5 7.1-2.4.7-4.7 1.4-6.9 2.3C8.2 50 1.4 56.6 1.4 64s6.9 14 19.3 18.8c2.2.8 4.5 1.6 6.9 2.3-.6 2.4-1.1 4.8-1.5 7.1-2.1 13.2.2 22.5 6.6 26.1 1.9 1.1 4 1.6 6.4 1.6 7.1 0 16-5.2 24.9-13.9 9 8.7 17.9 13.9 24.9 13.9 2.4 0 4.5-.5 6.4-1.6 6.4-3.7 8.7-13 6.6-26.1-.4-2.3-.9-4.7-1.5-7.1 2.4-.7 4.7-1.4 6.9-2.3 12.5-4.8 19.3-11.4 19.3-18.8s-6.8-14-19.3-18.8zM92.5 14.7c4.1 2.4 5.5 9.8 3.8 20.3-.3 2.1-.8 4.3-1.4 6.6-5.2-1.2-10.7-2-16.5-2.5-3.4-4.8-6.9-9.1-10.4-13 7.4-7.3 14.9-12.3 21-12.3 1.3 0 2.5.3 3.5.9zM81.3 74c-1.8 3.2-3.9 6.4-6.1 9.6-3.7.3-7.4.4-11.2.4-3.9 0-7.6-.1-11.2-.4-2.2-3.2-4.2-6.4-6-9.6-1.9-3.3-3.7-6.7-5.3-10 1.6-3.3 3.4-6.7 5.3-10 1.8-3.2 3.9-6.4 6.1-9.6 3.7-.3 7.4-.4 11.2-.4 3.9 0 7.6.1 11.2.4 2.2 3.2 4.2 6.4 6 9.6 1.9 3.3 3.7 6.7 5.3 10-1.7 3.3-3.4 6.6-5.3 10zm8.3-3.3c1.5 3.5 2.7 6.9 3.8 10.3-3.4.8-7 1.4-10.8 1.9 1.2-1.9 2.5-3.9 3.6-6 1.2-2.1 2.3-4.2 3.4-6.2zM64 97.8c-2.4-2.6-4.7-5.4-6.9-8.3 2.3.1 4.6.2 6.9.2 2.3 0 4.6-.1 6.9-.2-2.2 2.9-4.5 5.7-6.9 8.3zm-18.6-15c-3.8-.5-7.4-1.1-10.8-1.9 1.1-3.3 2.3-6.8 3.8-10.3 1.1 2 2.2 4.1 3.4 6.1 1.2 2.2 2.4 4.1 3.6 6.1zm-7-25.5c-1.5-3.5-2.7-6.9-3.8-10.3 3.4-.8 7-1.4 10.8-1.9-1.2 1.9-2.5 3.9-3.6 6-1.2 2.1-2.3 4.2-3.4 6.2zM64 30.2c2.4 2.6 4.7 5.4 6.9 8.3-2.3-.1-4.6-.2-6.9-.2-2.3 0-4.6.1-6.9.2 2.2-2.9 4.5-5.7 6.9-8.3zm22.2 21l-3.6-6c3.8.5 7.4 1.1 10.8 1.9-1.1 3.3-2.3 6.8-3.8 10.3-1.1-2.1-2.2-4.2-3.4-6.2zM31.7 35c-1.7-10.5-.3-17.9 3.8-20.3 1-.6 2.2-.9 3.5-.9 6 0 13.5 4.9 21 12.3-3.5 3.8-7 8.2-10.4 13-5.8.5-11.3 1.4-16.5 2.5-.6-2.3-1-4.5-1.4-6.6zM7 64c0-4.7 5.7-9.7 15.7-13.4 2-.8 4.2-1.5 6.4-2.1 1.6 5 3.6 10.3 6 15.6-2.4 5.3-4.5 10.5-6 15.5C15.3 75.6 7 69.6 7 64zm28.5 49.3c-4.1-2.4-5.5-9.8-3.8-20.3.3-2.1.8-4.3 1.4-6.6 5.2 1.2 10.7 2 16.5 2.5 3.4 4.8 6.9 9.1 10.4 13-7.4 7.3-14.9 12.3-21 12.3-1.3 0-2.5-.3-3.5-.9zM96.3 93c1.7 10.5.3 17.9-3.8 20.3-1 .6-2.2.9-3.5.9-6 0-13.5-4.9-21-12.3 3.5-3.8 7-8.2 10.4-13 5.8-.5 11.3-1.4 16.5-2.5.6 2.3 1 4.5 1.4 6.6zm9-15.6c-2 .8-4.2 1.5-6.4 2.1-1.6-5-3.6-10.3-6-15.6 2.4-5.3 4.5-10.5 6-15.5 13.8 4 22.1 10 22.1 15.6 0 4.7-5.8 9.7-15.7 13.4z"/></g></g>
        </g>
      </g>
      <g style="transform-origin:491.0px 235.9px;animation:spinCCW 26s linear infinite">
        <g style="transform-origin:491.0px 235.9px;transform:rotate(-14deg)">
          <circle cx="491.0" cy="235.9" r="27" class="node"/>
          <g transform="translate(471.0,215.9) scale(0.3125) translate(-0.0,-0.0)"><path fill="#E44D26" d="M19.037 113.876L9.032 1.661h109.936l-10.016 112.198-45.019 12.48z"/><path fill="#F16529" d="M64 116.8l36.378-10.086 8.559-95.878H64z"/><path fill="#EBEBEB" d="M64 52.455H45.788L44.53 38.361H64V24.599H29.489l.33 3.692 3.382 37.927H64zm0 35.743l-.061.017-15.327-4.14-.979-10.975H33.816l1.928 21.609 28.193 7.826.063-.017z"/><path fill="#fff" d="M63.952 52.455v13.763h16.947l-1.597 17.849-15.35 4.143v14.319l28.215-7.82.207-2.325 3.234-36.233.335-3.696h-3.708zm0-27.856v13.762h33.244l.276-3.092.628-6.978.329-3.692z"/></g>
        </g>
      </g>
      <g style="transform-origin:709.0px 235.9px;animation:spinCCW 26s linear infinite">
        <g style="transform-origin:709.0px 235.9px;transform:rotate(-14deg)">
          <circle cx="709.0" cy="235.9" r="27" class="node"/>
          <g transform="translate(689.0,215.9) scale(0.3125) translate(-0.0,-0.0)"><path fill="#1572B6" d="M18.814 114.123L8.76 1.352h110.48l-10.064 112.754-45.243 12.543-45.119-12.526z"/><path fill="#33A9DC" d="M64.001 117.062l36.559-10.136 8.601-96.354h-45.16v106.49z"/><path fill="#fff" d="M64.001 51.429h18.302l1.264-14.163H64.001V23.435h34.682l-.332 3.711-3.4 38.114h-30.95V51.429z"/><path fill="#EBEBEB" d="M64.083 87.349l-.061.018-15.403-4.159-.985-11.031H33.752l1.937 21.717 28.331 7.863.063-.018v-14.39z"/><path fill="#fff" d="M81.127 64.675l-1.666 18.522-15.426 4.164v14.39l28.354-7.858.208-2.337 2.406-26.881H81.127z"/><path fill="#EBEBEB" d="M64.048 23.435v13.831H30.64l-.277-3.108-.63-7.012-.331-3.711h34.646zm-.047 27.996v13.831H48.792l-.277-3.108-.631-7.012-.33-3.711h16.447z"/></g>
        </g>
      </g>
    </g>
  </g>
  <g style="transform-origin:600.0px 300.0px;transform:rotate(-10deg)">
    <ellipse cx="600.0" cy="300.0" rx="375" ry="122" class="orbitRing"/>
    <ellipse cx="600.0" cy="300.0" rx="375" ry="122" fill="none" stroke="rgba(34,211,238,.6)"
      stroke-width="2" stroke-dasharray="90 1752" stroke-linecap="round"
      style="animation:arcFlow 44s linear infinite"/>
    <g style="transform-origin:600.0px 300.0px;animation:spinCCW 40s linear infinite">
      <g style="transform-origin:975.0px 300.0px;animation:spinCW 40s linear infinite">
        <g style="transform-origin:975.0px 300.0px;transform:rotate(10deg)">
          <circle cx="975.0" cy="300.0" r="27" class="node"/>
          <g transform="translate(955.0,280.0) scale(0.3125) translate(-0.0,-0.0)"><path fill="#EE4C2C" d="M100.1 38.3l-9.2 9.2c15.1 15.1 15.1 39.4 0 54.3-15.1 15.1-39.4 15.1-54.3 0-15.1-15.1-15.1-39.4 0-54.3l24-24 3.4-3.4V2L27.8 38.2C7.7 58.3 7.7 90.8 27.8 111s52.6 20.1 72.4 0c20.1-20.2 20.1-52.5-.1-72.7z"/><circle fill="#EE4C2C" transform="rotate(-88.939 82.069 29.398) scale(.99997)" cx="82.1" cy="29.4" r="6.7"/></g>
        </g>
      </g>
      <g style="transform-origin:787.5px 405.7px;animation:spinCW 40s linear infinite">
        <g style="transform-origin:787.5px 405.7px;transform:rotate(10deg)">
          <circle cx="787.5" cy="405.7" r="27" class="node"/>
          <g transform="translate(767.5,385.7) scale(0.3125) translate(-0.0,-0.0)">
  <path d="m61.55 128-21.84-12.68V40.55L6.81 59.56l.08-28.32L61.55 0zM66.46 0v128l21.84-12.68V79.31l16.49 9.53-.1-24.63-16.39-9.36v-14.3l32.89 19.01-.08-28.32z" fill="#ff6f00" />
</g>
        </g>
      </g>
      <g style="transform-origin:412.5px 405.7px;animation:spinCW 40s linear infinite">
        <g style="transform-origin:412.5px 405.7px;transform:rotate(10deg)">
          <circle cx="412.5" cy="405.7" r="27" class="node"/>
          <circle cx="412.5" cy="405.7" r="14" fill="#339933"/><text x="412.5" y="410.7" text-anchor="middle" class="mono" font-size="14" font-weight="700" fill="#0D1117">N</text>
        </g>
      </g>
      <g style="transform-origin:225.0px 300.0px;animation:spinCW 40s linear infinite">
        <g style="transform-origin:225.0px 300.0px;transform:rotate(10deg)">
          <circle cx="225.0" cy="300.0" r="27" class="node"/>
          <g transform="translate(205.0,280.0) scale(0.3125) translate(-0.0,-0.0)"><circle cx="64" cy="64" r="64"/><path fill="url(#a)" d="M106.317 112.014 49.167 38.4H38.4v51.179h8.614v-40.24l52.54 67.884a64.216 64.216 0 0 0 6.763-5.209z"/><path fill="url(#b)" d="M81.778 38.4h8.533v51.2h-8.533z"/><defs><linearGradient id="a" x1="109" x2="144.5" y1="116.5" y2="160.5" gradientTransform="scale(.71111)" gradientUnits="userSpaceOnUse"><stop stop-color="#fff"/><stop offset="1" stop-color="#fff" stop-opacity="0"/></linearGradient><linearGradient id="b" x1="121" x2="120.799" y1="54" y2="106.875" gradientTransform="scale(.71111)" gradientUnits="userSpaceOnUse"><stop stop-color="#fff"/><stop offset="1" stop-color="#fff" stop-opacity="0"/></linearGradient></defs></g>
        </g>
      </g>
      <g style="transform-origin:412.5px 194.3px;animation:spinCW 40s linear infinite">
        <g style="transform-origin:412.5px 194.3px;transform:rotate(10deg)">
          <circle cx="412.5" cy="194.3" r="27" class="node"/>
          <g transform="translate(392.5,174.3) scale(0.3125) translate(-0.0,-0.0)"><path fill-rule="evenodd" clip-rule="evenodd" fill="#3A4D54" d="M73.8 50.8h11.3v11.5h5.7c2.6 0 5.3-.5 7.8-1.3 1.2-.4 2.6-1 3.8-1.7-1.6-2.1-2.4-4.7-2.6-7.3-.3-3.5.4-8.1 2.8-10.8l1.2-1.4 1.4 1.1c3.6 2.9 6.5 6.8 7.1 11.4 4.3-1.3 9.3-1 13.1 1.2l1.5.9-.8 1.6c-3.2 6.2-9.9 8.2-16.4 7.8-9.8 24.3-31 35.8-56.8 35.8-13.3 0-25.5-5-32.5-16.8l-.1-.2-1-2.1c-2.4-5.2-3.1-10.9-2.6-16.6l.2-1.7h9.6V50.8h11.3V39.6h22.5V28.3h13.5v22.5z"/><path fill="#00AADA" d="M110.4 55.1c.8-5.9-3.6-10.5-6.4-12.7-3.1 3.6-3.6 13.2 1.3 17.2-2.8 2.4-8.5 4.7-14.5 4.7H18.6c-.6 6.2.5 11.9 3 16.8l.8 1.5c.5.9 1.1 1.7 1.7 2.6 3 .2 5.7.3 8.2.2 4.9-.1 8.9-.7 12-1.7.5-.2.9.1 1.1.5.2.5-.1.9-.5 1.1-.4.1-.8.3-1.3.4-2.4.7-5 1.1-8.3 1.3h-.6c-1.3.1-2.7.1-4.2.1-1.6 0-3.1 0-4.9-.1 6 6.8 15.4 10.8 27.2 10.8 25 0 46.2-11.1 55.5-35.9 6.7.7 13.1-1 16-6.7-4.5-2.7-10.5-1.8-13.9-.1z"/><path fill="#28B8EB" d="M110.4 55.1c.8-5.9-3.6-10.5-6.4-12.7-3.1 3.6-3.6 13.2 1.3 17.2-2.8 2.4-8.5 4.7-14.5 4.7h-68c-.3 9.5 3.2 16.7 9.5 21 4.9-.1 8.9-.7 12-1.7.5-.2.9.1 1.1.5.2.5-.1.9-.5 1.1-.4.1-.8.3-1.3.4-2.4.7-5.2 1.2-8.5 1.4l-.1-.1c8.5 4.4 20.8 4.3 35-1.1 15.8-6.1 30.6-17.7 40.9-30.9-.2.1-.4.1-.5.2z"/><path fill="#028BB8" d="M18.7 71.8c.4 3.3 1.4 6.4 2.9 9.3l.8 1.5c.5.9 1.1 1.7 1.7 2.6 3 .2 5.7.3 8.2.2 4.9-.1 8.9-.7 12-1.7.5-.2.9.1 1.1.5.2.5-.1.9-.5 1.1-.4.1-.8.3-1.3.4-2.4.7-5.2 1.2-8.5 1.4h-.4c-1.3.1-2.7.1-4.1.1-1.6 0-3.2 0-4.9-.1 6 6.8 15.5 10.8 27.3 10.8 21.4 0 40-8.1 50.8-26H18.7v-.1z"/><path fill="#019BC6" d="M23.5 71.8c1.3 5.8 4.3 10.4 8.8 13.5 4.9-.1 8.9-.7 12-1.7.5-.2.9.1 1.1.5.2.5-.1.9-.5 1.1-.4.1-.8.3-1.3.4-2.4.7-5.2 1.2-8.6 1.4 8.5 4.4 20.8 4.3 34.9-1.1 8.5-3.3 16.8-8.2 24.2-14.1H23.5z"/><path fill-rule="evenodd" clip-rule="evenodd" fill="#00ACD3" d="M28.4 52.7h9.8v9.8h-9.8v-9.8zm.8.8h.8v8.1h-.8v-8.1zm1.4 0h.8v8.1h-.8v-8.1zm1.5 0h.8v8.1h-.8v-8.1zm1.5 0h.8v8.1h-.8v-8.1zm1.5 0h.8v8.1h-.8v-8.1zm1.5 0h.8v8.1h-.8v-8.1zm3-12h9.8v9.8h-9.8v-9.8zm.9.8h.8v8.1h-.8v-8.1zm1.4 0h.8v8.1h-.8v-8.1zm1.5 0h.8v8.1h-.8v-8.1zm1.5 0h.8v8.1h-.8v-8.1zm1.4 0h.8v8.1h-.8v-8.1zm1.5 0h.8v8.1h-.8v-8.1z"/><path fill-rule="evenodd" clip-rule="evenodd" fill="#23C2EE" d="M39.6 52.7h9.8v9.8h-9.8v-9.8zm.9.8h.8v8.1h-.8v-8.1zm1.4 0h.8v8.1h-.8v-8.1zm1.5 0h.8v8.1h-.8v-8.1zm1.5 0h.8v8.1h-.8v-8.1zm1.4 0h.8v8.1h-.8v-8.1zm1.5 0h.8v8.1h-.8v-8.1z"/><path fill-rule="evenodd" clip-rule="evenodd" fill="#00ACD3" d="M50.9 52.7h9.8v9.8h-9.8v-9.8zm.8.8h.8v8.1h-.8v-8.1zm1.5 0h.8v8.1h-.8v-8.1zm1.5 0h.8v8.1h-.8v-8.1zm1.4 0h.8v8.1h-.8v-8.1zm1.5 0h.8v8.1h-.8v-8.1zm1.5 0h.8v8.1h-.8v-8.1z"/><path fill-rule="evenodd" clip-rule="evenodd" fill="#23C2EE" d="M50.9 41.5h9.8v9.8h-9.8v-9.8zm.8.8h.8v8.1h-.8v-8.1zm1.5 0h.8v8.1h-.8v-8.1zm1.5 0h.8v8.1h-.8v-8.1zm1.4 0h.8v8.1h-.8v-8.1zm1.5 0h.8v8.1h-.8v-8.1zm1.5 0h.8v8.1h-.8v-8.1zm3.1 10.4H72v9.8h-9.8v-9.8zm.8.8h.8v8.1H63v-8.1zm1.5 0h.8v8.1h-.8v-8.1zm1.4 0h.8v8.1h-.8v-8.1zm1.5 0h.8v8.1h-.8v-8.1zm1.5 0h.8v8.1h-.8v-8.1zm1.5 0h.8v8.1h-.8v-8.1z"/><path fill-rule="evenodd" clip-rule="evenodd" fill="#00ACD3" d="M62.2 41.5H72v9.8h-9.8v-9.8zm.8.8h.8v8.1H63v-8.1zm1.5 0h.8v8.1h-.8v-8.1zm1.4 0h.8v8.1h-.8v-8.1zm1.5 0h.8v8.1h-.8v-8.1zm1.5 0h.8v8.1h-.8v-8.1zm1.5 0h.8v8.1h-.8v-8.1z"/><path fill-rule="evenodd" clip-rule="evenodd" fill="#23C2EE" d="M62.2 30.2H72V40h-9.8v-9.8zm.8.8h.8v8.1H63V31zm1.5 0h.8v8.1h-.8V31zm1.4 0h.8v8.1h-.8V31zm1.5 0h.8v8.1h-.8V31zm1.5 0h.8v8.1h-.8V31zm1.5 0h.8v8.1h-.8V31z"/><path fill-rule="evenodd" clip-rule="evenodd" fill="#00ACD3" d="M73.5 52.7h9.8v9.8h-9.8v-9.8zm.8.8h.8v8.1h-.8v-8.1zm1.4 0h.8v8.1h-.8v-8.1zm1.5 0h.8v8.1h-.8v-8.1zm1.5 0h.8v8.1h-.8v-8.1zm1.5 0h.8v8.1h-.8v-8.1zm1.5 0h.8v8.1h-.8v-8.1z"/><path fill-rule="evenodd" clip-rule="evenodd" fill="#D4EEF1" d="M48.8 78.3c1.5 0 2.7 1.2 2.7 2.7 0 1.5-1.2 2.7-2.7 2.7-1.5 0-2.7-1.2-2.7-2.7 0-1.5 1.2-2.7 2.7-2.7"/><path fill-rule="evenodd" clip-rule="evenodd" fill="#3A4D54" d="M48.8 79.1c.2 0 .5 0 .7.1-.2.1-.4.4-.4.7 0 .4.4.8.8.8.3 0 .6-.2.7-.4.1.2.1.5.1.7 0 1.1-.9 1.9-1.9 1.9-1.1 0-1.9-.9-1.9-1.9 0-1 .8-1.9 1.9-1.9M1.1 72.8h125.4c-2.7-.7-8.6-1.6-7.7-5.2-5 5.7-16.9 4-20 1.2-3.4 4.9-23 3-24.3-.8-4.2 5-17.3 5-21.5 0-1.4 3.8-21 5.7-24.3.8-3 2.8-15 4.5-20-1.2 1.1 3.5-4.9 4.5-7.6 5.2"/><path fill="#BFDBE0" d="M56 97.8c-6.7-3.2-10.3-7.5-12.4-12.2-2.5.7-5.5 1.2-8.9 1.4-1.3.1-2.7.1-4.1.1-1.7 0-3.4 0-5.2-.1 6 6 13.6 10.7 27.5 10.8H56z"/><path fill="#D4EEF1" d="M46.1 89.9c-.9-1.3-1.8-2.8-2.5-4.3-2.5.7-5.5 1.2-8.9 1.4 2.3 1.2 5.7 2.4 11.4 2.9z"/></g>
        </g>
      </g>
      <g style="transform-origin:787.5px 194.3px;animation:spinCW 40s linear infinite">
        <g style="transform-origin:787.5px 194.3px;transform:rotate(10deg)">
          <circle cx="787.5" cy="194.3" r="27" class="node"/>
          <g transform="translate(767.5,174.3) scale(0.3125) translate(-0.0,-0.0)"><path fill-rule="evenodd" clip-rule="evenodd" fill="#439934" d="M88.038 42.812c1.605 4.643 2.761 9.383 3.141 14.296.472 6.095.256 12.147-1.029 18.142-.035.165-.109.32-.164.48-.403.001-.814-.049-1.208.012-3.329.523-6.655 1.065-9.981 1.604-3.438.557-6.881 1.092-10.313 1.687-1.216.21-2.721-.041-3.212 1.641-.014.046-.154.054-.235.08l.166-10.051-.169-24.252 1.602-.275c2.62-.429 5.24-.864 7.862-1.281 3.129-.497 6.261-.98 9.392-1.465 1.381-.215 2.764-.412 4.148-.618z"/><path fill-rule="evenodd" clip-rule="evenodd" fill="#45A538" d="M61.729 110.054c-1.69-1.453-3.439-2.842-5.059-4.37-8.717-8.222-15.093-17.899-18.233-29.566-.865-3.211-1.442-6.474-1.627-9.792-.13-2.322-.318-4.665-.154-6.975.437-6.144 1.325-12.229 3.127-18.147l.099-.138c.175.233.427.439.516.702 1.759 5.18 3.505 10.364 5.242 15.551 5.458 16.3 10.909 32.604 16.376 48.9.107.318.384.579.583.866l-.87 2.969z"/><path fill-rule="evenodd" clip-rule="evenodd" fill="#46A037" d="M88.038 42.812c-1.384.206-2.768.403-4.149.616-3.131.485-6.263.968-9.392 1.465-2.622.417-5.242.852-7.862 1.281l-1.602.275-.012-1.045c-.053-.859-.144-1.717-.154-2.576-.069-5.478-.112-10.956-.18-16.434-.042-3.429-.105-6.857-.175-10.285-.043-2.13-.089-4.261-.185-6.388-.052-1.143-.236-2.28-.311-3.423-.042-.657.016-1.319.029-1.979.817 1.583 1.616 3.178 2.456 4.749 1.327 2.484 3.441 4.314 5.344 6.311 7.523 7.892 12.864 17.068 16.193 27.433z"/><path fill-rule="evenodd" clip-rule="evenodd" fill="#409433" d="M65.036 80.753c.081-.026.222-.034.235-.08.491-1.682 1.996-1.431 3.212-1.641 3.432-.594 6.875-1.13 10.313-1.687 3.326-.539 6.652-1.081 9.981-1.604.394-.062.805-.011 1.208-.012-.622 2.22-1.112 4.488-1.901 6.647-.896 2.449-1.98 4.839-3.131 7.182a49.142 49.142 0 01-6.353 9.763c-1.919 2.308-4.058 4.441-6.202 6.548-1.185 1.165-2.582 2.114-3.882 3.161l-.337-.23-1.214-1.038-1.256-2.753a41.402 41.402 0 01-1.394-9.838l.023-.561.171-2.426c.057-.828.133-1.655.168-2.485.129-2.982.241-5.964.359-8.946z"/><path fill-rule="evenodd" clip-rule="evenodd" fill="#4FAA41" d="M65.036 80.753c-.118 2.982-.23 5.964-.357 8.947-.035.83-.111 1.657-.168 2.485l-.765.289c-1.699-5.002-3.399-9.951-5.062-14.913-2.75-8.209-5.467-16.431-8.213-24.642a4498.887 4498.887 0 00-6.7-19.867c-.105-.31-.407-.552-.617-.826l4.896-9.002c.168.292.39.565.496.879a6167.476 6167.476 0 016.768 20.118c2.916 8.73 5.814 17.467 8.728 26.198.116.349.308.671.491 1.062l.67-.78-.167 10.052z"/><path fill-rule="evenodd" clip-rule="evenodd" fill="#4AA73C" d="M43.155 32.227c.21.274.511.516.617.826a4498.887 4498.887 0 016.7 19.867c2.746 8.211 5.463 16.433 8.213 24.642 1.662 4.961 3.362 9.911 5.062 14.913l.765-.289-.171 2.426-.155.559c-.266 2.656-.49 5.318-.814 7.968-.163 1.328-.509 2.632-.772 3.947-.198-.287-.476-.548-.583-.866-5.467-16.297-10.918-32.6-16.376-48.9a3888.972 3888.972 0 00-5.242-15.551c-.089-.263-.34-.469-.516-.702l3.272-8.84z"/><path fill-rule="evenodd" clip-rule="evenodd" fill="#57AE47" d="M65.202 70.702l-.67.78c-.183-.391-.375-.714-.491-1.062-2.913-8.731-5.812-17.468-8.728-26.198a6167.476 6167.476 0 00-6.768-20.118c-.105-.314-.327-.588-.496-.879l6.055-7.965c.191.255.463.482.562.769 1.681 4.921 3.347 9.848 5.003 14.778 1.547 4.604 3.071 9.215 4.636 13.813.105.308.47.526.714.786l.012 1.045c.058 8.082.115 16.167.171 24.251z"/><path fill-rule="evenodd" clip-rule="evenodd" fill="#60B24F" d="M65.021 45.404c-.244-.26-.609-.478-.714-.786-1.565-4.598-3.089-9.209-4.636-13.813-1.656-4.93-3.322-9.856-5.003-14.778-.099-.287-.371-.514-.562-.769 1.969-1.928 3.877-3.925 5.925-5.764 1.821-1.634 3.285-3.386 3.352-5.968.003-.107.059-.214.145-.514l.519 1.306c-.013.661-.072 1.322-.029 1.979.075 1.143.259 2.28.311 3.423.096 2.127.142 4.258.185 6.388.069 3.428.132 6.856.175 10.285.067 5.478.111 10.956.18 16.434.008.861.098 1.718.152 2.577z"/><path fill-rule="evenodd" clip-rule="evenodd" fill="#A9AA88" d="M62.598 107.085c.263-1.315.609-2.62.772-3.947.325-2.649.548-5.312.814-7.968l.066-.01.066.011a41.402 41.402 0 001.394 9.838c-.176.232-.425.439-.518.701-.727 2.05-1.412 4.116-2.143 6.166-.1.28-.378.498-.574.744l-.747-2.566.87-2.969z"/><path fill-rule="evenodd" clip-rule="evenodd" fill="#B6B598" d="M62.476 112.621c.196-.246.475-.464.574-.744.731-2.05 1.417-4.115 2.143-6.166.093-.262.341-.469.518-.701l1.255 2.754c-.248.352-.59.669-.728 1.061l-2.404 7.059c-.099.283-.437.483-.663.722l-.695-3.985z"/><path fill-rule="evenodd" clip-rule="evenodd" fill="#C2C1A7" d="M63.171 116.605c.227-.238.564-.439.663-.722l2.404-7.059c.137-.391.48-.709.728-1.061l1.215 1.037c-.587.58-.913 1.25-.717 2.097l-.369 1.208c-.168.207-.411.387-.494.624-.839 2.403-1.64 4.819-2.485 7.222-.107.305-.404.544-.614.812-.109-1.387-.22-2.771-.331-4.158z"/><path fill-rule="evenodd" clip-rule="evenodd" fill="#CECDB7" d="M63.503 120.763c.209-.269.506-.508.614-.812.845-2.402 1.646-4.818 2.485-7.222.083-.236.325-.417.494-.624l-.509 5.545c-.136.157-.333.294-.398.477-.575 1.614-1.117 3.24-1.694 4.854-.119.333-.347.627-.525.938-.158-.207-.441-.407-.454-.623-.051-.841-.016-1.688-.013-2.533z"/><path fill-rule="evenodd" clip-rule="evenodd" fill="#DBDAC7" d="M63.969 123.919c.178-.312.406-.606.525-.938.578-1.613 1.119-3.239 1.694-4.854.065-.183.263-.319.398-.477l.012 3.64-1.218 3.124-1.411-.495z"/><path fill-rule="evenodd" clip-rule="evenodd" fill="#EBE9DC" d="M65.38 124.415l1.218-3.124.251 3.696-1.469-.572z"/><path fill-rule="evenodd" clip-rule="evenodd" fill="#CECDB7" d="M67.464 110.898c-.196-.847.129-1.518.717-2.097l.337.23-1.054 1.867z"/><path fill-rule="evenodd" clip-rule="evenodd" fill="#4FAA41" d="M64.316 95.172l-.066-.011-.066.01.155-.559-.023.56z"/></g>
        </g>
      </g>
    </g>
  </g>
  <g style="transform-origin:600.0px 300.0px;transform:rotate(7deg)">
    <ellipse cx="600.0" cy="300.0" rx="532" ry="172" class="orbitRing"/>
    <ellipse cx="600.0" cy="300.0" rx="532" ry="172" fill="none" stroke="rgba(34,211,238,.6)"
      stroke-width="2" stroke-dasharray="90 2484" stroke-linecap="round"
      style="animation:arcFlow 62s linear infinite"/>
    <g style="transform-origin:600.0px 300.0px;animation:spinCW 56s linear infinite">
      <g style="transform-origin:1132.0px 300.0px;animation:spinCCW 56s linear infinite">
        <g style="transform-origin:1132.0px 300.0px;transform:rotate(-7deg)">
          <circle cx="1132.0" cy="300.0" r="27" class="node"/>
          <g transform="translate(1112.0,280.0) scale(0.3125) translate(-0.0,-0.0)"><path fill="#0074BD" d="M47.617 98.12s-4.767 2.774 3.397 3.71c9.892 1.13 14.947.968 25.845-1.092 0 0 2.871 1.795 6.873 3.351-24.439 10.47-55.308-.607-36.115-5.969zm-2.988-13.665s-5.348 3.959 2.823 4.805c10.567 1.091 18.91 1.18 33.354-1.6 0 0 1.993 2.025 5.132 3.131-29.542 8.64-62.446.68-41.309-6.336z"/><path fill="#EA2D2E" d="M69.802 61.271c6.025 6.935-1.58 13.17-1.58 13.17s15.289-7.891 8.269-17.777c-6.559-9.215-11.587-13.792 15.635-29.58 0 .001-42.731 10.67-22.324 34.187z"/><path fill="#0074BD" d="M102.123 108.229s3.529 2.91-3.888 5.159c-14.102 4.272-58.706 5.56-71.094.171-4.451-1.938 3.899-4.625 6.526-5.192 2.739-.593 4.303-.485 4.303-.485-4.953-3.487-32.013 6.85-13.743 9.815 49.821 8.076 90.817-3.637 77.896-9.468zM49.912 70.294s-22.686 5.389-8.033 7.348c6.188.828 18.518.638 30.011-.326 9.39-.789 18.813-2.474 18.813-2.474s-3.308 1.419-5.704 3.053c-23.042 6.061-67.544 3.238-54.731-2.958 10.832-5.239 19.644-4.643 19.644-4.643zm40.697 22.747c23.421-12.167 12.591-23.86 5.032-22.285-1.848.385-2.677.72-2.677.72s.688-1.079 2-1.543c14.953-5.255 26.451 15.503-4.823 23.725 0-.002.359-.327.468-.617z"/><path fill="#EA2D2E" d="M76.491 1.587S89.459 14.563 64.188 34.51c-20.266 16.006-4.621 25.13-.007 35.559-11.831-10.673-20.509-20.07-14.688-28.815C58.041 28.42 81.722 22.195 76.491 1.587z"/><path fill="#0074BD" d="M52.214 126.021c22.476 1.437 57-.8 57.817-11.436 0 0-1.571 4.032-18.577 7.231-19.186 3.612-42.854 3.191-56.887.874 0 .001 2.875 2.381 17.647 3.331z"/></g>
        </g>
      </g>
      <g style="transform-origin:866.0px 449.0px;animation:spinCCW 56s linear infinite">
        <g style="transform-origin:866.0px 449.0px;transform:rotate(-7deg)">
          <circle cx="866.0" cy="449.0" r="27" class="node"/>
          <g transform="translate(846.0,429.0) scale(0.3125) translate(-0.0,-0.0)"><path fill="#00618A" d="M117.688 98.242c-6.973-.191-12.297.461-16.852 2.379-1.293.547-3.355.559-3.566 2.18.711.746.82 1.859 1.387 2.777 1.086 1.754 2.922 4.113 4.559 5.352 1.789 1.348 3.633 2.793 5.551 3.961 3.414 2.082 7.223 3.27 10.504 5.352 1.938 1.23 3.859 2.777 5.75 4.164.934.684 1.563 1.75 2.773 2.18v-.195c-.637-.812-.801-1.93-1.387-2.777l-2.578-2.578c-2.52-3.344-5.719-6.281-9.117-8.719-2.711-1.949-8.781-4.578-9.91-7.73l-.199-.199c1.922-.219 4.172-.914 5.949-1.391 2.98-.797 5.645-.59 8.719-1.387l4.164-1.187v-.793c-1.555-1.594-2.664-3.707-4.359-5.152-4.441-3.781-9.285-7.555-14.273-10.703-2.766-1.746-6.184-2.883-9.117-4.363-.988-.496-2.719-.758-3.371-1.586-1.539-1.961-2.379-4.449-3.566-6.738-2.488-4.793-4.93-10.023-7.137-15.066-1.504-3.437-2.484-6.828-4.359-9.91-9-14.797-18.687-23.73-33.695-32.508-3.195-1.867-7.039-2.605-11.102-3.57l-6.543-.395c-1.332-.555-2.715-2.184-3.965-2.977C16.977 3.52 4.223-3.312.539 5.672-1.785 11.34 4.016 16.871 6.09 19.746c1.457 2.012 3.32 4.273 4.359 6.539.688 1.492.805 2.984 1.391 4.559 1.438 3.883 2.695 8.109 4.559 11.695.941 1.816 1.98 3.727 3.172 5.352.727.996 1.98 1.438 2.18 2.973-1.227 1.715-1.297 4.375-1.984 6.543-3.098 9.77-1.926 21.91 2.578 29.137 1.383 2.223 4.641 6.98 9.117 5.156 3.918-1.598 3.043-6.539 4.164-10.902.254-.988.098-1.715.594-2.379v.199l3.57 7.133c2.641 4.254 7.324 8.699 11.297 11.699 2.059 1.555 3.68 4.242 6.344 5.152v-.199h-.199c-.516-.805-1.324-1.137-1.98-1.781-1.551-1.523-3.277-3.414-4.559-5.156-3.613-4.902-6.805-10.27-9.711-15.855-1.391-2.668-2.598-5.609-3.77-8.324-.453-1.047-.445-2.633-1.387-3.172-1.281 1.988-3.172 3.598-4.164 5.945-1.582 3.754-1.789 8.336-2.375 13.082-.348.125-.195.039-.398.199-2.762-.668-3.73-3.508-4.758-5.949-2.594-6.164-3.078-16.09-.793-23.191.59-1.836 3.262-7.617 2.18-9.316-.516-1.691-2.219-2.672-3.172-3.965-1.18-1.598-2.355-3.703-3.172-5.551-2.125-4.805-3.113-10.203-5.352-15.062-1.07-2.324-2.875-4.676-4.359-6.738-1.645-2.289-3.484-3.977-4.758-6.742-.453-.984-1.066-2.559-.398-3.566.215-.684.516-.969 1.191-1.191 1.148-.887 4.352.297 5.547.793 3.18 1.32 5.832 2.578 8.527 4.363 1.289.855 2.598 2.512 4.16 2.973h1.785c2.789.641 5.914.195 8.523.988 4.609 1.402 8.738 3.582 12.488 5.949 11.422 7.215 20.766 17.48 27.156 29.734 1.027 1.973 1.473 3.852 2.379 5.945 1.824 4.219 4.125 8.559 5.941 12.688 1.816 4.113 3.582 8.27 6.148 11.695 1.348 1.801 6.551 2.766 8.918 3.766 1.66.699 4.379 1.43 5.949 2.379 3 1.809 5.906 3.965 8.723 5.945 1.402.992 5.73 3.168 5.945 4.957zm-88.605-75.52c-1.453-.027-2.48.156-3.566.395v.199h.195c.695 1.422 1.918 2.34 2.777 3.566l1.98 4.164.199-.195c1.227-.867 1.789-2.25 1.781-4.363-.492-.52-.562-1.164-.992-1.785-.562-.824-1.66-1.289-2.375-1.98zm0 0"/></g>
        </g>
      </g>
      <g style="transform-origin:334.0px 449.0px;animation:spinCCW 56s linear infinite">
        <g style="transform-origin:334.0px 449.0px;transform:rotate(-7deg)">
          <circle cx="334.0" cy="449.0" r="27" class="node"/>
          <g transform="translate(314.0,429.0) scale(0.3125) translate(-0.0,-0.0)"><path fill="#A41E11" d="M121.8 93.1c-6.7 3.5-41.4 17.7-48.8 21.6-7.4 3.9-11.5 3.8-17.3 1S13 98.1 6.3 94.9c-3.3-1.6-5-2.9-5-4.2V78s48-10.5 55.8-13.2c7.8-2.8 10.4-2.9 17-.5s46.1 9.5 52.6 11.9v12.5c0 1.3-1.5 2.7-4.9 4.4z"/><path fill="#D82C20" d="M121.8 80.5C115.1 84 80.4 98.2 73 102.1c-7.4 3.9-11.5 3.8-17.3 1-5.8-2.8-42.7-17.7-49.4-20.9C-.3 79-.5 76.8 6 74.3c6.5-2.6 43.2-17 51-19.7 7.8-2.8 10.4-2.9 17-.5s41.1 16.1 47.6 18.5c6.7 2.4 6.9 4.4.2 7.9z"/><path fill="#A41E11" d="M121.8 72.5C115.1 76 80.4 90.2 73 94.1c-7.4 3.8-11.5 3.8-17.3 1C49.9 92.3 13 77.4 6.3 74.2c-3.3-1.6-5-2.9-5-4.2V57.3s48-10.5 55.8-13.2c7.8-2.8 10.4-2.9 17-.5s46.1 9.5 52.6 11.9V68c0 1.3-1.5 2.7-4.9 4.5z"/><path fill="#D82C20" d="M121.8 59.8c-6.7 3.5-41.4 17.7-48.8 21.6-7.4 3.8-11.5 3.8-17.3 1C49.9 79.6 13 64.7 6.3 61.5s-6.8-5.4-.3-7.9c6.5-2.6 43.2-17 51-19.7 7.8-2.8 10.4-2.9 17-.5s41.1 16.1 47.6 18.5c6.7 2.4 6.9 4.4.2 7.9z"/><path fill="#A41E11" d="M121.8 51c-6.7 3.5-41.4 17.7-48.8 21.6-7.4 3.8-11.5 3.8-17.3 1C49.9 70.9 13 56 6.3 52.8c-3.3-1.6-5.1-2.9-5.1-4.2V35.9s48-10.5 55.8-13.2c7.8-2.8 10.4-2.9 17-.5s46.1 9.5 52.6 11.9v12.5c.1 1.3-1.4 2.6-4.8 4.4z"/><path fill="#D82C20" d="M121.8 38.3C115.1 41.8 80.4 56 73 59.9c-7.4 3.8-11.5 3.8-17.3 1S13 43.3 6.3 40.1s-6.8-5.4-.3-7.9c6.5-2.6 43.2-17 51-19.7 7.8-2.8 10.4-2.9 17-.5s41.1 16.1 47.6 18.5c6.7 2.4 6.9 4.4.2 7.8z"/><path fill="#fff" d="M80.4 26.1l-10.8 1.2-2.5 5.8-3.9-6.5-12.5-1.1 9.3-3.4-2.8-5.2 8.8 3.4 8.2-2.7L72 23zM66.5 54.5l-20.3-8.4 29.1-4.4z"/><ellipse fill="#fff" cx="38.4" cy="35.4" rx="15.5" ry="6"/><path fill="#7A0C00" d="M93.3 27.7l17.2 6.8-17.2 6.8z"/><path fill="#AD2115" d="M74.3 35.3l19-7.6v13.6l-1.9.8z"/></g>
        </g>
      </g>
      <g style="transform-origin:68.0px 300.0px;animation:spinCCW 56s linear infinite">
        <g style="transform-origin:68.0px 300.0px;transform:rotate(-7deg)">
          <circle cx="68.0" cy="300.0" r="27" class="node"/>
          <g transform="translate(48.0,280.0) scale(0.3125) translate(-0.0,-0.0)"><path fill="#F34F29" d="M124.737 58.378L69.621 3.264c-3.172-3.174-8.32-3.174-11.497 0L46.68 14.71l14.518 14.518c3.375-1.139 7.243-.375 9.932 2.314 2.703 2.706 3.461 6.607 2.294 9.993l13.992 13.993c3.385-1.167 7.292-.413 9.994 2.295 3.78 3.777 3.78 9.9 0 13.679a9.673 9.673 0 01-13.683 0 9.677 9.677 0 01-2.105-10.521L68.574 47.933l-.002 34.341a9.708 9.708 0 012.559 1.828c3.778 3.777 3.778 9.898 0 13.683-3.779 3.777-9.904 3.777-13.679 0-3.778-3.784-3.778-9.905 0-13.683a9.65 9.65 0 013.167-2.11V47.333a9.581 9.581 0 01-3.167-2.111c-2.862-2.86-3.551-7.06-2.083-10.576L41.056 20.333 3.264 58.123a8.133 8.133 0 000 11.5l55.117 55.114c3.174 3.174 8.32 3.174 11.499 0l54.858-54.858a8.135 8.135 0 00-.001-11.501z"/></g>
        </g>
      </g>
      <g style="transform-origin:334.0px 151.0px;animation:spinCCW 56s linear infinite">
        <g style="transform-origin:334.0px 151.0px;transform:rotate(-7deg)">
          <circle cx="334.0" cy="151.0" r="27" class="node"/>
          <circle cx="334.0" cy="151.0" r="14" fill="#FBC02D"/><text x="334.0" y="156.0" text-anchor="middle" class="mono" font-size="14" font-weight="700" fill="#0D1117">L</text>
        </g>
      </g>
      <g style="transform-origin:866.0px 151.0px;animation:spinCCW 56s linear infinite">
        <g style="transform-origin:866.0px 151.0px;transform:rotate(-7deg)">
          <circle cx="866.0" cy="151.0" r="27" class="node"/>
          <g transform="translate(846.0,131.0) scale(0.3125) translate(-0.0,-0.0)"><mask id="a" width="128" height="128" x="0" y="0" maskUnits="userSpaceOnUse" style="mask-type:alpha"><path fill="#fff" fill-rule="evenodd" d="M90.767 127.126a7.968 7.968 0 0 0 6.35-.244l26.353-12.681a8 8 0 0 0 4.53-7.209V21.009a8 8 0 0 0-4.53-7.21L97.117 1.12a7.97 7.97 0 0 0-9.093 1.548l-50.45 46.026L15.6 32.013a5.328 5.328 0 0 0-6.807.302l-7.048 6.411a5.335 5.335 0 0 0-.006 7.888L20.796 64 1.74 81.387a5.336 5.336 0 0 0 .006 7.887l7.048 6.411a5.327 5.327 0 0 0 6.807.303l21.974-16.68 50.45 46.025a7.96 7.96 0 0 0 2.743 1.793Zm5.252-92.183L57.74 64l38.28 29.058V34.943Z" clip-rule="evenodd"/></mask><g mask="url(#a)"><path fill="#0065A9" d="M123.471 13.82 97.097 1.12A7.973 7.973 0 0 0 88 2.668L1.662 81.387a5.333 5.333 0 0 0 .006 7.887l7.052 6.411a5.333 5.333 0 0 0 6.811.303l103.971-78.875c3.488-2.646 8.498-.158 8.498 4.22v-.306a8.001 8.001 0 0 0-4.529-7.208Z"/><g filter="url(#b)"><path fill="#007ACC" d="m123.471 114.181-26.374 12.698A7.973 7.973 0 0 1 88 125.333L1.662 46.613a5.333 5.333 0 0 1 .006-7.887l7.052-6.411a5.333 5.333 0 0 1 6.811-.303l103.971 78.874c3.488 2.647 8.498.159 8.498-4.219v.306a8.001 8.001 0 0 1-4.529 7.208Z"/></g><g filter="url(#c)"><path fill="#1F9CF0" d="M97.098 126.882A7.977 7.977 0 0 1 88 125.333c2.952 2.952 8 .861 8-3.314V5.98c0-4.175-5.048-6.266-8-3.313a7.977 7.977 0 0 1 9.098-1.549L123.467 13.8A8 8 0 0 1 128 21.01v85.982a8 8 0 0 1-4.533 7.21l-26.369 12.681Z"/></g><path fill="url(#d)" fill-rule="evenodd" d="M90.69 127.126a7.968 7.968 0 0 0 6.349-.244l26.353-12.681a8 8 0 0 0 4.53-7.21V21.009a8 8 0 0 0-4.53-7.21L97.039 1.12a7.97 7.97 0 0 0-9.093 1.548l-50.45 46.026-21.974-16.68a5.328 5.328 0 0 0-6.807.302l-7.048 6.411a5.336 5.336 0 0 0-.006 7.888L20.718 64 1.662 81.386a5.335 5.335 0 0 0 .006 7.888l7.048 6.411a5.328 5.328 0 0 0 6.807.303l21.975-16.681 50.45 46.026a7.959 7.959 0 0 0 2.742 1.793Zm5.252-92.184L57.662 64l38.28 29.057V34.943Z" clip-rule="evenodd" opacity="0.25" style="mix-blend-mode:overlay"/></g><defs><filter id="b" width="144.744" height="113.408" x="-8.41115" y="22.5944" color-interpolation-filters="sRGB" filterUnits="userSpaceOnUse"><feFlood flood-opacity="0" result="BackgroundImageFix"/><feColorMatrix in="SourceAlpha" result="hardAlpha" values="0 0 0 0 0 0 0 0 0 0 0 0 0 0 0 0 0 0 127 0"/><feOffset/><feGaussianBlur stdDeviation="4.16667"/><feColorMatrix values="0 0 0 0 0 0 0 0 0 0 0 0 0 0 0 0 0 0 0.25 0"/><feBlend in2="BackgroundImageFix" mode="overlay" result="effect1_dropShadow_1_36"/><feBlend in="SourceGraphic" in2="effect1_dropShadow_1_36" result="shape"/></filter><filter id="c" width="56.6667" height="144.007" x="79.6667" y="-8.0035" color-interpolation-filters="sRGB" filterUnits="userSpaceOnUse"><feFlood flood-opacity="0" result="BackgroundImageFix"/><feColorMatrix in="SourceAlpha" result="hardAlpha" values="0 0 0 0 0 0 0 0 0 0 0 0 0 0 0 0 0 0 127 0"/><feOffset/><feGaussianBlur stdDeviation="4.16667"/><feColorMatrix values="0 0 0 0 0 0 0 0 0 0 0 0 0 0 0 0 0 0 0.25 0"/><feBlend in2="BackgroundImageFix" mode="overlay" result="effect1_dropShadow_1_36"/><feBlend in="SourceGraphic" in2="effect1_dropShadow_1_36" result="shape"/></filter><linearGradient id="d" x1="63.9222" x2="63.9222" y1="0.329902" y2="127.67" gradientUnits="userSpaceOnUse"><stop stop-color="#fff"/><stop offset="1" stop-color="#fff" stop-opacity="0"/></linearGradient></defs></g>
        </g>
      </g>
    </g>
  </g>
  <g style="transform-origin:600.0px 300.0px;animation:corePulse 4.5s ease-in-out infinite">
    <circle cx="600.0" cy="300.0" r="62" fill="url(#coreGrad)"/>
    <circle cx="600.0" cy="300.0" r="74" fill="none" stroke="#F472B6" stroke-width="2.4"
      stroke-dasharray="16 30" style="transform-origin:600.0px 300.0px;animation:spinCW 11s linear infinite"/>
    <circle cx="600.0" cy="300.0" r="88" fill="none" stroke="#22D3EE" stroke-width="1.6"
      stroke-dasharray="4 18 40 12" style="transform-origin:600.0px 300.0px;animation:spinCCW 17s linear infinite"/>
    <polygon points="600.0,250.0 643.0,275.0 643.0,325.0 600.0,350.0 557.0,325.0 557.0,275.0"
      fill="none" stroke="rgba(255,255,255,.4)" stroke-width="1.6"
      style="transform-origin:600.0px 300.0px;animation:spinCW 24s linear infinite"/>
    <g transform="translate(577.5,306.0)"><path d="M2.3 0.0V-23.0Q2.3 -24.6 3.1 -25.9Q3.9 -27.2 5.2 -28.0Q6.5 -28.8 8.1 -28.8H25.3Q26.9 -28.8 28.2 -28.0Q29.5 -27.2 30.3 -25.9Q31.1 -24.6 31.1 -23.0V0.0H25.3V-9.5H8.1V0.0H2.3ZM8.1 -15.2H25.3V-22.8Q25.3 -22.9 25.2 -22.9Q25.2 -23.0 25.0 -23.0H8.3Q8.2 -23.0 8.1 -22.9Q8.1 -22.9 8.1 -22.8V-15.2Z M37.9 0.0V-28.8H43.6V0.0Z" fill="#FFFFFF" /></g>
    <g transform="translate(571.4,330.0)"><path d="M2.6 0.0Q2.1 0.0 1.7 -0.3Q1.2 -0.5 1.0 -0.9Q0.7 -1.4 0.7 -1.9V-7.5Q0.7 -8.0 1.0 -8.4Q1.2 -8.9 1.7 -9.1Q2.1 -9.4 2.6 -9.4H10.1V-7.5H3.0Q2.8 -7.5 2.7 -7.4Q2.6 -7.3 2.6 -7.0V-2.3Q2.6 -2.1 2.7 -2.0Q2.8 -1.9 3.0 -1.9H10.1V0.0Z M18.3 0.0Q17.7 0.0 17.3 -0.3Q16.9 -0.5 16.6 -0.9Q16.4 -1.4 16.4 -1.9V-7.5Q16.4 -8.0 16.6 -8.4Q16.9 -8.9 17.3 -9.1Q17.7 -9.4 18.3 -9.4H23.9Q24.4 -9.4 24.8 -9.1Q25.2 -8.9 25.5 -8.4Q25.7 -8.0 25.7 -7.5V-1.9Q25.7 -1.4 25.5 -0.9Q25.2 -0.5 24.8 -0.3Q24.4 0.0 23.9 0.0ZM18.3 -1.9H23.8Q23.8 -1.9 23.8 -1.9Q23.9 -1.9 23.9 -2.0V-7.4Q23.9 -7.4 23.8 -7.5Q23.8 -7.5 23.8 -7.5H18.3Q18.3 -7.5 18.3 -7.5Q18.3 -7.4 18.3 -7.4V-2.0Q18.3 -1.9 18.3 -1.9Q18.3 -1.9 18.3 -1.9Z M39.5 0.0 36.8 -3.3H39.2L41.5 -0.6V0.0ZM32.2 0.0V-9.3H39.7Q40.2 -9.3 40.6 -9.1Q41.0 -8.8 41.3 -8.4Q41.5 -8.0 41.5 -7.5V-5.0Q41.5 -4.5 41.3 -4.1Q41.0 -3.7 40.6 -3.4Q40.2 -3.1 39.7 -3.1L34.0 -3.1V0.0ZM34.1 -5.0H39.6Q39.6 -5.0 39.6 -5.1Q39.6 -5.1 39.6 -5.1V-7.4Q39.6 -7.4 39.6 -7.5Q39.6 -7.5 39.6 -7.5H34.1Q34.1 -7.5 34.1 -7.5Q34.0 -7.4 34.0 -7.4V-5.1Q34.0 -5.1 34.1 -5.1Q34.1 -5.0 34.1 -5.0Z M47.9 0.0V-9.4H56.6V-7.5H49.8V-5.6H55.2V-3.7H49.8V-1.9H56.6V0.0Z" fill="rgba(230,237,243,.85)" /></g>
  </g>

  <g class="mono" font-size="12" fill="#8B949E" letter-spacing="2">
    <text x="34" y="546">ORBIT-01 <tspan fill="#67E8F9">LANGUAGES / FRONTEND</tspan></text>
    <text x="34" y="568">ORBIT-02 <tspan fill="#A78BFA">AI / RUNTIME / DATA</tspan></text>
    <text x="34" y="590">ORBIT-03 <tspan fill="#F472B6">INFRA / TOOLING</tspan></text>
    <text x="1166" y="590" text-anchor="end" style="animation:breathe 3s ease-in-out infinite"><tspan fill="#34D399">●</tspan> ALL SYSTEMS ROTATING</text>
  </g>

  <rect width="1200" height="620" fill="url(#vign)" pointer-events="none"/>
  </g>
  <rect x=".8" y=".8" width="1198.4" height="618.4" rx="15" fill="none"
    stroke="#8B5CF6" stroke-opacity=".38" stroke-width="1.5"/>
</svg>
