<svg xmlns="http://www.w3.org/2000/svg" viewBox="0 0 420 232" width="100%" height="auto" role="img" aria-label="cua_desktop_operator_skill">
  <defs>
    <style>
      @keyframes borderFlow { to { stroke-dashoffset:-320; } }
      @keyframes scanline { 0% { transform:translateY(-60px); } 100% { transform:translateY(252px); } }
      @keyframes cardFloat { 0%,100% { transform:translateY(0); } 50% { transform:translateY(-3px); } }
      @keyframes blinkDot { 0%,88%,100% { opacity:1; } 92%,96% { opacity:.25; } }
      @keyframes chipPulse { 0%,100% { opacity:.75; } 50% { opacity:1; } }
      @keyframes arrowNudge { 0%,100% { transform:translateX(0); } 50% { transform:translateX(3px); } }
      @keyframes trace { to { stroke-dashoffset:-120; } }
      .mono { font-family:ui-monospace,'SFMono-Regular','SF Mono','Cascadia Code','JetBrains Mono',Menlo,Consolas,monospace; }
    </style>
    <linearGradient id="cardBg" x1="0" y1="0" x2="1" y2="1">
      <stop offset="0" stop-color="#0D1117"/>
      <stop offset="1" stop-color="#11182a"/>
    </linearGradient>
    <linearGradient id="scan" x1="0" y1="0" x2="0" y2="1">
      <stop offset="0" stop-color="#34D399" stop-opacity="0"/>
      <stop offset=".5" stop-color="#34D399" stop-opacity=".12"/>
      <stop offset="1" stop-color="#34D399" stop-opacity="0"/>
    </linearGradient>
    <clipPath id="clip"><rect x="4" y="4" width="412" height="224" rx="14"/></clipPath>
  </defs>

  <g style="animation:cardFloat 6s ease-in-out 1.65s infinite">
    <g clip-path="url(#clip)">
      <rect x="4" y="4" width="412" height="224" fill="url(#cardBg)"/>
      <rect x="4" y="0" width="412" height="48" fill="url(#scan)"
        style="animation:scanline 4.5s linear 1.65s infinite"/>
      <path d="M 302 228 v -26 h 44 v -18 h 62" fill="none" stroke="#34D399"
        stroke-opacity=".28" stroke-width="1.3" stroke-dasharray="7 5"
        style="animation:trace 5s linear infinite"/>
      <circle cx="302" cy="202" r="2.2" fill="#34D399" opacity=".5"/>
    </g>

    <rect x="4" y="4" width="412" height="224" rx="14" fill="none"
      stroke="#8B5CF6" stroke-opacity=".35" stroke-width="1.3"/>
    <rect x="4" y="4" width="412" height="224" rx="14" fill="none"
      stroke="#34D399" stroke-width="1.6" stroke-dasharray="46 114" stroke-opacity=".9"
      style="animation:borderFlow 7s linear infinite"/>

    <path d="M 16 34 L 16 16 L 34 16" fill="none" stroke="#34D399" stroke-width="2.2" opacity=".9"/>
    <path d="M 404 198 L 404 216 L 386 216" fill="none" stroke="#34D399" stroke-width="2.2" opacity=".9"/>

    <svg x="22" y="36" viewBox="0 0 16 16" width="20" height="20">
      <path fill="#34D399" fill-rule="evenodd" d="M2 2.5A2.5 2.5 0 014.5 0h8.75a.75.75 0 01.75.75v12.5a.75.75 0 01-.75.75h-2.5a.75.75 0 110-1.5h1.75v-2h-8a1 1 0 00-.714 1.7.75.75 0 01-1.072 1.05A2.495 2.495 0 012 11.5v-9zm10.5-1V9h-8c-.356 0-.694.074-1 .208V2.5a1 1 0 011-1h8z"/>
    </svg>
    <g transform="translate(52.0,52.0)"><path d="M3.3 0.0Q2.6 0.0 2.1 -0.3Q1.5 -0.7 1.2 -1.2Q0.9 -1.8 0.9 -2.4V-7.5Q0.9 -8.1 1.2 -8.7Q1.5 -9.2 2.1 -9.5Q2.6 -9.9 3.3 -9.9H10.8V-7.4H3.4Q3.3 -7.4 3.3 -7.4Q3.3 -7.4 3.3 -7.3V-2.5Q3.3 -2.5 3.3 -2.4Q3.3 -2.4 3.4 -2.4H10.9V0.0H3.3Z M15.6 0.0Q15.0 0.0 14.4 -0.3Q13.9 -0.7 13.5 -1.2Q13.2 -1.8 13.2 -2.4V-9.9H15.6V-2.5Q15.6 -2.5 15.7 -2.4Q15.7 -2.4 15.7 -2.4H20.7Q20.7 -2.4 20.8 -2.4Q20.8 -2.5 20.8 -2.5V-9.9H23.2V-2.4Q23.2 -1.8 22.9 -1.2Q22.6 -0.7 22.0 -0.3Q21.5 0.0 20.8 0.0H15.6Z M27.9 0.0Q27.3 0.0 26.7 -0.3Q26.2 -0.7 25.8 -1.2Q25.5 -1.8 25.5 -2.4V-6.2H33.1V-7.3Q33.1 -7.4 33.1 -7.4Q33.0 -7.4 33.0 -7.4H25.5V-9.9H33.1Q33.8 -9.9 34.3 -9.5Q34.9 -9.2 35.2 -8.7Q35.5 -8.1 35.5 -7.5V0.0ZM28.0 -2.4H33.1V-4.0H27.9V-2.5Q27.9 -2.5 28.0 -2.4Q28.0 -2.4 28.0 -2.4Z M37.8 2.4V0.0H49.9V2.4Z M54.3 0.0Q53.6 0.0 53.1 -0.3Q52.5 -0.7 52.2 -1.2Q51.9 -1.8 51.9 -2.4V-7.5Q51.9 -8.1 52.2 -8.7Q52.5 -9.2 53.1 -9.5Q53.6 -9.9 54.3 -9.9H59.5V-13.1H61.9V0.0H54.3ZM54.4 -2.4H59.4Q59.4 -2.4 59.5 -2.4Q59.5 -2.5 59.5 -2.5V-7.3Q59.5 -7.4 59.5 -7.4Q59.4 -7.4 59.4 -7.4H54.4Q54.4 -7.4 54.4 -7.4Q54.3 -7.4 54.3 -7.3V-2.5Q54.3 -2.5 54.4 -2.4Q54.4 -2.4 54.4 -2.4Z M66.6 0.0Q66.0 0.0 65.4 -0.3Q64.9 -0.7 64.5 -1.2Q64.2 -1.8 64.2 -2.4V-7.5Q64.2 -8.1 64.5 -8.7Q64.9 -9.2 65.4 -9.5Q66.0 -9.9 66.6 -9.9H71.8Q72.5 -9.9 73.0 -9.5Q73.6 -9.2 73.9 -8.7Q74.2 -8.1 74.2 -7.5V-3.7H66.6V-2.5Q66.6 -2.5 66.7 -2.4Q66.7 -2.4 66.7 -2.4H74.2V0.0H66.6ZM66.6 -5.9H71.8V-7.3Q71.8 -7.4 71.8 -7.4Q71.7 -7.4 71.7 -7.4H66.7Q66.7 -7.4 66.7 -7.4Q66.6 -7.4 66.6 -7.3Z M78.8 0.0Q78.2 0.0 77.6 -0.3Q77.1 -0.7 76.8 -1.2Q76.4 -1.8 76.4 -2.4V-2.8H78.8V-2.5Q78.8 -2.5 78.9 -2.4Q78.9 -2.4 78.9 -2.4H83.9Q83.9 -2.4 84.0 -2.4Q84.0 -2.5 84.0 -2.5V-3.6Q84.0 -3.7 84.0 -3.7Q83.9 -3.7 83.9 -3.7H78.8Q78.2 -3.7 77.6 -4.0Q77.1 -4.4 76.8 -4.9Q76.4 -5.5 76.4 -6.1V-7.5Q76.4 -8.1 76.8 -8.7Q77.1 -9.2 77.6 -9.5Q78.2 -9.9 78.8 -9.9H84.0Q84.7 -9.9 85.2 -9.5Q85.8 -9.2 86.1 -8.7Q86.4 -8.1 86.4 -7.5V-7.0H84.0V-7.3Q84.0 -7.4 84.0 -7.4Q83.9 -7.4 83.9 -7.4H78.9Q78.9 -7.4 78.9 -7.4Q78.8 -7.4 78.8 -7.3V-6.2Q78.8 -6.2 78.9 -6.2Q78.9 -6.2 78.9 -6.2H84.0Q84.7 -6.2 85.2 -5.8Q85.8 -5.5 86.1 -4.9Q86.4 -4.4 86.4 -3.7V-2.4Q86.4 -1.8 86.1 -1.2Q85.8 -0.7 85.2 -0.3Q84.7 0.0 84.0 0.0H78.8Z M88.7 0.0V-13.1H91.1V-6.2H92.6L96.1 -9.9H98.6V-9.1L94.8 -4.9L98.6 -0.7V0.0H96.1L92.6 -3.7H91.1V0.0Z M102.6 0.0Q101.9 0.0 101.4 -0.3Q100.8 -0.7 100.5 -1.2Q100.2 -1.8 100.2 -2.4V-12.8H102.6V-9.9H106.3V-7.4H102.6V-2.5Q102.6 -2.5 102.6 -2.4Q102.6 -2.4 102.7 -2.4H106.3V0.0H102.6Z M110.6 0.0Q109.9 0.0 109.4 -0.3Q108.8 -0.7 108.5 -1.2Q108.2 -1.8 108.2 -2.4V-7.5Q108.2 -8.1 108.5 -8.7Q108.8 -9.2 109.4 -9.5Q109.9 -9.9 110.6 -9.9H115.8Q116.4 -9.9 117.0 -9.5Q117.5 -9.2 117.9 -8.7Q118.2 -8.1 118.2 -7.5V-2.4Q118.2 -1.8 117.9 -1.2Q117.5 -0.7 117.0 -0.3Q116.4 0.0 115.8 0.0H110.6ZM110.7 -2.4H115.7Q115.7 -2.4 115.7 -2.4Q115.8 -2.5 115.8 -2.5V-7.3Q115.8 -7.4 115.7 -7.4Q115.7 -7.4 115.7 -7.4H110.7Q110.7 -7.4 110.6 -7.4Q110.6 -7.4 110.6 -7.3V-2.5Q110.6 -2.5 110.6 -2.4Q110.7 -2.4 110.7 -2.4Z M120.5 3.9V-9.9H128.1Q128.8 -9.9 129.3 -9.5Q129.8 -9.2 130.2 -8.7Q130.5 -8.1 130.5 -7.5V-2.4Q130.5 -1.8 130.2 -1.2Q129.8 -0.7 129.3 -0.3Q128.8 0.0 128.1 0.0H122.9V3.9ZM123.0 -2.4H128.0Q128.0 -2.4 128.1 -2.4Q128.1 -2.5 128.1 -2.5V-7.3Q128.1 -7.4 128.1 -7.4Q128.0 -7.4 128.0 -7.4H123.0Q123.0 -7.4 122.9 -7.4Q122.9 -7.4 122.9 -7.3V-2.5Q122.9 -2.5 122.9 -2.4Q123.0 -2.4 123.0 -2.4Z M132.3 2.4V0.0H144.4V2.4Z M149.2 0.0Q148.6 0.0 148.0 -0.3Q147.5 -0.7 147.1 -1.2Q146.8 -1.8 146.8 -2.4V-7.5Q146.8 -8.1 147.1 -8.7Q147.5 -9.2 148.0 -9.5Q148.6 -9.9 149.2 -9.9H154.4Q155.1 -9.9 155.6 -9.5Q156.2 -9.2 156.5 -8.7Q156.8 -8.1 156.8 -7.5V-2.4Q156.8 -1.8 156.5 -1.2Q156.2 -0.7 155.6 -0.3Q155.1 0.0 154.4 0.0H149.2ZM149.3 -2.4H154.3Q154.3 -2.4 154.4 -2.4Q154.4 -2.5 154.4 -2.5V-7.3Q154.4 -7.4 154.4 -7.4Q154.3 -7.4 154.3 -7.4H149.3Q149.3 -7.4 149.3 -7.4Q149.2 -7.4 149.2 -7.3V-2.5Q149.2 -2.5 149.3 -2.4Q149.3 -2.4 149.3 -2.4Z M159.1 3.9V-9.9H166.7Q167.4 -9.9 167.9 -9.5Q168.5 -9.2 168.8 -8.7Q169.1 -8.1 169.1 -7.5V-2.4Q169.1 -1.8 168.8 -1.2Q168.5 -0.7 167.9 -0.3Q167.4 0.0 166.7 0.0H161.5V3.9ZM161.6 -2.4H166.6Q166.7 -2.4 166.7 -2.4Q166.7 -2.5 166.7 -2.5V-7.3Q166.7 -7.4 166.7 -7.4Q166.7 -7.4 166.6 -7.4H161.6Q161.6 -7.4 161.6 -7.4Q161.5 -7.4 161.5 -7.3V-2.5Q161.5 -2.5 161.6 -2.4Q161.6 -2.4 161.6 -2.4Z M173.3 0.0Q172.6 0.0 172.1 -0.3Q171.5 -0.7 171.2 -1.2Q170.9 -1.8 170.9 -2.4V-7.5Q170.9 -8.1 171.2 -8.7Q171.5 -9.2 172.1 -9.5Q172.6 -9.9 173.3 -9.9H178.5Q179.1 -9.9 179.7 -9.5Q180.2 -9.2 180.5 -8.7Q180.9 -8.1 180.9 -7.5V-3.7H173.3V-2.5Q173.3 -2.5 173.3 -2.4Q173.3 -2.4 173.4 -2.4H180.9V0.0H173.3ZM173.3 -5.9H178.4V-7.3Q178.4 -7.4 178.4 -7.4Q178.4 -7.4 178.3 -7.4H173.4Q173.3 -7.4 173.3 -7.4Q173.3 -7.4 173.3 -7.3Z M183.1 0.0V-7.5Q183.1 -8.1 183.5 -8.7Q183.8 -9.2 184.4 -9.5Q184.9 -9.9 185.6 -9.9H191.0V-7.4H185.7Q185.6 -7.4 185.6 -7.4Q185.6 -7.4 185.6 -7.3V0.0Z M194.9 0.0Q194.3 0.0 193.8 -0.3Q193.2 -0.7 192.9 -1.2Q192.6 -1.8 192.6 -2.4V-6.2H200.1V-7.3Q200.1 -7.4 200.1 -7.4Q200.1 -7.4 200.0 -7.4H192.6V-9.9H200.2Q200.8 -9.9 201.4 -9.5Q201.9 -9.2 202.2 -8.7Q202.5 -8.1 202.5 -7.5V0.0ZM195.1 -2.4H200.1V-4.0H195.0V-2.5Q195.0 -2.5 195.0 -2.4Q195.0 -2.4 195.1 -2.4Z M207.3 0.0Q206.6 0.0 206.1 -0.3Q205.5 -0.7 205.2 -1.2Q204.9 -1.8 204.9 -2.4V-12.8H207.3V-9.9H211.0V-7.4H207.3V-2.5Q207.3 -2.5 207.3 -2.4Q207.3 -2.4 207.4 -2.4H211.0V0.0H207.3Z M215.3 0.0Q214.6 0.0 214.1 -0.3Q213.6 -0.7 213.2 -1.2Q212.9 -1.8 212.9 -2.4V-7.5Q212.9 -8.1 213.2 -8.7Q213.6 -9.2 214.1 -9.5Q214.6 -9.9 215.3 -9.9H220.5Q221.2 -9.9 221.7 -9.5Q222.2 -9.2 222.6 -8.7Q222.9 -8.1 222.9 -7.5V-2.4Q222.9 -1.8 222.6 -1.2Q222.2 -0.7 221.7 -0.3Q221.2 0.0 220.5 0.0H215.3ZM215.4 -2.4H220.4Q220.4 -2.4 220.4 -2.4Q220.5 -2.5 220.5 -2.5V-7.3Q220.5 -7.4 220.4 -7.4Q220.4 -7.4 220.4 -7.4H215.4Q215.4 -7.4 215.3 -7.4Q215.3 -7.4 215.3 -7.3V-2.5Q215.3 -2.5 215.3 -2.4Q215.4 -2.4 215.4 -2.4Z M225.2 0.0V-7.5Q225.2 -8.1 225.5 -8.7Q225.8 -9.2 226.4 -9.5Q226.9 -9.9 227.6 -9.9H233.1V-7.4H227.7Q227.7 -7.4 227.6 -7.4Q227.6 -7.4 227.6 -7.3V0.0Z M234.6 2.4V0.0H246.7V2.4Z M251.5 0.0Q250.8 0.0 250.3 -0.3Q249.8 -0.7 249.4 -1.2Q249.1 -1.8 249.1 -2.4V-2.8H251.5V-2.5Q251.5 -2.5 251.5 -2.4Q251.6 -2.4 251.6 -2.4H256.6Q256.6 -2.4 256.6 -2.4Q256.7 -2.5 256.7 -2.5V-3.6Q256.7 -3.7 256.6 -3.7Q256.6 -3.7 256.6 -3.7H251.5Q250.8 -3.7 250.3 -4.0Q249.8 -4.4 249.4 -4.9Q249.1 -5.5 249.1 -6.1V-7.5Q249.1 -8.1 249.4 -8.7Q249.8 -9.2 250.3 -9.5Q250.8 -9.9 251.5 -9.9H256.7Q257.4 -9.9 257.9 -9.5Q258.4 -9.2 258.8 -8.7Q259.1 -8.1 259.1 -7.5V-7.0H256.7V-7.3Q256.7 -7.4 256.6 -7.4Q256.6 -7.4 256.6 -7.4H251.6Q251.6 -7.4 251.5 -7.4Q251.5 -7.4 251.5 -7.3V-6.2Q251.5 -6.2 251.5 -6.2Q251.6 -6.2 251.6 -6.2H256.7Q257.4 -6.2 257.9 -5.8Q258.4 -5.5 258.8 -4.9Q259.1 -4.4 259.1 -3.7V-2.4Q259.1 -1.8 258.8 -1.2Q258.4 -0.7 257.9 -0.3Q257.4 0.0 256.7 0.0H251.5Z M261.4 0.0V-13.1H263.8V-6.2H265.3L268.7 -9.9H271.2V-9.1L267.4 -4.9L271.2 -0.7V0.0H268.7L265.3 -3.7H263.8V0.0Z M272.8 0.0V-9.9H275.2V0.0ZM272.8 -10.7V-13.1H275.2V-10.7Z M279.5 0.0Q278.9 0.0 278.4 -0.3Q277.8 -0.7 277.5 -1.2Q277.1 -1.8 277.1 -2.4V-13.1H279.6V-2.5Q279.6 -2.5 279.6 -2.4Q279.6 -2.4 279.7 -2.4H281.6V0.0H279.5Z M285.7 0.0Q285.0 0.0 284.5 -0.3Q284.0 -0.7 283.6 -1.2Q283.3 -1.8 283.3 -2.4V-13.1H285.7V-2.5Q285.7 -2.5 285.8 -2.4Q285.8 -2.4 285.8 -2.4H287.8V0.0H285.7Z" fill="#34D399" /></g>

    <rect x="22" y="70" width="170" height="20" rx="10"
      fill="#34D399" fill-opacity=".1" stroke="#34D399" stroke-opacity=".45" stroke-width="1"/>
    <text x="35" y="84" class="mono" font-size="10.5" letter-spacing="2" fill="#34D399">MCP · AUTOMATION</text>

    <text x="24" y="122" class="mono" font-size="13" fill="#E6EDF3" opacity=".88">Computer-use automation via MCP —</text>
    <text x="24" y="143" class="mono" font-size="13" fill="#E6EDF3" opacity=".88">AI operating a full desktop, hands-free.</text>

    <line x1="22" y1="170" x2="398" y2="170" stroke="#8B5CF6" stroke-opacity=".25" stroke-width="1"/>

    <circle cx="32" cy="194" r="5.5" fill="#3572A5" style="animation:blinkDot 4s ease-in-out infinite"/>
    <text x="45" y="199" class="mono" font-size="12.5" font-weight="600" fill="#3572A5">Python</text>

    <svg x="168" y="185" viewBox="0 0 16 16" width="15" height="15">
      <path fill="#FBBF24" fill-rule="evenodd" d="M8 .25a.75.75 0 01.673.418l1.882 3.815 4.21.612a.75.75 0 01.416 1.279l-3.046 2.97.719 4.192a.75.75 0 01-1.088.791L8 12.347l-3.766 1.98a.75.75 0 01-1.088-.79l.72-4.194L.818 6.374a.75.75 0 01.416-1.28l4.21-.611L7.327.668A.75.75 0 018 .25z"/>
    </svg>
    <text x="189" y="199" class="mono" font-size="12.5" font-weight="600" fill="#FBBF24">2</text>

    <g style="animation:chipPulse 2.8s ease-in-out infinite">
      <rect x="294" y="182" width="104" height="26" rx="13"
        fill="#34D399" fill-opacity=".14" stroke="#34D399" stroke-opacity=".6" stroke-width="1.1"/>
      <text x="308" y="200" class="mono" font-size="11.5" letter-spacing="1" fill="#34D399">EXPLORE</text>
      <g style="animation:arrowNudge 1.6s ease-in-out infinite">
        <text x="380" y="200" class="mono" font-size="12.5" fill="#34D399">→</text>
      </g>
    </g>
  </g>
</svg>
